<?xml version="1.0" encoding="utf-8"?>
<svg xmlns="http://www.w3.org/2000/svg" xmlns:xlink="http://www.w3.org/1999/xlink" width="600" height="450" viewBox="0 0 2400 1800">
<defs>
  <clipPath id="clip120">
    <rect x="300" y="135" width="1921" height="1441"/>
  </clipPath>
</defs>
<defs>
  <clipPath id="clip121">
    <rect x="0" y="0" width="2400" height="1800"/>
  </clipPath>
</defs>
<path clip-path="url(#clip121)" d="
M300 1575 L2220 1575 L2220 135 L300 135  Z
  " fill="#ffffff" fill-rule="evenodd" fill-opacity="1"/>
<polyline clip-path="url(#clip121)" style="stroke:#cccccc; stroke-width:3.6; stroke-opacity:1; fill:none" points="
  300,1575 2220,1575 
  "/>
<polyline clip-path="url(#clip121)" style="stroke:#ededed; stroke-width:3.6; stroke-opacity:1; fill:none" points="
  300,1444.09 2220,1444.09 
  "/>
<polyline clip-path="url(#clip121)" style="stroke:#ededed; stroke-width:3.6; stroke-opacity:1; fill:none" points="
  300,1313.18 2220,1313.18 
  "/>
<polyline clip-path="url(#clip121)" style="stroke:#ededed; stroke-width:3.6; stroke-opacity:1; fill:none" points="
  300,1182.27 2220,1182.27 
  "/>
<polyline clip-path="url(#clip121)" style="stroke:#ededed; stroke-width:3.6; stroke-opacity:1; fill:none" points="
  300,1051.36 2220,1051.36 
  "/>
<polyline clip-path="url(#clip121)" style="stroke:#cccccc; stroke-width:3.6; stroke-opacity:1; fill:none" points="
  300,920.455 2220,920.455 
  "/>
<polyline clip-path="url(#clip121)" style="stroke:#ededed; stroke-width:3.6; stroke-opacity:1; fill:none" points="
  300,789.545 2220,789.545 
  "/>
<polyline clip-path="url(#clip121)" style="stroke:#ededed; stroke-width:3.6; stroke-opacity:1; fill:none" points="
  300,658.636 2220,658.636 
  "/>
<polyline clip-path="url(#clip121)" style="stroke:#ededed; stroke-width:3.6; stroke-opacity:1; fill:none" points="
  300,527.727 2220,527.727 
  "/>
<polyline clip-path="url(#clip121)" style="stroke:#ededed; stroke-width:3.6; stroke-opacity:1; fill:none" points="
  300,396.818 2220,396.818 
  "/>
<polyline clip-path="url(#clip121)" style="stroke:#cccccc; stroke-width:3.6; stroke-opacity:1; fill:none" points="
  300,265.909 2220,265.909 
  "/>
<polyline clip-path="url(#clip121)" style="stroke:#ededed; stroke-width:3.6; stroke-opacity:1; fill:none" points="
  300,135 2220,135 
  "/>
<polyline clip-path="url(#clip121)" style="stroke:#ededed; stroke-width:3.6; stroke-opacity:1; fill:none" points="
  366.024,1575 366.024,135 
  "/>
<polyline clip-path="url(#clip121)" style="stroke:#ededed; stroke-width:3.6; stroke-opacity:1; fill:none" points="
  412.869,1575 412.869,135 
  "/>
<polyline clip-path="url(#clip121)" style="stroke:#ededed; stroke-width:3.6; stroke-opacity:1; fill:none" points="
  449.205,1575 449.205,135 
  "/>
<polyline clip-path="url(#clip121)" style="stroke:#ededed; stroke-width:3.6; stroke-opacity:1; fill:none" points="
  478.894,1575 478.894,135 
  "/>
<polyline clip-path="url(#clip121)" style="stroke:#ededed; stroke-width:3.6; stroke-opacity:1; fill:none" points="
  503.995,1575 503.995,135 
  "/>
<polyline clip-path="url(#clip121)" style="stroke:#ededed; stroke-width:3.6; stroke-opacity:1; fill:none" points="
  525.739,1575 525.739,135 
  "/>
<polyline clip-path="url(#clip121)" style="stroke:#ededed; stroke-width:3.6; stroke-opacity:1; fill:none" points="
  544.918,1575 544.918,135 
  "/>
<polyline clip-path="url(#clip121)" style="stroke:#ededed; stroke-width:3.6; stroke-opacity:1; fill:none" points="
  562.075,1575 562.075,135 
  "/>
<polyline clip-path="url(#clip121)" style="stroke:#cccccc; stroke-width:3.6; stroke-opacity:1; fill:none" points="
  562.075,1575 562.075,135 
  "/>
<polyline clip-path="url(#clip121)" style="stroke:#ededed; stroke-width:3.6; stroke-opacity:1; fill:none" points="
  674.944,1575 674.944,135 
  "/>
<polyline clip-path="url(#clip121)" style="stroke:#ededed; stroke-width:3.6; stroke-opacity:1; fill:none" points="
  740.969,1575 740.969,135 
  "/>
<polyline clip-path="url(#clip121)" style="stroke:#ededed; stroke-width:3.6; stroke-opacity:1; fill:none" points="
  787.814,1575 787.814,135 
  "/>
<polyline clip-path="url(#clip121)" style="stroke:#ededed; stroke-width:3.6; stroke-opacity:1; fill:none" points="
  824.149,1575 824.149,135 
  "/>
<polyline clip-path="url(#clip121)" style="stroke:#ededed; stroke-width:3.6; stroke-opacity:1; fill:none" points="
  853.838,1575 853.838,135 
  "/>
<polyline clip-path="url(#clip121)" style="stroke:#ededed; stroke-width:3.6; stroke-opacity:1; fill:none" points="
  878.939,1575 878.939,135 
  "/>
<polyline clip-path="url(#clip121)" style="stroke:#ededed; stroke-width:3.6; stroke-opacity:1; fill:none" points="
  900.683,1575 900.683,135 
  "/>
<polyline clip-path="url(#clip121)" style="stroke:#ededed; stroke-width:3.6; stroke-opacity:1; fill:none" points="
  919.862,1575 919.862,135 
  "/>
<polyline clip-path="url(#clip121)" style="stroke:#ededed; stroke-width:3.6; stroke-opacity:1; fill:none" points="
  937.019,1575 937.019,135 
  "/>
<polyline clip-path="url(#clip121)" style="stroke:#cccccc; stroke-width:3.6; stroke-opacity:1; fill:none" points="
  937.019,1575 937.019,135 
  "/>
<polyline clip-path="url(#clip121)" style="stroke:#ededed; stroke-width:3.6; stroke-opacity:1; fill:none" points="
  1049.89,1575 1049.89,135 
  "/>
<polyline clip-path="url(#clip121)" style="stroke:#ededed; stroke-width:3.6; stroke-opacity:1; fill:none" points="
  1115.91,1575 1115.91,135 
  "/>
<polyline clip-path="url(#clip121)" style="stroke:#ededed; stroke-width:3.6; stroke-opacity:1; fill:none" points="
  1162.76,1575 1162.76,135 
  "/>
<polyline clip-path="url(#clip121)" style="stroke:#ededed; stroke-width:3.6; stroke-opacity:1; fill:none" points="
  1199.09,1575 1199.09,135 
  "/>
<polyline clip-path="url(#clip121)" style="stroke:#ededed; stroke-width:3.6; stroke-opacity:1; fill:none" points="
  1228.78,1575 1228.78,135 
  "/>
<polyline clip-path="url(#clip121)" style="stroke:#ededed; stroke-width:3.6; stroke-opacity:1; fill:none" points="
  1253.88,1575 1253.88,135 
  "/>
<polyline clip-path="url(#clip121)" style="stroke:#ededed; stroke-width:3.6; stroke-opacity:1; fill:none" points="
  1275.63,1575 1275.63,135 
  "/>
<polyline clip-path="url(#clip121)" style="stroke:#ededed; stroke-width:3.6; stroke-opacity:1; fill:none" points="
  1294.81,1575 1294.81,135 
  "/>
<polyline clip-path="url(#clip121)" style="stroke:#ededed; stroke-width:3.6; stroke-opacity:1; fill:none" points="
  1311.96,1575 1311.96,135 
  "/>
<polyline clip-path="url(#clip121)" style="stroke:#cccccc; stroke-width:3.6; stroke-opacity:1; fill:none" points="
  1311.96,1575 1311.96,135 
  "/>
<polyline clip-path="url(#clip121)" style="stroke:#ededed; stroke-width:3.6; stroke-opacity:1; fill:none" points="
  1424.83,1575 1424.83,135 
  "/>
<polyline clip-path="url(#clip121)" style="stroke:#ededed; stroke-width:3.6; stroke-opacity:1; fill:none" points="
  1490.86,1575 1490.86,135 
  "/>
<polyline clip-path="url(#clip121)" style="stroke:#ededed; stroke-width:3.6; stroke-opacity:1; fill:none" points="
  1537.7,1575 1537.7,135 
  "/>
<polyline clip-path="url(#clip121)" style="stroke:#ededed; stroke-width:3.6; stroke-opacity:1; fill:none" points="
  1574.04,1575 1574.04,135 
  "/>
<polyline clip-path="url(#clip121)" style="stroke:#ededed; stroke-width:3.6; stroke-opacity:1; fill:none" points="
  1603.73,1575 1603.73,135 
  "/>
<polyline clip-path="url(#clip121)" style="stroke:#ededed; stroke-width:3.6; stroke-opacity:1; fill:none" points="
  1628.83,1575 1628.83,135 
  "/>
<polyline clip-path="url(#clip121)" style="stroke:#ededed; stroke-width:3.6; stroke-opacity:1; fill:none" points="
  1650.57,1575 1650.57,135 
  "/>
<polyline clip-path="url(#clip121)" style="stroke:#ededed; stroke-width:3.6; stroke-opacity:1; fill:none" points="
  1669.75,1575 1669.75,135 
  "/>
<polyline clip-path="url(#clip121)" style="stroke:#ededed; stroke-width:3.6; stroke-opacity:1; fill:none" points="
  1686.91,1575 1686.91,135 
  "/>
<polyline clip-path="url(#clip121)" style="stroke:#cccccc; stroke-width:3.6; stroke-opacity:1; fill:none" points="
  1686.91,1575 1686.91,135 
  "/>
<polyline clip-path="url(#clip121)" style="stroke:#ededed; stroke-width:3.6; stroke-opacity:1; fill:none" points="
  1799.78,1575 1799.78,135 
  "/>
<polyline clip-path="url(#clip121)" style="stroke:#ededed; stroke-width:3.6; stroke-opacity:1; fill:none" points="
  1865.8,1575 1865.8,135 
  "/>
<polyline clip-path="url(#clip121)" style="stroke:#ededed; stroke-width:3.6; stroke-opacity:1; fill:none" points="
  1912.65,1575 1912.65,135 
  "/>
<polyline clip-path="url(#clip121)" style="stroke:#ededed; stroke-width:3.6; stroke-opacity:1; fill:none" points="
  1948.98,1575 1948.98,135 
  "/>
<polyline clip-path="url(#clip121)" style="stroke:#ededed; stroke-width:3.6; stroke-opacity:1; fill:none" points="
  1978.67,1575 1978.67,135 
  "/>
<polyline clip-path="url(#clip121)" style="stroke:#ededed; stroke-width:3.6; stroke-opacity:1; fill:none" points="
  2003.77,1575 2003.77,135 
  "/>
<polyline clip-path="url(#clip121)" style="stroke:#ededed; stroke-width:3.6; stroke-opacity:1; fill:none" points="
  2025.52,1575 2025.52,135 
  "/>
<polyline clip-path="url(#clip121)" style="stroke:#ededed; stroke-width:3.6; stroke-opacity:1; fill:none" points="
  2044.69,1575 2044.69,135 
  "/>
<polyline clip-path="url(#clip121)" style="stroke:#ededed; stroke-width:3.6; stroke-opacity:1; fill:none" points="
  2061.85,1575 2061.85,135 
  "/>
<polyline clip-path="url(#clip121)" style="stroke:#cccccc; stroke-width:3.6; stroke-opacity:1; fill:none" points="
  2061.85,1575 2061.85,135 
  "/>
<polyline clip-path="url(#clip121)" style="stroke:#ededed; stroke-width:3.6; stroke-opacity:1; fill:none" points="
  2174.72,1575 2174.72,135 
  "/>
<path clip-path="url(#clip121)" d="M 0 0 M255.382 1571.84 Q255.382 1562.54 257.729 1557.48 Q261.002 1549.94 268.722 1549.94 Q270.359 1549.94 272.057 1550.41 Q273.786 1550.84 275.948 1552.54 Q278.14 1554.24 279.468 1557.02 Q282 1562.39 282 1571.84 Q282 1581.07 279.653 1586.1 Q276.226 1593.45 268.66 1593.45 Q265.819 1593.45 262.917 1592 Q260.045 1590.55 258.223 1587.06 Q255.382 1581.84 255.382 1571.84 M260.632 1571.07 Q260.632 1580.61 261.311 1584.41 Q262.083 1588.51 264.183 1590.3 Q266.313 1592.06 268.66 1592.06 Q271.192 1592.06 273.292 1590.18 Q275.423 1588.27 276.071 1584.16 Q276.781 1580.11 276.751 1571.07 Q276.751 1562.27 276.133 1558.75 Q275.299 1554.64 273.076 1553 Q270.883 1551.33 268.66 1551.33 Q267.826 1551.33 266.931 1551.58 Q266.066 1551.83 264.8 1552.54 Q263.534 1553.25 262.546 1555.01 Q261.589 1556.77 261.126 1559.42 Q260.632 1562.85 260.632 1571.07 Z" fill="#000000" fill-rule="evenodd" fill-opacity="1" /><path clip-path="url(#clip121)" d="M 0 0 M198.564 927.328 Q198.564 925.445 199.583 924.735 Q200.602 923.993 201.683 923.993 Q203.135 923.993 203.968 924.92 Q204.833 925.815 204.833 927.081 Q204.833 928.347 203.968 929.274 Q203.135 930.169 201.683 930.169 Q200.973 930.169 200.602 930.046 Q201.436 932.948 203.968 935.048 Q206.531 937.148 209.897 937.148 Q214.128 937.148 216.66 933.041 Q218.173 930.385 218.173 924.364 Q218.173 919.053 217.03 916.397 Q215.27 912.352 211.657 912.352 Q206.531 912.352 203.505 916.768 Q203.135 917.324 202.702 917.354 Q202.085 917.354 201.93 917.015 Q201.807 916.644 201.807 915.687 L201.807 896.974 Q201.807 895.461 202.424 895.461 Q202.671 895.461 203.196 895.646 Q207.18 897.406 211.595 897.437 Q216.135 897.437 220.211 895.585 Q220.52 895.399 220.705 895.399 Q221.322 895.399 221.353 896.11 Q221.353 896.357 220.828 897.098 Q220.334 897.808 219.253 898.765 Q218.173 899.692 216.783 900.587 Q215.394 901.483 213.356 902.1 Q211.348 902.687 209.125 902.687 Q206.469 902.687 203.752 901.853 L203.752 914.174 Q207.025 910.962 211.781 910.962 Q216.845 910.962 220.334 915.038 Q223.824 919.115 223.824 924.796 Q223.824 930.756 219.686 934.832 Q215.579 938.908 210.021 938.908 Q204.956 938.908 201.745 935.295 Q198.564 931.682 198.564 927.328 Z" fill="#000000" fill-rule="evenodd" fill-opacity="1" /><path clip-path="url(#clip121)" d="M 0 0 M226.294 917.293 Q226.294 907.998 228.641 902.934 Q231.914 895.399 239.634 895.399 Q241.27 895.399 242.969 895.863 Q244.698 896.295 246.859 897.993 Q249.052 899.692 250.38 902.471 Q252.912 907.844 252.912 917.293 Q252.912 926.526 250.565 931.559 Q247.137 938.908 239.572 938.908 Q236.731 938.908 233.828 937.457 Q230.957 936.005 229.135 932.516 Q226.294 927.298 226.294 917.293 M231.543 916.521 Q231.543 926.062 232.223 929.861 Q232.995 933.967 235.094 935.758 Q237.225 937.519 239.572 937.519 Q242.104 937.519 244.204 935.635 Q246.335 933.72 246.983 929.613 Q247.693 925.568 247.662 916.521 Q247.662 907.72 247.045 904.2 Q246.211 900.093 243.988 898.456 Q241.795 896.789 239.572 896.789 Q238.738 896.789 237.843 897.036 Q236.978 897.283 235.712 897.993 Q234.446 898.703 233.458 900.464 Q232.501 902.224 232.037 904.879 Q231.543 908.307 231.543 916.521 Z" fill="#000000" fill-rule="evenodd" fill-opacity="1" /><path clip-path="url(#clip121)" d="M 0 0 M255.382 917.293 Q255.382 907.998 257.729 902.934 Q261.002 895.399 268.722 895.399 Q270.359 895.399 272.057 895.863 Q273.786 896.295 275.948 897.993 Q278.14 899.692 279.468 902.471 Q282 907.844 282 917.293 Q282 926.526 279.653 931.559 Q276.226 938.908 268.66 938.908 Q265.819 938.908 262.917 937.457 Q260.045 936.005 258.223 932.516 Q255.382 927.298 255.382 917.293 M260.632 916.521 Q260.632 926.062 261.311 929.861 Q262.083 933.967 264.183 935.758 Q266.313 937.519 268.66 937.519 Q271.192 937.519 273.292 935.635 Q275.423 933.72 276.071 929.613 Q276.781 925.568 276.751 916.521 Q276.751 907.72 276.133 904.2 Q275.299 900.093 273.076 898.456 Q270.883 896.789 268.66 896.789 Q267.826 896.789 266.931 897.036 Q266.066 897.283 264.8 897.993 Q263.534 898.703 262.546 900.464 Q261.589 902.224 261.126 904.879 Q260.632 908.307 260.632 916.521 Z" fill="#000000" fill-rule="evenodd" fill-opacity="1" /><path clip-path="url(#clip121)" d="M 0 0 M173.861 246.875 L173.861 244.899 Q181.457 244.899 185.379 240.854 Q186.46 240.854 186.645 241.101 Q186.83 241.348 186.83 242.49 L186.83 277.971 Q186.83 279.854 187.757 280.441 Q188.683 281.028 192.728 281.028 L194.735 281.028 L194.735 282.973 Q192.512 282.788 184.483 282.788 Q176.455 282.788 174.262 282.973 L174.262 281.028 L176.27 281.028 Q180.253 281.028 181.21 280.472 Q182.168 279.885 182.168 277.971 L182.168 245.208 Q178.863 246.875 173.861 246.875 Z" fill="#000000" fill-rule="evenodd" fill-opacity="1" /><path clip-path="url(#clip121)" d="M 0 0 M197.206 262.747 Q197.206 253.453 199.553 248.388 Q202.826 240.854 210.546 240.854 Q212.182 240.854 213.88 241.317 Q215.61 241.749 217.771 243.448 Q219.964 245.146 221.291 247.925 Q223.824 253.298 223.824 262.747 Q223.824 271.98 221.477 277.013 Q218.049 284.363 210.484 284.363 Q207.643 284.363 204.74 282.911 Q201.868 281.46 200.047 277.971 Q197.206 272.752 197.206 262.747 M202.455 261.975 Q202.455 271.517 203.135 275.315 Q203.907 279.422 206.006 281.213 Q208.137 282.973 210.484 282.973 Q213.016 282.973 215.116 281.089 Q217.246 279.175 217.895 275.068 Q218.605 271.023 218.574 261.975 Q218.574 253.175 217.957 249.654 Q217.123 245.548 214.899 243.911 Q212.707 242.243 210.484 242.243 Q209.65 242.243 208.755 242.49 Q207.89 242.737 206.624 243.448 Q205.358 244.158 204.37 245.918 Q203.412 247.678 202.949 250.334 Q202.455 253.761 202.455 261.975 Z" fill="#000000" fill-rule="evenodd" fill-opacity="1" /><path clip-path="url(#clip121)" d="M 0 0 M226.294 262.747 Q226.294 253.453 228.641 248.388 Q231.914 240.854 239.634 240.854 Q241.27 240.854 242.969 241.317 Q244.698 241.749 246.859 243.448 Q249.052 245.146 250.38 247.925 Q252.912 253.298 252.912 262.747 Q252.912 271.98 250.565 277.013 Q247.137 284.363 239.572 284.363 Q236.731 284.363 233.828 282.911 Q230.957 281.46 229.135 277.971 Q226.294 272.752 226.294 262.747 M231.543 261.975 Q231.543 271.517 232.223 275.315 Q232.995 279.422 235.094 281.213 Q237.225 282.973 239.572 282.973 Q242.104 282.973 244.204 281.089 Q246.335 279.175 246.983 275.068 Q247.693 271.023 247.662 261.975 Q247.662 253.175 247.045 249.654 Q246.211 245.548 243.988 243.911 Q241.795 242.243 239.572 242.243 Q238.738 242.243 237.843 242.49 Q236.978 242.737 235.712 243.448 Q234.446 244.158 233.458 245.918 Q232.501 247.678 232.037 250.334 Q231.543 253.761 231.543 261.975 Z" fill="#000000" fill-rule="evenodd" fill-opacity="1" /><path clip-path="url(#clip121)" d="M 0 0 M255.382 262.747 Q255.382 253.453 257.729 248.388 Q261.002 240.854 268.722 240.854 Q270.359 240.854 272.057 241.317 Q273.786 241.749 275.948 243.448 Q278.14 245.146 279.468 247.925 Q282 253.298 282 262.747 Q282 271.98 279.653 277.013 Q276.226 284.363 268.66 284.363 Q265.819 284.363 262.917 282.911 Q260.045 281.46 258.223 277.971 Q255.382 272.752 255.382 262.747 M260.632 261.975 Q260.632 271.517 261.311 275.315 Q262.083 279.422 264.183 281.213 Q266.313 282.973 268.66 282.973 Q271.192 282.973 273.292 281.089 Q275.423 279.175 276.071 275.068 Q276.781 271.023 276.751 261.975 Q276.751 253.175 276.133 249.654 Q275.299 245.548 273.076 243.911 Q270.883 242.243 268.66 242.243 Q267.826 242.243 266.931 242.49 Q266.066 242.737 264.8 243.448 Q263.534 244.158 262.546 245.918 Q261.589 247.678 261.126 250.334 Q260.632 253.761 260.632 261.975 Z" fill="#000000" fill-rule="evenodd" fill-opacity="1" /><polyline clip-path="url(#clip121)" style="stroke:#000000; stroke-width:3.6; stroke-opacity:1; fill:none" points="
  300,1575 300,1575 336,1575 300,1575 300,1444.09 318,1444.09 300,1444.09 300,1313.18 318,1313.18 300,1313.18 
  300,1182.27 318,1182.27 300,1182.27 300,1051.36 318,1051.36 300,1051.36 300,920.455 336,920.455 300,920.455 300,789.545 
  318,789.545 300,789.545 300,658.636 318,658.636 300,658.636 300,527.727 318,527.727 300,527.727 300,396.818 318,396.818 
  300,396.818 300,265.909 336,265.909 300,265.909 300,135 318,135 300,135 
  "/>
<path clip-path="url(#clip121)" d="M 0 0 M528.613 1635.66 L528.613 1633.68 Q536.21 1633.68 540.131 1629.64 Q541.212 1629.64 541.397 1629.89 Q541.582 1630.13 541.582 1631.28 L541.582 1666.76 Q541.582 1668.64 542.509 1669.23 Q543.435 1669.81 547.48 1669.81 L549.488 1669.81 L549.488 1671.76 Q547.264 1671.57 539.236 1671.57 Q531.207 1671.57 529.015 1671.76 L529.015 1669.81 L531.022 1669.81 Q535.005 1669.81 535.962 1669.26 Q536.92 1668.67 536.92 1666.76 L536.92 1633.99 Q533.616 1635.66 528.613 1635.66 Z" fill="#000000" fill-rule="evenodd" fill-opacity="1" /><path clip-path="url(#clip121)" d="M 0 0 M551.958 1651.53 Q551.958 1642.24 554.305 1637.17 Q557.578 1629.64 565.298 1629.64 Q566.934 1629.64 568.633 1630.1 Q570.362 1630.54 572.523 1632.23 Q574.716 1633.93 576.044 1636.71 Q578.576 1642.08 578.576 1651.53 Q578.576 1660.77 576.229 1665.8 Q572.801 1673.15 565.236 1673.15 Q562.395 1673.15 559.492 1671.7 Q556.621 1670.25 554.799 1666.76 Q551.958 1661.54 551.958 1651.53 M557.207 1650.76 Q557.207 1660.3 557.887 1664.1 Q558.659 1668.21 560.758 1670 Q562.889 1671.76 565.236 1671.76 Q567.768 1671.76 569.868 1669.88 Q571.998 1667.96 572.647 1663.85 Q573.357 1659.81 573.326 1650.76 Q573.326 1641.96 572.709 1638.44 Q571.875 1634.33 569.652 1632.7 Q567.459 1631.03 565.236 1631.03 Q564.402 1631.03 563.507 1631.28 Q562.642 1631.52 561.376 1632.23 Q560.11 1632.94 559.122 1634.7 Q558.165 1636.46 557.701 1639.12 Q557.207 1642.55 557.207 1650.76 Z" fill="#000000" fill-rule="evenodd" fill-opacity="1" /><path clip-path="url(#clip121)" d="M 0 0 M578.576 1608.17 L578.576 1606.56 Q584.748 1606.56 587.934 1603.27 Q588.812 1603.27 588.963 1603.47 Q589.113 1603.68 589.113 1604.6 L589.113 1633.43 Q589.113 1634.96 589.866 1635.44 Q590.619 1635.92 593.905 1635.92 L595.536 1635.92 L595.536 1637.5 Q593.73 1637.35 587.207 1637.35 Q580.683 1637.35 578.902 1637.5 L578.902 1635.92 L580.533 1635.92 Q583.769 1635.92 584.547 1635.46 Q585.325 1634.99 585.325 1633.43 L585.325 1606.81 Q582.64 1608.17 578.576 1608.17 Z" fill="#000000" fill-rule="evenodd" fill-opacity="1" /><path clip-path="url(#clip121)" d="M 0 0 M901.776 1635.66 L901.776 1633.68 Q909.372 1633.68 913.294 1629.64 Q914.375 1629.64 914.56 1629.89 Q914.745 1630.13 914.745 1631.28 L914.745 1666.76 Q914.745 1668.64 915.672 1669.23 Q916.598 1669.81 920.643 1669.81 L922.65 1669.81 L922.65 1671.76 Q920.427 1671.57 912.398 1671.57 Q904.37 1671.57 902.177 1671.76 L902.177 1669.81 L904.185 1669.81 Q908.168 1669.81 909.125 1669.26 Q910.083 1668.67 910.083 1666.76 L910.083 1633.99 Q906.778 1635.66 901.776 1635.66 Z" fill="#000000" fill-rule="evenodd" fill-opacity="1" /><path clip-path="url(#clip121)" d="M 0 0 M925.121 1651.53 Q925.121 1642.24 927.467 1637.17 Q930.741 1629.64 938.46 1629.64 Q940.097 1629.64 941.795 1630.1 Q943.525 1630.54 945.686 1632.23 Q947.879 1633.93 949.206 1636.71 Q951.739 1642.08 951.739 1651.53 Q951.739 1660.77 949.392 1665.8 Q945.964 1673.15 938.399 1673.15 Q935.558 1673.15 932.655 1671.7 Q929.783 1670.25 927.962 1666.76 Q925.121 1661.54 925.121 1651.53 M930.37 1650.76 Q930.37 1660.3 931.049 1664.1 Q931.821 1668.21 933.921 1670 Q936.052 1671.76 938.399 1671.76 Q940.931 1671.76 943.031 1669.88 Q945.161 1667.96 945.81 1663.85 Q946.52 1659.81 946.489 1650.76 Q946.489 1641.96 945.871 1638.44 Q945.038 1634.33 942.814 1632.7 Q940.622 1631.03 938.399 1631.03 Q937.565 1631.03 936.669 1631.28 Q935.805 1631.52 934.539 1632.23 Q933.273 1632.94 932.285 1634.7 Q931.327 1636.46 930.864 1639.12 Q930.37 1642.55 930.37 1650.76 Z" fill="#000000" fill-rule="evenodd" fill-opacity="1" /><path clip-path="url(#clip121)" d="M 0 0 M951.739 1637.5 Q951.739 1636.57 951.814 1636.29 Q951.914 1636.02 952.316 1635.59 L962.176 1624.6 Q967.57 1618.53 967.57 1613.23 Q967.57 1609.8 965.763 1607.34 Q963.982 1604.88 960.695 1604.88 Q958.437 1604.88 956.531 1606.26 Q954.624 1607.64 953.746 1610.1 Q953.896 1610.05 954.423 1610.05 Q955.703 1610.05 956.405 1610.85 Q957.133 1611.65 957.133 1612.73 Q957.133 1614.11 956.23 1614.79 Q955.351 1615.44 954.473 1615.44 Q954.122 1615.44 953.645 1615.37 Q953.194 1615.29 952.466 1614.59 Q951.739 1613.86 951.739 1612.58 Q951.739 1608.99 954.448 1606.13 Q957.183 1603.27 961.348 1603.27 Q966.065 1603.27 969.151 1606.08 Q972.262 1608.87 972.262 1613.23 Q972.262 1614.77 971.785 1616.17 Q971.333 1617.55 970.706 1618.63 Q970.104 1619.71 968.448 1621.44 Q966.792 1623.17 965.462 1624.4 Q964.133 1625.63 961.147 1628.24 L955.703 1633.53 L964.961 1633.53 Q969.477 1633.53 969.828 1633.13 Q970.33 1632.4 970.957 1628.56 L972.262 1628.56 L970.806 1637.5 L951.739 1637.5 Z" fill="#000000" fill-rule="evenodd" fill-opacity="1" /><path clip-path="url(#clip121)" d="M 0 0 M1276.32 1635.66 L1276.32 1633.68 Q1283.91 1633.68 1287.84 1629.64 Q1288.92 1629.64 1289.1 1629.89 Q1289.29 1630.13 1289.29 1631.28 L1289.29 1666.76 Q1289.29 1668.64 1290.21 1669.23 Q1291.14 1669.81 1295.19 1669.81 L1297.19 1669.81 L1297.19 1671.76 Q1294.97 1671.57 1286.94 1671.57 Q1278.91 1671.57 1276.72 1671.76 L1276.72 1669.81 L1278.73 1669.81 Q1282.71 1669.81 1283.67 1669.26 Q1284.63 1668.67 1284.63 1666.76 L1284.63 1633.99 Q1281.32 1635.66 1276.32 1635.66 Z" fill="#000000" fill-rule="evenodd" fill-opacity="1" /><path clip-path="url(#clip121)" d="M 0 0 M1299.66 1651.53 Q1299.66 1642.24 1302.01 1637.17 Q1305.28 1629.64 1313 1629.64 Q1314.64 1629.64 1316.34 1630.1 Q1318.07 1630.54 1320.23 1632.23 Q1322.42 1633.93 1323.75 1636.71 Q1326.28 1642.08 1326.28 1651.53 Q1326.28 1660.77 1323.93 1665.8 Q1320.51 1673.15 1312.94 1673.15 Q1310.1 1673.15 1307.2 1671.7 Q1304.33 1670.25 1302.5 1666.76 Q1299.66 1661.54 1299.66 1651.53 M1304.91 1650.76 Q1304.91 1660.3 1305.59 1664.1 Q1306.36 1668.21 1308.46 1670 Q1310.59 1671.76 1312.94 1671.76 Q1315.47 1671.76 1317.57 1669.88 Q1319.7 1667.96 1320.35 1663.85 Q1321.06 1659.81 1321.03 1650.76 Q1321.03 1641.96 1320.41 1638.44 Q1319.58 1634.33 1317.36 1632.7 Q1315.16 1631.03 1312.94 1631.03 Q1312.11 1631.03 1311.21 1631.28 Q1310.35 1631.52 1309.08 1632.23 Q1307.82 1632.94 1306.83 1634.7 Q1305.87 1636.46 1305.41 1639.12 Q1304.91 1642.55 1304.91 1650.76 Z" fill="#000000" fill-rule="evenodd" fill-opacity="1" /><path clip-path="url(#clip121)" d="M 0 0 M1326.28 1630.57 Q1326.28 1629.04 1327.16 1628.31 Q1328.04 1627.59 1329.17 1627.59 Q1330.35 1627.59 1331.17 1628.36 Q1332.03 1629.12 1332.03 1630.45 Q1332.03 1631.88 1331.02 1632.68 Q1330.04 1633.48 1328.64 1633.28 Q1329.87 1635.34 1332.13 1636.27 Q1334.41 1637.19 1336.52 1637.19 Q1338.73 1637.19 1340.51 1635.29 Q1342.31 1633.38 1342.31 1628.71 Q1342.31 1624.75 1340.76 1622.47 Q1339.23 1620.18 1336.19 1620.18 L1333.93 1620.18 Q1333.16 1620.18 1332.93 1620.11 Q1332.7 1620.03 1332.7 1619.61 Q1332.7 1619.11 1333.48 1619.01 Q1334.26 1619.01 1335.49 1618.85 Q1338.47 1618.75 1340.06 1616.17 Q1341.49 1613.76 1341.49 1610.32 Q1341.49 1607.19 1339.98 1605.88 Q1338.5 1604.55 1336.57 1604.55 Q1334.76 1604.55 1332.78 1605.31 Q1330.8 1606.06 1329.72 1607.74 Q1332.9 1607.74 1332.9 1610.32 Q1332.9 1611.45 1332.18 1612.21 Q1331.47 1612.93 1330.3 1612.93 Q1329.17 1612.93 1328.41 1612.23 Q1327.66 1611.5 1327.66 1610.27 Q1327.66 1607.34 1330.27 1605.31 Q1332.9 1603.27 1336.77 1603.27 Q1340.58 1603.27 1343.39 1605.28 Q1346.23 1607.29 1346.23 1610.37 Q1346.23 1613.41 1344.22 1615.89 Q1342.21 1618.38 1339.03 1619.41 Q1342.94 1620.18 1345.27 1622.84 Q1347.61 1625.48 1347.61 1628.71 Q1347.61 1632.73 1344.45 1635.69 Q1341.28 1638.63 1336.67 1638.63 Q1332.4 1638.63 1329.34 1636.32 Q1326.28 1634.01 1326.28 1630.57 Z" fill="#000000" fill-rule="evenodd" fill-opacity="1" /><path clip-path="url(#clip121)" d="M 0 0 M1650.54 1635.66 L1650.54 1633.68 Q1658.13 1633.68 1662.05 1629.64 Q1663.13 1629.64 1663.32 1629.89 Q1663.5 1630.13 1663.5 1631.28 L1663.5 1666.76 Q1663.5 1668.64 1664.43 1669.23 Q1665.36 1669.81 1669.4 1669.81 L1671.41 1669.81 L1671.41 1671.76 Q1669.19 1671.57 1661.16 1671.57 Q1653.13 1671.57 1650.94 1671.76 L1650.94 1669.81 L1652.94 1669.81 Q1656.93 1669.81 1657.88 1669.26 Q1658.84 1668.67 1658.84 1666.76 L1658.84 1633.99 Q1655.54 1635.66 1650.54 1635.66 Z" fill="#000000" fill-rule="evenodd" fill-opacity="1" /><path clip-path="url(#clip121)" d="M 0 0 M1673.88 1651.53 Q1673.88 1642.24 1676.23 1637.17 Q1679.5 1629.64 1687.22 1629.64 Q1688.86 1629.64 1690.55 1630.1 Q1692.28 1630.54 1694.45 1632.23 Q1696.64 1633.93 1697.97 1636.71 Q1700.5 1642.08 1700.5 1651.53 Q1700.5 1660.77 1698.15 1665.8 Q1694.72 1673.15 1687.16 1673.15 Q1684.32 1673.15 1681.41 1671.7 Q1678.54 1670.25 1676.72 1666.76 Q1673.88 1661.54 1673.88 1651.53 M1679.13 1650.76 Q1679.13 1660.3 1679.81 1664.1 Q1680.58 1668.21 1682.68 1670 Q1684.81 1671.76 1687.16 1671.76 Q1689.69 1671.76 1691.79 1669.88 Q1693.92 1667.96 1694.57 1663.85 Q1695.28 1659.81 1695.25 1650.76 Q1695.25 1641.96 1694.63 1638.44 Q1693.8 1634.33 1691.57 1632.7 Q1689.38 1631.03 1687.16 1631.03 Q1686.32 1631.03 1685.43 1631.28 Q1684.56 1631.52 1683.3 1632.23 Q1682.03 1632.94 1681.04 1634.7 Q1680.09 1636.46 1679.62 1639.12 Q1679.13 1642.55 1679.13 1650.76 Z" fill="#000000" fill-rule="evenodd" fill-opacity="1" /><path clip-path="url(#clip121)" d="M 0 0 M1700.5 1629.02 L1700.5 1627.44 L1716.28 1603.32 Q1716.68 1602.7 1717.31 1602.72 Q1717.88 1602.72 1718.01 1602.95 Q1718.14 1603.17 1718.14 1604.05 L1718.14 1627.44 L1723.28 1627.44 L1723.28 1629.02 L1718.14 1629.02 L1718.14 1633.48 Q1718.14 1634.96 1718.74 1635.44 Q1719.36 1635.92 1722.02 1635.92 L1723.1 1635.92 L1723.1 1637.5 Q1721 1637.35 1716.13 1637.35 Q1711.29 1637.35 1709.18 1637.5 L1709.18 1635.92 L1710.26 1635.92 Q1712.92 1635.92 1713.54 1635.46 Q1714.17 1634.99 1714.17 1633.48 L1714.17 1629.02 L1700.5 1629.02 M1701.95 1627.44 L1714.47 1627.44 L1714.47 1608.27 L1701.95 1627.44 Z" fill="#000000" fill-rule="evenodd" fill-opacity="1" /><path clip-path="url(#clip121)" d="M 0 0 M2026.61 1635.66 L2026.61 1633.68 Q2034.2 1633.68 2038.13 1629.64 Q2039.21 1629.64 2039.39 1629.89 Q2039.58 1630.13 2039.58 1631.28 L2039.58 1666.76 Q2039.58 1668.64 2040.5 1669.23 Q2041.43 1669.81 2045.48 1669.81 L2047.48 1669.81 L2047.48 1671.76 Q2045.26 1671.57 2037.23 1671.57 Q2029.2 1671.57 2027.01 1671.76 L2027.01 1669.81 L2029.02 1669.81 Q2033 1669.81 2033.96 1669.26 Q2034.91 1668.67 2034.91 1666.76 L2034.91 1633.99 Q2031.61 1635.66 2026.61 1635.66 Z" fill="#000000" fill-rule="evenodd" fill-opacity="1" /><path clip-path="url(#clip121)" d="M 0 0 M2049.95 1651.53 Q2049.95 1642.24 2052.3 1637.17 Q2055.57 1629.64 2063.29 1629.64 Q2064.93 1629.64 2066.63 1630.1 Q2068.36 1630.54 2070.52 1632.23 Q2072.71 1633.93 2074.04 1636.71 Q2076.57 1642.08 2076.57 1651.53 Q2076.57 1660.77 2074.22 1665.8 Q2070.8 1673.15 2063.23 1673.15 Q2060.39 1673.15 2057.49 1671.7 Q2054.62 1670.25 2052.79 1666.76 Q2049.95 1661.54 2049.95 1651.53 M2055.2 1650.76 Q2055.2 1660.3 2055.88 1664.1 Q2056.65 1668.21 2058.75 1670 Q2060.88 1671.76 2063.23 1671.76 Q2065.76 1671.76 2067.86 1669.88 Q2069.99 1667.96 2070.64 1663.85 Q2071.35 1659.81 2071.32 1650.76 Q2071.32 1641.96 2070.7 1638.44 Q2069.87 1634.33 2067.65 1632.7 Q2065.45 1631.03 2063.23 1631.03 Q2062.4 1631.03 2061.5 1631.28 Q2060.64 1631.52 2059.37 1632.23 Q2058.11 1632.94 2057.12 1634.7 Q2056.16 1636.46 2055.7 1639.12 Q2055.2 1642.55 2055.2 1650.76 Z" fill="#000000" fill-rule="evenodd" fill-opacity="1" /><path clip-path="url(#clip121)" d="M 0 0 M2076.57 1629.22 Q2076.57 1627.69 2077.4 1627.11 Q2078.23 1626.51 2079.1 1626.51 Q2080.28 1626.51 2080.96 1627.26 Q2081.66 1627.99 2081.66 1629.02 Q2081.66 1630.04 2080.96 1630.8 Q2080.28 1631.52 2079.1 1631.52 Q2078.53 1631.52 2078.23 1631.42 Q2078.9 1633.78 2080.96 1635.49 Q2083.04 1637.19 2085.78 1637.19 Q2089.22 1637.19 2091.27 1633.86 Q2092.5 1631.7 2092.5 1626.81 Q2092.5 1622.49 2091.57 1620.33 Q2090.14 1617.05 2087.21 1617.05 Q2083.04 1617.05 2080.59 1620.64 Q2080.28 1621.09 2079.93 1621.11 Q2079.43 1621.11 2079.31 1620.84 Q2079.21 1620.54 2079.21 1619.76 L2079.21 1604.55 Q2079.21 1603.32 2079.71 1603.32 Q2079.91 1603.32 2080.33 1603.47 Q2083.57 1604.9 2087.16 1604.93 Q2090.85 1604.93 2094.16 1603.42 Q2094.41 1603.27 2094.56 1603.27 Q2095.06 1603.27 2095.09 1603.85 Q2095.09 1604.05 2094.66 1604.65 Q2094.26 1605.23 2093.38 1606.01 Q2092.5 1606.76 2091.37 1607.49 Q2090.24 1608.22 2088.59 1608.72 Q2086.96 1609.2 2085.15 1609.2 Q2082.99 1609.2 2080.79 1608.52 L2080.79 1618.53 Q2083.45 1615.92 2087.31 1615.92 Q2091.42 1615.92 2094.26 1619.23 Q2097.09 1622.54 2097.09 1627.16 Q2097.09 1632 2093.73 1635.31 Q2090.4 1638.63 2085.88 1638.63 Q2081.76 1638.63 2079.16 1635.69 Q2076.57 1632.75 2076.57 1629.22 Z" fill="#000000" fill-rule="evenodd" fill-opacity="1" /><polyline clip-path="url(#clip121)" style="stroke:#000000; stroke-width:3.6; stroke-opacity:1; fill:none" points="
  300,1575 300,1575 300,1557 300,1575 366.024,1575 366.024,1557 366.024,1575 412.869,1575 412.869,1557 412.869,1575 
  449.205,1575 449.205,1557 449.205,1575 478.894,1575 478.894,1557 478.894,1575 503.995,1575 503.995,1557 503.995,1575 525.739,1575 
  525.739,1557 525.739,1575 544.918,1575 544.918,1557 544.918,1575 562.075,1575 562.075,1557 562.075,1575 562.075,1539 
  562.075,1575 674.944,1575 674.944,1557 674.944,1575 740.969,1575 740.969,1557 740.969,1575 787.814,1575 787.814,1557 787.814,1575 
  824.149,1575 824.149,1557 824.149,1575 853.838,1575 853.838,1557 853.838,1575 878.939,1575 878.939,1557 878.939,1575 900.683,1575 
  900.683,1557 900.683,1575 919.862,1575 919.862,1557 919.862,1575 937.019,1575 937.019,1557 937.019,1575 937.019,1539 
  937.019,1575 1049.89,1575 1049.89,1557 1049.89,1575 1115.91,1575 1115.91,1557 1115.91,1575 1162.76,1575 1162.76,1557 1162.76,1575 
  1199.09,1575 1199.09,1557 1199.09,1575 1228.78,1575 1228.78,1557 1228.78,1575 1253.88,1575 1253.88,1557 1253.88,1575 1275.63,1575 
  1275.63,1557 1275.63,1575 1294.81,1575 1294.81,1557 1294.81,1575 1311.96,1575 1311.96,1557 1311.96,1575 1311.96,1539 
  1311.96,1575 1424.83,1575 1424.83,1557 1424.83,1575 1490.86,1575 1490.86,1557 1490.86,1575 1537.7,1575 1537.7,1557 1537.7,1575 
  1574.04,1575 1574.04,1557 1574.04,1575 1603.73,1575 1603.73,1557 1603.73,1575 1628.83,1575 1628.83,1557 1628.83,1575 1650.57,1575 
  1650.57,1557 1650.57,1575 1669.75,1575 1669.75,1557 1669.75,1575 1686.91,1575 1686.91,1557 1686.91,1575 1686.91,1539 
  1686.91,1575 1799.78,1575 1799.78,1557 1799.78,1575 1865.8,1575 1865.8,1557 1865.8,1575 1912.65,1575 1912.65,1557 1912.65,1575 
  1948.98,1575 1948.98,1557 1948.98,1575 1978.67,1575 1978.67,1557 1978.67,1575 2003.77,1575 2003.77,1557 2003.77,1575 2025.52,1575 
  2025.52,1557 2025.52,1575 2044.69,1575 2044.69,1557 2044.69,1575 2061.85,1575 2061.85,1557 2061.85,1575 2061.85,1539 
  2061.85,1575 2174.72,1575 2174.72,1557 2174.72,1575 2220,1575 
  "/>
<polyline clip-path="url(#clip121)" style="stroke:#000000; stroke-width:3.6; stroke-opacity:1; fill:none" points="
  2220,1575 2220,1575 2184,1575 2220,1575 2220,1444.09 2202,1444.09 2220,1444.09 2220,1313.18 2202,1313.18 2220,1313.18 
  2220,1182.27 2202,1182.27 2220,1182.27 2220,1051.36 2202,1051.36 2220,1051.36 2220,920.455 2184,920.455 2220,920.455 2220,789.545 
  2202,789.545 2220,789.545 2220,658.636 2202,658.636 2220,658.636 2220,527.727 2202,527.727 2220,527.727 2220,396.818 2202,396.818 
  2220,396.818 2220,265.909 2184,265.909 2220,265.909 2220,135 2202,135 2220,135 
  "/>
<polyline clip-path="url(#clip121)" style="stroke:#000000; stroke-width:3.6; stroke-opacity:1; fill:none" points="
  300,135 300,135 300,153 300,135 366.024,135 366.024,153 366.024,135 412.869,135 412.869,153 412.869,135 
  449.205,135 449.205,153 449.205,135 478.894,135 478.894,153 478.894,135 503.995,135 503.995,153 503.995,135 525.739,135 
  525.739,153 525.739,135 544.918,135 544.918,153 544.918,135 562.075,135 562.075,153 562.075,135 562.075,171 
  562.075,135 674.944,135 674.944,153 674.944,135 740.969,135 740.969,153 740.969,135 787.814,135 787.814,153 787.814,135 
  824.149,135 824.149,153 824.149,135 853.838,135 853.838,153 853.838,135 878.939,135 878.939,153 878.939,135 900.683,135 
  900.683,153 900.683,135 919.862,135 919.862,153 919.862,135 937.019,135 937.019,153 937.019,135 937.019,171 
  937.019,135 1049.89,135 1049.89,153 1049.89,135 1115.91,135 1115.91,153 1115.91,135 1162.76,135 1162.76,153 1162.76,135 
  1199.09,135 1199.09,153 1199.09,135 1228.78,135 1228.78,153 1228.78,135 1253.88,135 1253.88,153 1253.88,135 1275.63,135 
  1275.63,153 1275.63,135 1294.81,135 1294.81,153 1294.81,135 1311.96,135 1311.96,153 1311.96,135 1311.96,171 
  1311.96,135 1424.83,135 1424.83,153 1424.83,135 1490.86,135 1490.86,153 1490.86,135 1537.7,135 1537.7,153 1537.7,135 
  1574.04,135 1574.04,153 1574.04,135 1603.73,135 1603.73,153 1603.73,135 1628.83,135 1628.83,153 1628.83,135 1650.57,135 
  1650.57,153 1650.57,135 1669.75,135 1669.75,153 1669.75,135 1686.91,135 1686.91,153 1686.91,135 1686.91,171 
  1686.91,135 1799.78,135 1799.78,153 1799.78,135 1865.8,135 1865.8,153 1865.8,135 1912.65,135 1912.65,153 1912.65,135 
  1948.98,135 1948.98,153 1948.98,135 1978.67,135 1978.67,153 1978.67,135 2003.77,135 2003.77,153 2003.77,135 2025.52,135 
  2025.52,153 2025.52,135 2044.69,135 2044.69,153 2044.69,135 2061.85,135 2061.85,153 2061.85,135 2061.85,171 
  2061.85,135 2174.72,135 2174.72,153 2174.72,135 2220,135 
  "/>
<path clip-path="url(#clip120)" d="
M300 1575 L447.692 1575 L447.692 1567.15 L300 1567.15  Z
  " fill="#00528a" fill-rule="evenodd" fill-opacity="1"/>
<polyline clip-path="url(#clip120)" style="stroke:#000000; stroke-width:3.6; stroke-opacity:1; fill:none" points="
  300,1575 447.692,1575 447.692,1567.15 300,1567.15 300,1575
  "/>
<path clip-path="url(#clip120)" d="
M447.692 1575 L595.385 1575 L595.385 1535.73 L447.692 1535.73  Z
  " fill="#00528a" fill-rule="evenodd" fill-opacity="1"/>
<polyline clip-path="url(#clip120)" style="stroke:#000000; stroke-width:3.6; stroke-opacity:1; fill:none" points="
  447.692,1575 595.385,1575 595.385,1535.73 447.692,1535.73 447.692,1575
  "/>
<path clip-path="url(#clip120)" d="
M595.385 1575 L743.077 1575 L743.077 1463.73 L595.385 1463.73  Z
  " fill="#00528a" fill-rule="evenodd" fill-opacity="1"/>
<polyline clip-path="url(#clip120)" style="stroke:#000000; stroke-width:3.6; stroke-opacity:1; fill:none" points="
  595.385,1575 743.077,1575 743.077,1463.73 595.385,1463.73 595.385,1575
  "/>
<path clip-path="url(#clip120)" d="
M743.077 1575 L890.769 1575 L890.769 1220.24 L743.077 1220.24  Z
  " fill="#00528a" fill-rule="evenodd" fill-opacity="1"/>
<polyline clip-path="url(#clip120)" style="stroke:#000000; stroke-width:3.6; stroke-opacity:1; fill:none" points="
  743.077,1575 890.769,1575 890.769,1220.24 743.077,1220.24 743.077,1575
  "/>
<path clip-path="url(#clip120)" d="
M890.769 1575 L1038.46 1575 L1038.46 725.4 L890.769 725.4  Z
  " fill="#00528a" fill-rule="evenodd" fill-opacity="1"/>
<polyline clip-path="url(#clip120)" style="stroke:#000000; stroke-width:3.6; stroke-opacity:1; fill:none" points="
  890.769,1575 1038.46,1575 1038.46,725.4 890.769,725.4 890.769,1575
  "/>
<path clip-path="url(#clip120)" d="
M1038.46 1575 L1186.15 1575 L1186.15 207 L1038.46 207  Z
  " fill="#00528a" fill-rule="evenodd" fill-opacity="1"/>
<polyline clip-path="url(#clip120)" style="stroke:#000000; stroke-width:3.6; stroke-opacity:1; fill:none" points="
  1038.46,1575 1186.15,1575 1186.15,207 1038.46,207 1038.46,1575
  "/>
<path clip-path="url(#clip120)" d="
M1186.15 1575 L1333.85 1575 L1333.85 203.073 L1186.15 203.073  Z
  " fill="#00528a" fill-rule="evenodd" fill-opacity="1"/>
<polyline clip-path="url(#clip120)" style="stroke:#000000; stroke-width:3.6; stroke-opacity:1; fill:none" points="
  1186.15,1575 1333.85,1575 1333.85,203.073 1186.15,203.073 1186.15,1575
  "/>
<path clip-path="url(#clip120)" d="
M1333.85 1575 L1481.54 1575 L1481.54 578.782 L1333.85 578.782  Z
  " fill="#00528a" fill-rule="evenodd" fill-opacity="1"/>
<polyline clip-path="url(#clip120)" style="stroke:#000000; stroke-width:3.6; stroke-opacity:1; fill:none" points="
  1333.85,1575 1481.54,1575 1481.54,578.782 1333.85,578.782 1333.85,1575
  "/>
<path clip-path="url(#clip120)" d="
M1481.54 1575 L1629.23 1575 L1629.23 1088.02 L1481.54 1088.02  Z
  " fill="#00528a" fill-rule="evenodd" fill-opacity="1"/>
<polyline clip-path="url(#clip120)" style="stroke:#000000; stroke-width:3.6; stroke-opacity:1; fill:none" points="
  1481.54,1575 1629.23,1575 1629.23,1088.02 1481.54,1088.02 1481.54,1575
  "/>
<path clip-path="url(#clip120)" d="
M1629.23 1575 L1776.92 1575 L1776.92 1428.38 L1629.23 1428.38  Z
  " fill="#00528a" fill-rule="evenodd" fill-opacity="1"/>
<polyline clip-path="url(#clip120)" style="stroke:#000000; stroke-width:3.6; stroke-opacity:1; fill:none" points="
  1629.23,1575 1776.92,1575 1776.92,1428.38 1629.23,1428.38 1629.23,1575
  "/>
<path clip-path="url(#clip120)" d="
M1776.92 1575 L1924.62 1575 L1924.62 1540.96 L1776.92 1540.96  Z
  " fill="#00528a" fill-rule="evenodd" fill-opacity="1"/>
<polyline clip-path="url(#clip120)" style="stroke:#000000; stroke-width:3.6; stroke-opacity:1; fill:none" points="
  1776.92,1575 1924.62,1575 1924.62,1540.96 1776.92,1540.96 1776.92,1575
  "/>
<path clip-path="url(#clip120)" d="
M1924.62 1575 L2072.31 1575 L2072.31 1567.15 L1924.62 1567.15  Z
  " fill="#00528a" fill-rule="evenodd" fill-opacity="1"/>
<polyline clip-path="url(#clip120)" style="stroke:#000000; stroke-width:3.6; stroke-opacity:1; fill:none" points="
  1924.62,1575 2072.31,1575 2072.31,1567.15 1924.62,1567.15 1924.62,1575
  "/>
<path clip-path="url(#clip120)" d="
M2072.31 1575 L2220 1575 L2220 1569.76 L2072.31 1569.76  Z
  " fill="#00528a" fill-rule="evenodd" fill-opacity="1"/>
<polyline clip-path="url(#clip120)" style="stroke:#000000; stroke-width:3.6; stroke-opacity:1; fill:none" points="
  2072.31,1575 2220,1575 2220,1569.76 2072.31,1569.76 2072.31,1575
  "/>
<path clip-path="url(#clip121)" d="M 0 0 M922.444 1765.44 L922.444 1763.49 L923.957 1763.49 Q927.385 1763.49 928.157 1762.94 Q928.96 1762.35 928.96 1760.5 L928.96 1727.18 Q928.96 1725.36 928.157 1724.8 Q927.354 1724.22 923.957 1724.22 L922.444 1724.22 L922.444 1722.24 Q924.667 1722.43 932.047 1722.43 Q940.385 1722.43 942.67 1722.24 L942.67 1724.22 L940.57 1724.22 Q937.667 1724.22 936.34 1724.59 Q935.012 1724.96 934.796 1725.48 Q934.58 1725.98 934.58 1727.24 L934.58 1760.96 Q934.58 1762.6 935.043 1763.06 Q935.537 1763.49 937.667 1763.49 L942.855 1763.49 Q946.067 1763.49 948.383 1762.54 Q950.698 1761.58 951.934 1760.38 Q953.169 1759.17 953.972 1756.92 Q954.805 1754.63 955.052 1753.18 Q955.33 1751.73 955.577 1749.14 L957.152 1749.14 L955.392 1765.44 L922.444 1765.44 Z" fill="#000000" fill-rule="evenodd" fill-opacity="1" /><path clip-path="url(#clip121)" d="M 0 0 M959.252 1765.44 L959.252 1763.49 Q962.618 1763.49 963.39 1763.09 Q964.162 1762.66 964.162 1760.62 L964.162 1743.61 Q964.162 1741.26 963.359 1740.71 Q962.587 1740.15 959.499 1740.15 L959.499 1738.17 L968.331 1737.49 L968.331 1760.68 Q968.331 1762.57 969.01 1763.03 Q969.689 1763.49 972.777 1763.49 L972.777 1765.44 Q966.323 1765.25 966.2 1765.25 Q965.335 1765.25 959.252 1765.44 M961.908 1726.47 Q961.908 1725.2 962.865 1724.19 Q963.853 1723.14 965.243 1723.14 Q966.632 1723.14 967.62 1724.09 Q968.608 1725.02 968.608 1726.5 Q968.608 1727.95 967.62 1728.91 Q966.632 1729.84 965.243 1729.84 Q963.791 1729.84 962.834 1728.82 Q961.908 1727.8 961.908 1726.47 Z" fill="#000000" fill-rule="evenodd" fill-opacity="1" /><path clip-path="url(#clip121)" d="M 0 0 M974.815 1765.44 L974.815 1763.49 Q978.181 1763.49 978.953 1763.09 Q979.725 1762.66 979.725 1760.62 L979.725 1743.67 Q979.725 1741.32 978.891 1740.74 Q978.088 1740.15 974.815 1740.15 L974.815 1738.17 L983.708 1737.49 L983.708 1744.13 Q986.673 1737.49 993.065 1737.49 Q997.82 1737.49 999.704 1739.84 Q1001.09 1741.42 1001.37 1743.18 Q1001.68 1744.94 1001.68 1749.51 L1001.68 1761.58 Q1001.74 1762.91 1002.76 1763.22 Q1003.78 1763.49 1006.62 1763.49 L1006.62 1765.44 Q1000.17 1765.25 999.519 1765.25 Q999.024 1765.25 992.385 1765.44 L992.385 1763.49 Q995.751 1763.49 996.523 1763.09 Q997.326 1762.66 997.326 1760.62 L997.326 1745.89 Q997.326 1742.68 996.338 1740.8 Q995.35 1738.88 992.632 1738.88 Q989.359 1738.88 986.735 1741.63 Q984.11 1744.38 984.11 1749.01 L984.11 1760.62 Q984.11 1762.66 984.882 1763.09 Q985.685 1763.49 989.02 1763.49 L989.02 1765.44 Q982.566 1765.25 981.948 1765.25 Q981.454 1765.25 974.815 1765.44 Z" fill="#000000" fill-rule="evenodd" fill-opacity="1" /><path clip-path="url(#clip121)" d="M 0 0 M1008.38 1751.51 Q1008.38 1745.55 1012.21 1741.32 Q1016.04 1737.09 1021.54 1737.09 Q1027.09 1737.09 1029.97 1740.71 Q1032.87 1744.32 1032.87 1749.51 Q1032.87 1750.46 1032.62 1750.65 Q1032.37 1750.83 1031.29 1750.83 L1013.63 1750.83 Q1013.63 1757.29 1015.54 1760.31 Q1018.2 1764.54 1022.68 1764.54 Q1023.3 1764.54 1024.04 1764.42 Q1024.78 1764.3 1026.29 1763.77 Q1027.8 1763.22 1029.13 1761.77 Q1030.46 1760.31 1031.23 1758.03 Q1031.42 1757.13 1032.03 1757.16 Q1032.87 1757.16 1032.87 1757.91 Q1032.87 1758.46 1032.25 1759.73 Q1031.66 1760.96 1030.52 1762.44 Q1029.38 1763.93 1027.16 1765.04 Q1024.96 1766.15 1022.31 1766.15 Q1016.75 1766.15 1012.55 1761.95 Q1008.38 1757.72 1008.38 1751.51 M1013.69 1749.51 L1028.7 1749.51 Q1028.7 1748.18 1028.45 1746.7 Q1028.24 1745.21 1027.56 1743.18 Q1026.91 1741.11 1025.36 1739.81 Q1023.82 1738.51 1021.54 1738.51 Q1020.52 1738.51 1019.4 1738.95 Q1018.32 1739.38 1017 1740.43 Q1015.67 1741.48 1014.74 1743.86 Q1013.82 1746.23 1013.69 1749.51 Z" fill="#000000" fill-rule="evenodd" fill-opacity="1" /><path clip-path="url(#clip121)" d="M 0 0 M1034.97 1764.61 L1034.97 1756.27 Q1034.97 1755.56 1035 1755.31 Q1035.03 1755.06 1035.21 1754.88 Q1035.4 1754.69 1035.77 1754.69 Q1036.2 1754.69 1036.36 1754.88 Q1036.54 1755.06 1036.67 1755.77 Q1037.62 1760.13 1039.66 1762.44 Q1041.73 1764.73 1045.47 1764.73 Q1049.02 1764.73 1050.81 1763.15 Q1052.6 1761.58 1052.6 1758.99 Q1052.6 1754.35 1046.02 1753.18 Q1042.22 1752.41 1040.65 1751.91 Q1039.07 1751.39 1037.69 1750.25 Q1034.97 1748.02 1034.97 1744.87 Q1034.97 1741.72 1037.35 1739.41 Q1039.75 1737.09 1045.07 1737.09 Q1048.62 1737.09 1051.03 1738.88 Q1051.74 1738.33 1052.11 1737.86 Q1052.94 1737.09 1053.37 1737.09 Q1053.87 1737.09 1053.96 1737.43 Q1054.05 1737.74 1054.05 1738.64 L1054.05 1745 Q1054.05 1745.71 1054.02 1745.96 Q1053.99 1746.2 1053.8 1746.39 Q1053.62 1746.54 1053.22 1746.54 Q1052.51 1746.54 1052.48 1745.96 Q1051.98 1738.3 1045.07 1738.3 Q1041.33 1738.3 1039.66 1739.75 Q1037.99 1741.17 1037.99 1743.11 Q1037.99 1744.2 1038.49 1745.03 Q1039.01 1745.83 1039.66 1746.33 Q1040.34 1746.79 1041.58 1747.25 Q1042.81 1747.68 1043.55 1747.84 Q1044.32 1747.99 1045.78 1748.3 Q1050.84 1749.26 1052.97 1751.33 Q1055.63 1753.98 1055.63 1757.35 Q1055.63 1761.09 1053.09 1763.62 Q1050.56 1766.15 1045.47 1766.15 Q1041.36 1766.15 1038.49 1763.4 Q1038.12 1763.77 1037.84 1764.11 Q1037.56 1764.42 1037.44 1764.54 Q1037.35 1764.67 1037.31 1764.76 Q1037.28 1764.82 1037.22 1764.88 Q1035.96 1766.15 1035.65 1766.15 Q1035.15 1766.15 1035.06 1765.81 Q1034.97 1765.5 1034.97 1764.61 Z" fill="#000000" fill-rule="evenodd" fill-opacity="1" /><path clip-path="url(#clip121)" d="M 0 0 M1082.58 1762.04 Q1078.41 1757.91 1078.41 1751.91 Q1078.41 1745.89 1082.49 1741.51 Q1086.6 1737.09 1092.46 1737.09 Q1098.21 1737.09 1102.32 1741.48 Q1106.45 1745.83 1106.45 1751.91 Q1106.45 1757.87 1102.28 1762.01 Q1098.15 1766.15 1092.4 1766.15 Q1086.78 1766.15 1082.58 1762.04 M1083.66 1751.39 Q1083.66 1757.53 1085.27 1760.31 Q1087.74 1764.54 1092.46 1764.54 Q1094.81 1764.54 1096.76 1763.28 Q1098.73 1762.01 1099.81 1759.88 Q1101.2 1757.1 1101.2 1751.39 Q1101.2 1745.31 1099.54 1742.62 Q1097.07 1738.51 1092.4 1738.51 Q1090.37 1738.51 1088.36 1739.59 Q1086.38 1740.64 1085.18 1742.74 Q1083.66 1745.52 1083.66 1751.39 Z" fill="#000000" fill-rule="evenodd" fill-opacity="1" /><path clip-path="url(#clip121)" d="M 0 0 M1108.55 1740.15 L1108.55 1738.17 L1113.52 1738.17 L1113.52 1730.92 Q1113.52 1726.22 1116.55 1723.54 Q1119.61 1720.85 1123.34 1720.85 Q1125.81 1720.85 1127.42 1722.18 Q1129.03 1723.51 1129.03 1725.3 Q1129.03 1726.5 1128.28 1727.3 Q1127.57 1728.08 1126.25 1728.08 Q1124.98 1728.08 1124.24 1727.27 Q1123.53 1726.47 1123.53 1725.36 Q1123.53 1723.32 1125.41 1722.7 Q1124.46 1722.27 1123.34 1722.24 Q1121.06 1722.24 1119.27 1724.59 Q1117.51 1726.93 1117.51 1730.86 L1117.51 1738.17 L1124.92 1738.17 L1124.92 1740.15 L1117.72 1740.15 L1117.72 1760.5 Q1117.72 1762.32 1118.47 1762.91 Q1119.24 1763.49 1122.51 1763.49 L1123.84 1763.49 L1123.84 1765.44 Q1121.31 1765.25 1115.81 1765.25 Q1115.04 1765.25 1113.83 1765.29 Q1112.66 1765.32 1111.05 1765.38 Q1109.48 1765.44 1108.61 1765.44 L1108.61 1763.49 Q1111.98 1763.49 1112.75 1763.09 Q1113.52 1762.66 1113.52 1760.62 L1113.52 1740.15 L1108.55 1740.15 Z" fill="#000000" fill-rule="evenodd" fill-opacity="1" /><path clip-path="url(#clip121)" d="M 0 0 M1152.65 1758.37 Q1152.65 1756.49 1153.76 1755.59 Q1154.87 1754.69 1156.2 1754.69 Q1157.59 1754.69 1158.64 1755.65 Q1159.72 1756.58 1159.72 1758.25 Q1159.72 1761.77 1155.74 1761.77 Q1155.71 1761.77 1155.67 1761.77 Q1157.96 1765.44 1162.65 1765.44 Q1165.31 1765.44 1167.22 1762.85 Q1169.14 1760.25 1169.14 1756.08 L1169.14 1727.24 Q1169.14 1725.91 1168.89 1725.42 Q1168.64 1724.9 1167.32 1724.56 Q1165.99 1724.22 1162.96 1724.22 L1160.68 1724.22 L1160.68 1722.24 Q1163.09 1722.43 1171.3 1722.43 Q1175.28 1722.43 1179.45 1722.24 L1179.45 1724.22 Q1176.24 1724.22 1175.41 1724.59 Q1174.6 1724.96 1174.6 1726.81 L1174.6 1754.88 Q1174.6 1757.16 1174.54 1757.66 Q1173.99 1761.39 1170.71 1764.11 Q1167.44 1766.83 1162.78 1766.83 Q1158.55 1766.83 1155.58 1764.39 Q1152.65 1761.92 1152.65 1758.37 Z" fill="#000000" fill-rule="evenodd" fill-opacity="1" /><path clip-path="url(#clip121)" d="M 0 0 M1181.49 1740.15 L1181.49 1738.17 L1190.78 1737.49 L1190.78 1758.49 Q1190.78 1760.01 1190.91 1760.9 Q1191.03 1761.77 1191.53 1762.78 Q1192.05 1763.8 1193.22 1764.27 Q1194.43 1764.73 1196.34 1764.73 Q1199.77 1764.73 1201.87 1761.92 Q1204 1759.11 1204 1754.94 L1204 1743.67 Q1204 1741.32 1203.17 1740.74 Q1202.33 1740.15 1199.06 1740.15 L1199.06 1738.17 L1208.35 1737.49 L1208.35 1759.94 Q1208.35 1762.29 1209.16 1762.91 Q1209.99 1763.49 1213.3 1763.49 L1213.3 1765.44 L1204.19 1766.15 L1204.19 1760.44 Q1201.53 1766.12 1196.03 1766.15 Q1193.25 1766.15 1191.34 1765.44 Q1189.46 1764.73 1188.5 1763.87 Q1187.54 1762.97 1187.02 1761.27 Q1186.52 1759.57 1186.46 1758.52 Q1186.4 1757.47 1186.4 1755.44 L1186.4 1745.96 Q1186.4 1741.66 1185.78 1740.92 Q1185.16 1740.15 1181.49 1740.15 Z" fill="#000000" fill-rule="evenodd" fill-opacity="1" /><path clip-path="url(#clip121)" d="M 0 0 M1215.39 1765.44 L1215.39 1763.49 Q1218.76 1763.49 1219.53 1763.09 Q1220.3 1762.66 1220.3 1760.62 L1220.3 1727.74 Q1220.3 1725.39 1219.47 1724.8 Q1218.67 1724.22 1215.39 1724.22 L1215.39 1722.24 L1224.47 1721.56 L1224.47 1760.62 Q1224.47 1762.66 1225.28 1763.09 Q1226.08 1763.49 1229.41 1763.49 L1229.41 1765.44 Q1228.64 1765.44 1227.04 1765.38 Q1225.43 1765.32 1224.26 1765.29 Q1223.08 1765.25 1222.4 1765.25 Q1221.66 1765.25 1215.39 1765.44 Z" fill="#000000" fill-rule="evenodd" fill-opacity="1" /><path clip-path="url(#clip121)" d="M 0 0 M1231.51 1765.44 L1231.51 1763.49 Q1234.88 1763.49 1235.65 1763.09 Q1236.42 1762.66 1236.42 1760.62 L1236.42 1743.61 Q1236.42 1741.26 1235.62 1740.71 Q1234.85 1740.15 1231.76 1740.15 L1231.76 1738.17 L1240.59 1737.49 L1240.59 1760.68 Q1240.59 1762.57 1241.27 1763.03 Q1241.95 1763.49 1245.04 1763.49 L1245.04 1765.44 Q1238.59 1765.25 1238.46 1765.25 Q1237.6 1765.25 1231.51 1765.44 M1234.17 1726.47 Q1234.17 1725.2 1235.13 1724.19 Q1236.11 1723.14 1237.5 1723.14 Q1238.89 1723.14 1239.88 1724.09 Q1240.87 1725.02 1240.87 1726.5 Q1240.87 1727.95 1239.88 1728.91 Q1238.89 1729.84 1237.5 1729.84 Q1236.05 1729.84 1235.1 1728.82 Q1234.17 1727.8 1234.17 1726.47 Z" fill="#000000" fill-rule="evenodd" fill-opacity="1" /><path clip-path="url(#clip121)" d="M 0 0 M1247.69 1759.42 Q1247.69 1754.05 1254.02 1751.2 Q1257.82 1749.38 1265.67 1748.92 L1265.67 1746.6 Q1265.67 1742.68 1263.6 1740.61 Q1261.56 1738.51 1258.97 1738.51 Q1254.33 1738.51 1252.11 1741.42 Q1253.99 1741.48 1254.67 1742.43 Q1255.35 1743.36 1255.35 1744.32 Q1255.35 1745.58 1254.55 1746.42 Q1253.78 1747.22 1252.45 1747.22 Q1251.18 1747.22 1250.35 1746.45 Q1249.52 1745.65 1249.52 1744.26 Q1249.52 1741.17 1252.3 1739.13 Q1255.11 1737.09 1259.09 1737.09 Q1264.28 1737.09 1267.74 1740.58 Q1268.82 1741.66 1269.34 1743.05 Q1269.9 1744.44 1269.96 1745.37 Q1270.02 1746.26 1270.02 1748.06 L1270.02 1760.68 Q1270.02 1761.06 1270.14 1761.67 Q1270.27 1762.29 1270.82 1763.09 Q1271.41 1763.87 1272.37 1763.87 Q1274.65 1763.87 1274.62 1759.82 L1274.62 1756.27 L1276.23 1756.27 L1276.23 1759.82 Q1276.23 1763.19 1274.44 1764.51 Q1272.68 1765.81 1271.04 1765.81 Q1268.94 1765.81 1267.61 1764.27 Q1266.28 1762.72 1266.1 1760.62 Q1265.14 1763.03 1262.95 1764.61 Q1260.79 1766.15 1257.82 1766.15 Q1255.54 1766.15 1253.38 1765.56 Q1251.25 1765.01 1249.45 1763.43 Q1247.69 1761.83 1247.69 1759.42 M1252.57 1759.36 Q1252.57 1761.7 1254.24 1763.22 Q1255.91 1764.73 1258.26 1764.73 Q1260.91 1764.73 1263.29 1762.69 Q1265.67 1760.62 1265.67 1756.58 L1265.67 1750.25 Q1258.66 1750.49 1255.6 1753.3 Q1252.57 1756.08 1252.57 1759.36 Z" fill="#000000" fill-rule="evenodd" fill-opacity="1" /><path clip-path="url(#clip121)" d="M 0 0 M1299.36 1764.61 L1299.36 1756.27 Q1299.36 1755.56 1299.39 1755.31 Q1299.42 1755.06 1299.6 1754.88 Q1299.79 1754.69 1300.16 1754.69 Q1300.59 1754.69 1300.75 1754.88 Q1300.93 1755.06 1301.05 1755.77 Q1302.01 1760.13 1304.05 1762.44 Q1306.12 1764.73 1309.85 1764.73 Q1313.41 1764.73 1315.2 1763.15 Q1316.99 1761.58 1316.99 1758.99 Q1316.99 1754.35 1310.41 1753.18 Q1306.61 1752.41 1305.04 1751.91 Q1303.46 1751.39 1302.07 1750.25 Q1299.36 1748.02 1299.36 1744.87 Q1299.36 1741.72 1301.73 1739.41 Q1304.14 1737.09 1309.45 1737.09 Q1313 1737.09 1315.41 1738.88 Q1316.12 1738.33 1316.49 1737.86 Q1317.33 1737.09 1317.76 1737.09 Q1318.25 1737.09 1318.35 1737.43 Q1318.44 1737.74 1318.44 1738.64 L1318.44 1745 Q1318.44 1745.71 1318.41 1745.96 Q1318.38 1746.2 1318.19 1746.39 Q1318.01 1746.54 1317.61 1746.54 Q1316.89 1746.54 1316.86 1745.96 Q1316.37 1738.3 1309.45 1738.3 Q1305.72 1738.3 1304.05 1739.75 Q1302.38 1741.17 1302.38 1743.11 Q1302.38 1744.2 1302.88 1745.03 Q1303.4 1745.83 1304.05 1746.33 Q1304.73 1746.79 1305.96 1747.25 Q1307.2 1747.68 1307.94 1747.84 Q1308.71 1747.99 1310.16 1748.3 Q1315.23 1749.26 1317.36 1751.33 Q1320.01 1753.98 1320.01 1757.35 Q1320.01 1761.09 1317.48 1763.62 Q1314.95 1766.15 1309.85 1766.15 Q1305.75 1766.15 1302.88 1763.4 Q1302.51 1763.77 1302.23 1764.11 Q1301.95 1764.42 1301.83 1764.54 Q1301.73 1764.67 1301.7 1764.76 Q1301.67 1764.82 1301.61 1764.88 Q1300.34 1766.15 1300.03 1766.15 Q1299.54 1766.15 1299.45 1765.81 Q1299.36 1765.5 1299.36 1764.61 Z" fill="#000000" fill-rule="evenodd" fill-opacity="1" /><path clip-path="url(#clip121)" d="M 0 0 M1325.94 1762.04 Q1321.77 1757.91 1321.77 1751.91 Q1321.77 1745.89 1325.85 1741.51 Q1329.96 1737.09 1335.82 1737.09 Q1341.57 1737.09 1345.67 1741.48 Q1349.81 1745.83 1349.81 1751.91 Q1349.81 1757.87 1345.64 1762.01 Q1341.51 1766.15 1335.76 1766.15 Q1330.14 1766.15 1325.94 1762.04 M1327.02 1751.39 Q1327.02 1757.53 1328.63 1760.31 Q1331.1 1764.54 1335.82 1764.54 Q1338.17 1764.54 1340.12 1763.28 Q1342.09 1762.01 1343.17 1759.88 Q1344.56 1757.1 1344.56 1751.39 Q1344.56 1745.31 1342.9 1742.62 Q1340.42 1738.51 1335.76 1738.51 Q1333.72 1738.51 1331.72 1739.59 Q1329.74 1740.64 1328.54 1742.74 Q1327.02 1745.52 1327.02 1751.39 Z" fill="#000000" fill-rule="evenodd" fill-opacity="1" /><path clip-path="url(#clip121)" d="M 0 0 M1351.85 1740.15 L1351.85 1738.17 L1361.14 1737.49 L1361.14 1758.49 Q1361.14 1760.01 1361.27 1760.9 Q1361.39 1761.77 1361.89 1762.78 Q1362.41 1763.8 1363.58 1764.27 Q1364.79 1764.73 1366.7 1764.73 Q1370.13 1764.73 1372.23 1761.92 Q1374.36 1759.11 1374.36 1754.94 L1374.36 1743.67 Q1374.36 1741.32 1373.53 1740.74 Q1372.69 1740.15 1369.42 1740.15 L1369.42 1738.17 L1378.72 1737.49 L1378.72 1759.94 Q1378.72 1762.29 1379.52 1762.91 Q1380.35 1763.49 1383.66 1763.49 L1383.66 1765.44 L1374.55 1766.15 L1374.55 1760.44 Q1371.89 1766.12 1366.39 1766.15 Q1363.62 1766.15 1361.7 1765.44 Q1359.82 1764.73 1358.86 1763.87 Q1357.9 1762.97 1357.38 1761.27 Q1356.88 1759.57 1356.82 1758.52 Q1356.76 1757.47 1356.76 1755.44 L1356.76 1745.96 Q1356.76 1741.66 1356.14 1740.92 Q1355.52 1740.15 1351.85 1740.15 Z" fill="#000000" fill-rule="evenodd" fill-opacity="1" /><path clip-path="url(#clip121)" d="M 0 0 M1385.42 1765.44 L1385.42 1763.49 Q1388.78 1763.49 1389.55 1763.09 Q1390.36 1762.66 1390.36 1760.62 L1390.36 1743.67 Q1390.36 1741.32 1389.52 1740.74 Q1388.72 1740.15 1385.42 1740.15 L1385.42 1738.17 L1394.22 1737.49 L1394.22 1744.44 Q1395.11 1741.72 1397 1739.62 Q1398.91 1737.49 1402 1737.49 Q1404.04 1737.49 1405.33 1738.64 Q1406.66 1739.78 1406.66 1741.35 Q1406.66 1742.74 1405.8 1743.45 Q1404.96 1744.13 1403.94 1744.13 Q1402.8 1744.13 1402 1743.42 Q1401.23 1742.68 1401.23 1741.42 Q1401.23 1740.64 1401.57 1740.06 Q1401.94 1739.44 1402.21 1739.22 Q1402.49 1739.01 1402.68 1738.95 Q1402.55 1738.88 1402 1738.88 Q1398.51 1738.88 1396.5 1742.37 Q1394.53 1745.83 1394.53 1750.77 L1394.53 1760.5 Q1394.53 1762.32 1395.27 1762.91 Q1396.04 1763.49 1399.34 1763.49 L1400.67 1763.49 L1400.67 1765.44 Q1398.14 1765.25 1392.64 1765.25 Q1391.87 1765.25 1390.67 1765.29 Q1389.46 1765.32 1387.89 1765.38 Q1386.31 1765.44 1385.42 1765.44 Z" fill="#000000" fill-rule="evenodd" fill-opacity="1" /><path clip-path="url(#clip121)" d="M 0 0 M1412.84 1761.98 Q1408.82 1757.78 1408.82 1751.79 Q1408.82 1745.77 1412.77 1741.45 Q1416.73 1737.09 1422.53 1737.09 Q1426.39 1737.09 1429.3 1738.95 Q1432.2 1740.77 1432.2 1743.89 Q1432.2 1745.28 1431.36 1746.08 Q1430.56 1746.85 1429.3 1746.85 Q1427.97 1746.85 1427.16 1746.05 Q1426.39 1745.21 1426.39 1743.95 Q1426.39 1743.39 1426.58 1742.84 Q1426.76 1742.28 1427.44 1741.69 Q1428.15 1741.11 1429.36 1741.01 Q1427.1 1738.7 1422.72 1738.7 Q1422.66 1738.7 1422.59 1738.7 Q1419.38 1738.7 1416.73 1741.72 Q1414.07 1744.75 1414.07 1751.67 Q1414.07 1755.28 1414.94 1757.94 Q1415.83 1760.56 1417.28 1761.92 Q1418.73 1763.28 1420.15 1763.93 Q1421.58 1764.54 1422.96 1764.54 Q1429.17 1764.54 1431.27 1757.91 Q1431.46 1757.29 1432.07 1757.29 Q1432.91 1757.29 1432.91 1757.91 Q1432.91 1758.21 1432.66 1759.02 Q1432.41 1759.82 1431.64 1761.09 Q1430.87 1762.35 1429.76 1763.46 Q1428.68 1764.54 1426.73 1765.35 Q1424.82 1766.15 1422.41 1766.15 Q1416.85 1766.15 1412.84 1761.98 Z" fill="#000000" fill-rule="evenodd" fill-opacity="1" /><path clip-path="url(#clip121)" d="M 0 0 M1434.67 1751.51 Q1434.67 1745.55 1438.5 1741.32 Q1442.33 1737.09 1447.82 1737.09 Q1453.38 1737.09 1456.25 1740.71 Q1459.16 1744.32 1459.16 1749.51 Q1459.16 1750.46 1458.91 1750.65 Q1458.66 1750.83 1457.58 1750.83 L1439.92 1750.83 Q1439.92 1757.29 1441.83 1760.31 Q1444.49 1764.54 1448.97 1764.54 Q1449.58 1764.54 1450.32 1764.42 Q1451.07 1764.3 1452.58 1763.77 Q1454.09 1763.22 1455.42 1761.77 Q1456.75 1760.31 1457.52 1758.03 Q1457.7 1757.13 1458.32 1757.16 Q1459.16 1757.16 1459.16 1757.91 Q1459.16 1758.46 1458.54 1759.73 Q1457.95 1760.96 1456.81 1762.44 Q1455.67 1763.93 1453.44 1765.04 Q1451.25 1766.15 1448.59 1766.15 Q1443.04 1766.15 1438.84 1761.95 Q1434.67 1757.72 1434.67 1751.51 M1439.98 1749.51 L1454.99 1749.51 Q1454.99 1748.18 1454.74 1746.7 Q1454.52 1745.21 1453.84 1743.18 Q1453.2 1741.11 1451.65 1739.81 Q1450.11 1738.51 1447.82 1738.51 Q1446.8 1738.51 1445.69 1738.95 Q1444.61 1739.38 1443.28 1740.43 Q1441.96 1741.48 1441.03 1743.86 Q1440.1 1746.23 1439.98 1749.51 Z" fill="#000000" fill-rule="evenodd" fill-opacity="1" /><path clip-path="url(#clip121)" d="M 0 0 M1486.36 1761.98 Q1482.35 1757.78 1482.35 1751.79 Q1482.35 1745.77 1486.3 1741.45 Q1490.25 1737.09 1496.06 1737.09 Q1499.92 1737.09 1502.82 1738.95 Q1505.72 1740.77 1505.72 1743.89 Q1505.72 1745.28 1504.89 1746.08 Q1504.08 1746.85 1502.82 1746.85 Q1501.49 1746.85 1500.69 1746.05 Q1499.92 1745.21 1499.92 1743.95 Q1499.92 1743.39 1500.1 1742.84 Q1500.29 1742.28 1500.97 1741.69 Q1501.68 1741.11 1502.88 1741.01 Q1500.63 1738.7 1496.24 1738.7 Q1496.18 1738.7 1496.12 1738.7 Q1492.91 1738.7 1490.25 1741.72 Q1487.6 1744.75 1487.6 1751.67 Q1487.6 1755.28 1488.46 1757.94 Q1489.36 1760.56 1490.81 1761.92 Q1492.26 1763.28 1493.68 1763.93 Q1495.1 1764.54 1496.49 1764.54 Q1502.7 1764.54 1504.79 1757.91 Q1504.98 1757.29 1505.6 1757.29 Q1506.43 1757.29 1506.43 1757.91 Q1506.43 1758.21 1506.18 1759.02 Q1505.94 1759.82 1505.17 1761.09 Q1504.39 1762.35 1503.28 1763.46 Q1502.2 1764.54 1500.26 1765.35 Q1498.34 1766.15 1495.93 1766.15 Q1490.37 1766.15 1486.36 1761.98 Z" fill="#000000" fill-rule="evenodd" fill-opacity="1" /><path clip-path="url(#clip121)" d="M 0 0 M1512.36 1762.04 Q1508.19 1757.91 1508.19 1751.91 Q1508.19 1745.89 1512.27 1741.51 Q1516.37 1737.09 1522.24 1737.09 Q1527.99 1737.09 1532.09 1741.48 Q1536.23 1745.83 1536.23 1751.91 Q1536.23 1757.87 1532.06 1762.01 Q1527.92 1766.15 1522.18 1766.15 Q1516.56 1766.15 1512.36 1762.04 M1513.44 1751.39 Q1513.44 1757.53 1515.05 1760.31 Q1517.52 1764.54 1522.24 1764.54 Q1524.59 1764.54 1526.53 1763.28 Q1528.51 1762.01 1529.59 1759.88 Q1530.98 1757.1 1530.98 1751.39 Q1530.98 1745.31 1529.31 1742.62 Q1526.84 1738.51 1522.18 1738.51 Q1520.14 1738.51 1518.13 1739.59 Q1516.16 1740.64 1514.95 1742.74 Q1513.44 1745.52 1513.44 1751.39 Z" fill="#000000" fill-rule="evenodd" fill-opacity="1" /><path clip-path="url(#clip121)" d="M 0 0 M1540.15 1751.85 Q1540.15 1745.83 1544.35 1741.66 Q1548.55 1737.49 1554.23 1737.49 Q1559.05 1737.49 1562.2 1741.42 L1562.2 1727.74 Q1562.2 1725.39 1561.37 1724.8 Q1560.56 1724.22 1557.29 1724.22 L1557.29 1722.24 L1566.4 1721.56 L1566.4 1759.94 Q1566.4 1762.29 1567.2 1762.91 Q1568.04 1763.49 1571.31 1763.49 L1571.31 1765.44 L1562.01 1766.15 L1562.01 1761.95 Q1558.74 1766.12 1553.55 1766.15 Q1548.12 1766.15 1544.13 1761.98 Q1540.15 1757.81 1540.15 1751.85 M1545.4 1751.91 Q1545.4 1757.78 1547.22 1760.68 Q1549.75 1764.73 1553.86 1764.73 Q1558.56 1764.73 1561.33 1760.31 Q1562.04 1759.23 1562.01 1757.97 L1562.01 1745 Q1562.01 1743.73 1561.33 1742.68 Q1558.74 1738.88 1554.51 1738.88 Q1550.09 1738.88 1547.35 1742.93 Q1545.4 1745.96 1545.4 1751.91 Z" fill="#000000" fill-rule="evenodd" fill-opacity="1" /><path clip-path="url(#clip121)" d="M 0 0 M1573.07 1751.51 Q1573.07 1745.55 1576.9 1741.32 Q1580.73 1737.09 1586.22 1737.09 Q1591.78 1737.09 1594.65 1740.71 Q1597.56 1744.32 1597.56 1749.51 Q1597.56 1750.46 1597.31 1750.65 Q1597.06 1750.83 1595.98 1750.83 L1578.32 1750.83 Q1578.32 1757.29 1580.23 1760.31 Q1582.89 1764.54 1587.37 1764.54 Q1587.98 1764.54 1588.72 1764.42 Q1589.47 1764.3 1590.98 1763.77 Q1592.49 1763.22 1593.82 1761.77 Q1595.15 1760.31 1595.92 1758.03 Q1596.1 1757.13 1596.72 1757.16 Q1597.56 1757.16 1597.56 1757.91 Q1597.56 1758.46 1596.94 1759.73 Q1596.35 1760.96 1595.21 1762.44 Q1594.07 1763.93 1591.84 1765.04 Q1589.65 1766.15 1587 1766.15 Q1581.44 1766.15 1577.24 1761.95 Q1573.07 1757.72 1573.07 1751.51 M1578.38 1749.51 L1593.39 1749.51 Q1593.39 1748.18 1593.14 1746.7 Q1592.92 1745.21 1592.24 1743.18 Q1591.6 1741.11 1590.05 1739.81 Q1588.51 1738.51 1586.22 1738.51 Q1585.2 1738.51 1584.09 1738.95 Q1583.01 1739.38 1581.68 1740.43 Q1580.36 1741.48 1579.43 1743.86 Q1578.5 1746.23 1578.38 1749.51 Z" fill="#000000" fill-rule="evenodd" fill-opacity="1" /><path clip-path="url(#clip121)" d="M 0 0 M73.44 1122.55 L71.4946 1122.55 Q71.4946 1120.27 71.0623 1118.82 Q70.5991 1117.37 69.7654 1116.84 Q68.9008 1116.32 68.3449 1116.19 Q67.7582 1116.04 66.801 1116.04 L33.7911 1116.04 Q32.8956 1116.04 32.6795 1116.28 Q32.4633 1116.5 32.3398 1117.58 Q32.2163 1119.46 32.2163 1120.73 L32.2163 1122.55 L30.24 1122.55 L30.24 1111.81 Q30.24 1110.91 30.3635 1110.66 Q30.487 1110.42 31.0737 1109.98 L63.8983 1087.66 L36.879 1087.66 Q35.9218 1087.66 35.3659 1087.78 Q34.8101 1087.91 33.9455 1088.46 Q33.0809 1088.99 32.6486 1090.44 Q32.2163 1091.89 32.2163 1094.17 L30.24 1094.17 Q30.4253 1087.54 30.4253 1086.79 Q30.4253 1086.02 30.24 1079.38 L32.2163 1079.38 Q32.2163 1081.67 32.6486 1083.12 Q33.0809 1084.57 33.9455 1085.1 Q34.8101 1085.62 35.3968 1085.78 Q35.9527 1085.9 36.879 1085.9 L71.8034 1085.9 Q72.8224 1085.9 73.1312 1086.02 Q73.44 1086.15 73.44 1086.76 Q73.44 1087.2 72.6063 1087.84 L34.6866 1113.66 Q34.3161 1113.91 33.9146 1114.28 L66.801 1114.28 Q67.7582 1114.28 68.3449 1114.15 Q68.9008 1114.03 69.7654 1113.51 Q70.5991 1112.95 71.0623 1111.5 Q71.4946 1110.05 71.4946 1107.76 L73.44 1107.76 Q73.2547 1114.4 73.2547 1115.17 Q73.2547 1115.91 73.44 1122.55 Z" fill="#000000" fill-rule="evenodd" fill-opacity="1" /><path clip-path="url(#clip121)" d="M 0 0 M48.1499 1077.35 L46.1737 1077.35 L45.4943 1068.05 L66.4922 1068.05 Q68.0053 1068.05 68.9008 1067.93 Q69.7654 1067.8 70.7844 1067.31 Q71.8034 1066.78 72.2666 1065.61 Q72.7298 1064.41 72.7298 1062.49 Q72.7298 1059.07 69.9198 1056.97 Q67.1098 1054.83 62.9411 1054.83 L51.6702 1054.83 Q49.3233 1054.83 48.7366 1055.67 Q48.1499 1056.5 48.1499 1059.78 L46.1737 1059.78 L45.4943 1050.48 L67.9435 1050.48 Q70.2903 1050.48 70.9079 1049.68 Q71.4946 1048.84 71.4946 1045.54 L73.44 1045.54 L74.1502 1054.65 L68.4376 1054.65 Q74.1193 1057.31 74.1502 1062.8 Q74.1502 1065.58 73.44 1067.5 Q72.7298 1069.38 71.8652 1070.34 Q70.9697 1071.29 69.2713 1071.82 Q67.573 1072.31 66.5231 1072.37 Q65.4732 1072.44 63.4351 1072.44 L53.9552 1072.44 Q49.663 1072.44 48.9219 1073.05 Q48.1499 1073.67 48.1499 1077.35 Z" fill="#000000" fill-rule="evenodd" fill-opacity="1" /><path clip-path="url(#clip121)" d="M 0 0 M73.44 1043.5 L71.4946 1043.5 Q71.4946 1040.14 71.0932 1039.36 Q70.6609 1038.59 68.6228 1038.59 L51.6702 1038.59 Q49.3233 1038.59 48.7366 1039.43 Q48.1499 1040.23 48.1499 1043.5 L46.1737 1043.5 L45.4943 1034.61 L52.1334 1034.61 Q45.4943 1031.64 45.4943 1025.25 Q45.4943 1017.84 51.6702 1016.82 Q49.2616 1015.74 47.378 1013.49 Q45.4943 1011.2 45.4943 1007.65 Q45.4943 1002.9 47.8411 1001.01 Q49.416 999.623 51.1761 999.345 Q52.9362 999.067 57.5063 999.067 L69.5801 999.067 Q70.9079 999.005 71.2167 997.986 Q71.4946 996.967 71.4946 994.126 L73.44 994.126 Q73.2547 1000.58 73.2547 1001.2 Q73.2547 1001.69 73.44 1008.36 L71.4946 1008.36 Q71.4946 1005 71.0932 1004.22 Q70.6609 1003.42 68.6228 1003.42 L53.8935 1003.42 Q50.682 1003.42 48.7984 1004.41 Q46.8839 1005.4 46.8839 1008.11 Q46.8839 1011.39 49.6321 1014.01 Q52.3804 1016.64 57.0123 1016.64 L68.6228 1016.64 Q70.6609 1016.64 71.0932 1015.87 Q71.4946 1015.06 71.4946 1011.7 L73.44 1011.7 Q73.2547 1018.15 73.2547 1018.8 Q73.2547 1019.29 73.44 1025.93 L71.4946 1025.93 Q71.4946 1022.57 71.0932 1021.79 Q70.6609 1020.99 68.6228 1020.99 L53.8935 1020.99 Q50.682 1020.99 48.7984 1021.98 Q46.8839 1022.97 46.8839 1025.68 Q46.8839 1028.96 49.6321 1031.58 Q52.3804 1034.21 57.0123 1034.21 L68.6228 1034.21 Q70.6609 1034.21 71.0932 1033.44 Q71.4946 1032.63 71.4946 1029.3 L73.44 1029.3 Q73.2547 1035.75 73.2547 1036.37 Q73.2547 1036.86 73.44 1043.5 Z" fill="#000000" fill-rule="evenodd" fill-opacity="1" /><path clip-path="url(#clip121)" d="M 0 0 M32.2163 994.126 L30.24 994.126 L29.5607 985.017 L49.6013 985.017 Q45.4943 981.342 45.4943 976.34 Q45.4943 970.905 49.663 966.922 Q53.8317 962.938 59.7914 962.938 Q65.8128 962.938 69.9815 967.107 Q74.1502 971.276 74.1502 977.05 Q74.1502 982.299 69.5183 985.326 Q73.3782 987.549 73.44 987.611 L73.44 989.186 L35.7365 989.186 Q33.3897 989.186 32.803 990.019 Q32.2163 990.853 32.2163 994.126 M66.2451 984.832 Q67.573 984.832 68.9008 983.936 Q72.7298 981.435 72.7298 977.359 Q72.7298 977.328 72.7298 977.297 Q72.7298 972.881 68.6846 970.133 Q65.6584 968.188 59.7296 968.188 Q53.8626 968.188 50.9291 970.01 Q46.8839 972.542 46.8839 976.649 Q46.8839 981.28 50.9291 984.121 Q51.9481 984.832 53.2141 984.832 L66.2451 984.832 Z" fill="#000000" fill-rule="evenodd" fill-opacity="1" /><path clip-path="url(#clip121)" d="M 0 0 M59.5135 959.418 Q53.5538 959.418 49.3233 955.589 Q45.0929 951.76 45.0929 946.263 Q45.0929 940.705 48.7058 937.833 Q52.3186 934.931 57.5063 934.931 Q58.4636 934.931 58.6489 935.178 Q58.8341 935.425 58.8341 936.506 L58.8341 954.169 Q65.2879 954.169 68.3141 952.254 Q72.5445 949.598 72.5445 945.121 Q72.5445 944.503 72.421 943.762 Q72.2975 943.021 71.7725 941.508 Q71.2167 939.995 69.7654 938.667 Q68.3141 937.339 66.029 936.567 Q65.1335 936.382 65.1644 935.765 Q65.1644 934.931 65.9055 934.931 Q66.4613 934.931 67.7273 935.548 Q68.9625 936.135 70.4447 937.278 Q71.9269 938.42 73.0386 940.643 Q74.1502 942.836 74.1502 945.491 Q74.1502 951.05 69.9507 955.249 Q65.7202 959.418 59.5135 959.418 M57.5063 954.107 L57.5063 939.099 Q56.1785 939.099 54.6963 939.347 Q53.2141 939.563 51.1761 940.242 Q49.1072 940.89 47.8103 942.434 Q46.5133 943.978 46.5133 946.263 Q46.5133 947.282 46.9456 948.394 Q47.378 949.475 48.4278 950.803 Q49.4777 952.131 51.8554 953.057 Q54.2331 953.983 57.5063 954.107 Z" fill="#000000" fill-rule="evenodd" fill-opacity="1" /><path clip-path="url(#clip121)" d="M 0 0 M73.44 933.171 L71.4946 933.171 Q71.4946 929.805 71.0932 929.033 Q70.6609 928.23 68.6228 928.23 L51.6702 928.23 Q49.3233 928.23 48.7366 929.064 Q48.1499 929.867 48.1499 933.171 L46.1737 933.171 L45.4943 924.37 L52.4421 924.37 Q49.7248 923.475 47.625 921.591 Q45.4943 919.676 45.4943 916.589 Q45.4943 914.551 46.6369 913.254 Q47.7794 911.926 49.3542 911.926 Q50.7438 911.926 51.454 912.79 Q52.1334 913.624 52.1334 914.643 Q52.1334 915.786 51.4231 916.589 Q50.682 917.361 49.416 917.361 Q48.644 917.361 48.0573 917.021 Q47.4397 916.65 47.2236 916.372 Q47.0074 916.094 46.9456 915.909 Q46.8839 916.033 46.8839 916.589 Q46.8839 920.078 50.3732 922.085 Q53.8317 924.061 58.7724 924.061 L68.4993 924.061 Q70.3212 924.061 70.9079 923.32 Q71.4946 922.548 71.4946 919.244 L71.4946 917.916 L73.44 917.916 Q73.2547 920.448 73.2547 925.945 Q73.2547 926.717 73.2856 927.921 Q73.3165 929.126 73.3782 930.7 Q73.44 932.275 73.44 933.171 Z" fill="#000000" fill-rule="evenodd" fill-opacity="1" /><path clip-path="url(#clip121)" d="M 0 0 M70.0433 884.968 Q65.9055 889.137 59.9149 889.137 Q53.8935 889.137 49.5086 885.061 Q45.0929 880.954 45.0929 875.087 Q45.0929 869.343 49.4777 865.236 Q53.8317 861.099 59.9149 861.099 Q65.8746 861.099 70.0124 865.267 Q74.1502 869.405 74.1502 875.149 Q74.1502 880.769 70.0433 884.968 M59.39 883.887 Q65.5349 883.887 68.3141 882.282 Q72.5445 879.811 72.5445 875.087 Q72.5445 872.74 71.2785 870.795 Q70.0124 868.818 67.8817 867.738 Q65.1026 866.348 59.39 866.348 Q53.3068 866.348 50.6203 868.016 Q46.5133 870.486 46.5133 875.149 Q46.5133 877.187 47.5941 879.194 Q48.644 881.17 50.7438 882.374 Q53.5229 883.887 59.39 883.887 Z" fill="#000000" fill-rule="evenodd" fill-opacity="1" /><path clip-path="url(#clip121)" d="M 0 0 M48.1499 858.999 L46.1737 858.999 L46.1737 854.027 L38.9171 854.027 Q34.2234 854.027 31.5369 851.001 Q28.8504 847.944 28.8504 844.208 Q28.8504 841.737 30.1782 840.132 Q31.506 838.526 33.297 838.526 Q34.5013 838.526 35.3042 839.267 Q36.0762 839.977 36.0762 841.305 Q36.0762 842.571 35.2733 843.312 Q34.4705 844.022 33.3588 844.022 Q31.3208 844.022 30.7032 842.139 Q30.2709 843.096 30.24 844.208 Q30.24 846.493 32.5868 848.284 Q34.9336 850.044 38.8553 850.044 L46.1737 850.044 L46.1737 842.633 L48.1499 842.633 L48.1499 849.828 L68.4993 849.828 Q70.3212 849.828 70.9079 849.087 Q71.4946 848.315 71.4946 845.041 L71.4946 843.714 L73.44 843.714 Q73.2547 846.246 73.2547 851.742 Q73.2547 852.514 73.2856 853.719 Q73.3165 854.892 73.3782 856.498 Q73.44 858.072 73.44 858.937 L71.4946 858.937 Q71.4946 855.571 71.0932 854.799 Q70.6609 854.027 68.6228 854.027 L48.1499 854.027 L48.1499 858.999 Z" fill="#000000" fill-rule="evenodd" fill-opacity="1" /><path clip-path="url(#clip121)" d="M 0 0 M83.7537 815.737 Q83.7537 812.371 83.3213 811.599 Q82.9199 810.796 80.9128 810.796 L51.2996 810.796 Q49.1998 810.796 48.6749 811.599 Q48.1499 812.371 48.1499 815.737 L46.1737 815.737 L45.4943 806.628 L49.663 806.628 Q45.4943 802.83 45.4943 797.765 Q45.4943 792.392 49.663 788.471 Q53.8317 784.549 59.7914 784.549 Q65.8128 784.549 69.9815 788.718 Q74.1502 792.886 74.1502 798.661 Q74.1502 801.811 72.5445 803.941 Q70.9079 806.041 69.7036 806.442 L70.2903 806.442 L80.9128 806.442 Q82.9508 806.442 83.3522 805.64 Q83.7537 804.837 83.7537 801.502 L85.699 801.502 Q85.5138 808.141 85.5138 808.635 Q85.5138 809.252 85.699 815.737 L83.7537 815.737 M66.2451 806.442 Q67.2024 806.442 67.5421 806.319 Q67.8817 806.165 68.9008 805.547 Q72.7298 803.046 72.7298 798.97 Q72.7298 798.939 72.7298 798.908 Q72.7298 795.295 69.0552 792.547 Q65.3496 789.799 59.7914 789.799 Q54.4802 789.799 50.7747 792.3 Q47.0692 794.801 47.0692 798.259 Q47.0692 800.73 48.397 802.891 Q49.7248 805.053 52.1334 806.442 L66.2451 806.442 Z" fill="#000000" fill-rule="evenodd" fill-opacity="1" /><path clip-path="url(#clip121)" d="M 0 0 M67.4186 781.893 Q62.0456 781.893 59.2047 775.563 Q57.3828 771.765 56.9196 763.922 L54.6037 763.922 Q50.682 763.922 48.6131 765.991 Q46.5133 768.029 46.5133 770.623 Q46.5133 775.254 49.416 777.478 Q49.4777 775.594 50.435 774.915 Q51.3614 774.235 52.3186 774.235 Q53.5847 774.235 54.4184 775.038 Q55.2213 775.81 55.2213 777.138 Q55.2213 778.404 54.4493 779.238 Q53.6464 780.072 52.2569 780.072 Q49.1689 780.072 47.1309 777.292 Q45.0929 774.482 45.0929 770.499 Q45.0929 765.311 48.5822 761.853 Q49.663 760.772 51.0526 760.247 Q52.4421 759.691 53.3685 759.63 Q54.264 759.568 56.055 759.568 L68.6846 759.568 Q69.0552 759.568 69.6727 759.444 Q70.2903 759.321 71.0932 758.765 Q71.8652 758.178 71.8652 757.221 Q71.8652 754.936 67.82 754.967 L64.2689 754.967 L64.2689 753.361 L67.82 753.361 Q71.1858 753.361 72.5136 755.152 Q73.8106 756.912 73.8106 758.549 Q73.8106 760.649 72.2666 761.976 Q70.7226 763.304 68.6228 763.489 Q71.0314 764.447 72.6063 766.639 Q74.1502 768.801 74.1502 771.765 Q74.1502 774.05 73.5635 776.212 Q73.0077 778.342 71.4329 780.133 Q69.8271 781.893 67.4186 781.893 M67.3568 777.015 Q69.7036 777.015 71.2167 775.347 Q72.7298 773.68 72.7298 771.333 Q72.7298 768.677 70.6918 766.299 Q68.6228 763.922 64.5777 763.922 L58.2474 763.922 Q58.4945 770.931 61.3045 773.988 Q64.0836 777.015 67.3568 777.015 Z" fill="#000000" fill-rule="evenodd" fill-opacity="1" /><path clip-path="url(#clip121)" d="M 0 0 M69.9815 747.185 Q65.782 751.2 59.7914 751.2 Q53.7699 751.2 49.4469 747.247 Q45.0929 743.294 45.0929 737.489 Q45.0929 733.629 46.9456 730.727 Q48.7675 727.824 51.8863 727.824 Q53.2759 727.824 54.0787 728.658 Q54.8507 729.461 54.8507 730.727 Q54.8507 732.054 54.0479 732.857 Q53.2141 733.629 51.9481 733.629 Q51.3923 733.629 50.8364 733.444 Q50.2806 733.259 49.6939 732.579 Q49.1072 731.869 49.0146 730.665 Q46.6986 732.919 46.6986 737.304 Q46.6986 737.366 46.6986 737.427 Q46.6986 740.639 49.7248 743.294 Q52.7509 745.95 59.6679 745.95 Q63.2807 745.95 65.9364 745.085 Q68.5611 744.19 69.9198 742.739 Q71.2785 741.287 71.9269 739.867 Q72.5445 738.446 72.5445 737.057 Q72.5445 730.85 65.9055 728.75 Q65.2879 728.565 65.2879 727.948 Q65.2879 727.114 65.9055 727.114 Q66.2143 727.114 67.0171 727.361 Q67.82 727.608 69.086 728.38 Q70.3521 729.152 71.4637 730.263 Q72.5445 731.344 73.3474 733.29 Q74.1502 735.204 74.1502 737.613 Q74.1502 743.171 69.9815 747.185 Z" fill="#000000" fill-rule="evenodd" fill-opacity="1" /><path clip-path="url(#clip121)" d="M 0 0 M73.44 727.114 L71.4946 727.114 Q71.4946 723.748 71.0932 722.976 Q70.6609 722.173 68.6228 722.173 L35.7365 722.173 Q33.3897 722.173 32.803 723.007 Q32.2163 723.81 32.2163 727.114 L30.24 727.114 L29.5607 718.004 L59.9149 718.004 L52.1951 709.08 Q50.9908 707.691 49.7248 707.691 Q48.2735 707.691 48.1499 709.513 L46.1737 709.513 Q46.3589 706.857 46.3589 702.441 Q46.3589 699.847 46.1737 698.026 L48.1499 698.026 Q48.3352 702.009 51.5466 705.992 Q52.2569 706.888 54.1096 709.019 Q55.9315 711.118 56.1168 711.118 Q56.1785 711.118 56.3329 711.057 Q56.4873 710.964 56.6108 710.84 Q56.7344 710.717 56.7961 710.717 L68.1288 702.688 Q70.4138 701.052 70.9697 699.847 Q71.4946 698.643 71.4946 696.543 L73.44 696.543 Q73.2547 699.261 73.2547 702.071 Q73.2547 703.584 73.44 708.895 L71.4946 708.895 Q71.4946 706.61 70.0124 706.61 Q68.9934 706.61 61.9221 711.736 Q61.428 712.107 60.3472 712.94 Q59.2047 713.712 58.6489 714.145 L62.1073 718.19 L68.6228 718.19 Q70.6609 718.19 71.0932 717.418 Q71.4946 716.615 71.4946 713.249 L73.44 713.249 Q73.2547 717.047 73.2547 720.197 Q73.2547 720.845 73.44 727.114 Z" fill="#000000" fill-rule="evenodd" fill-opacity="1" /><path clip-path="url(#clip121)" d="M 0 0 M67.4186 695.648 Q62.0456 695.648 59.2047 689.318 Q57.3828 685.52 56.9196 677.676 L54.6037 677.676 Q50.682 677.676 48.6131 679.745 Q46.5133 681.783 46.5133 684.377 Q46.5133 689.009 49.416 691.232 Q49.4777 689.349 50.435 688.669 Q51.3614 687.99 52.3186 687.99 Q53.5847 687.99 54.4184 688.793 Q55.2213 689.565 55.2213 690.892 Q55.2213 692.159 54.4493 692.992 Q53.6464 693.826 52.2569 693.826 Q49.1689 693.826 47.1309 691.047 Q45.0929 688.237 45.0929 684.253 Q45.0929 679.066 48.5822 675.607 Q49.663 674.527 51.0526 674.002 Q52.4421 673.446 53.3685 673.384 Q54.264 673.322 56.055 673.322 L68.6846 673.322 Q69.0552 673.322 69.6727 673.199 Q70.2903 673.075 71.0932 672.519 Q71.8652 671.933 71.8652 670.975 Q71.8652 668.69 67.82 668.721 L64.2689 668.721 L64.2689 667.116 L67.82 667.116 Q71.1858 667.116 72.5136 668.907 Q73.8106 670.667 73.8106 672.303 Q73.8106 674.403 72.2666 675.731 Q70.7226 677.059 68.6228 677.244 Q71.0314 678.201 72.6063 680.394 Q74.1502 682.555 74.1502 685.52 Q74.1502 687.805 73.5635 689.966 Q73.0077 692.097 71.4329 693.888 Q69.8271 695.648 67.4186 695.648 M67.3568 690.769 Q69.7036 690.769 71.2167 689.102 Q72.7298 687.434 72.7298 685.087 Q72.7298 682.432 70.6918 680.054 Q68.6228 677.676 64.5777 677.676 L58.2474 677.676 Q58.4945 684.686 61.3045 687.743 Q64.0836 690.769 67.3568 690.769 Z" fill="#000000" fill-rule="evenodd" fill-opacity="1" /><path clip-path="url(#clip121)" d="M 0 0 M78.4424 665.355 Q76.4044 665.355 74.6443 663.811 Q72.8842 662.237 72.1122 659.519 Q70.3521 662.298 66.4922 662.298 Q63.5278 662.298 61.2427 660.353 Q58.7724 663.317 54.7272 663.317 Q50.9908 663.317 48.2426 660.353 Q45.4943 657.389 45.4943 653.065 Q45.4943 649.267 47.7794 646.365 Q44.815 643.339 44.7841 639.664 Q44.7841 638.027 45.8031 637.255 Q46.8221 636.452 47.9029 636.452 Q48.8602 636.452 49.3233 637.07 Q49.7865 637.657 49.7865 638.274 Q49.7865 639.046 49.2925 639.602 Q48.7675 640.127 47.9647 640.127 Q46.6369 640.127 46.2354 639.108 Q46.1737 639.293 46.1737 639.726 Q46.1737 642.814 48.644 645.438 Q51.0526 642.844 54.789 642.844 Q58.5253 642.844 61.2736 645.809 Q64.0218 648.773 64.0218 653.065 Q64.0218 656.617 62.0456 659.334 Q63.3116 660.415 65.0409 660.415 Q66.6157 660.415 67.8509 659.457 Q69.086 658.5 69.2713 657.049 Q69.3331 656.617 69.3331 652.324 Q69.3331 649.792 69.3948 648.403 Q69.4566 647.013 69.8889 645.037 Q70.2903 643.03 71.0932 641.455 Q73.3782 637.348 78.3189 637.317 Q81.9318 637.317 84.186 641.486 Q86.471 645.624 86.471 651.367 Q86.471 657.172 84.1551 661.279 Q81.87 665.355 78.4424 665.355 M78.4424 662.051 Q81.0363 662.051 83.0126 658.994 Q85.0197 655.937 85.0197 651.305 Q85.0197 646.766 83.0434 643.709 Q81.098 640.621 78.4424 640.621 Q76.5588 640.621 75.3545 641.702 Q74.1502 642.783 73.6562 645.006 Q73.193 647.198 73.1003 648.742 Q73.0077 650.286 73.0077 653.127 L73.0077 656.864 Q73.1312 659.025 74.706 660.538 Q76.2809 662.051 78.4424 662.051 M54.789 658.593 Q62.5705 658.593 62.5705 653.065 Q62.5705 650.286 60.0384 648.588 Q58.3401 647.569 54.7272 647.569 Q46.9456 647.569 46.9456 653.065 Q46.9456 655.845 49.4777 657.574 Q51.1761 658.593 54.789 658.593 Z" fill="#000000" fill-rule="evenodd" fill-opacity="1" /><path clip-path="url(#clip121)" d="M 0 0 M59.5135 634.692 Q53.5538 634.692 49.3233 630.863 Q45.0929 627.034 45.0929 621.538 Q45.0929 615.98 48.7058 613.108 Q52.3186 610.205 57.5063 610.205 Q58.4636 610.205 58.6489 610.452 Q58.8341 610.699 58.8341 611.78 L58.8341 629.443 Q65.2879 629.443 68.3141 627.528 Q72.5445 624.873 72.5445 620.395 Q72.5445 619.778 72.421 619.037 Q72.2975 618.295 71.7725 616.782 Q71.2167 615.269 69.7654 613.942 Q68.3141 612.614 66.029 611.842 Q65.1335 611.656 65.1644 611.039 Q65.1644 610.205 65.9055 610.205 Q66.4613 610.205 67.7273 610.823 Q68.9625 611.409 70.4447 612.552 Q71.9269 613.694 73.0386 615.918 Q74.1502 618.11 74.1502 620.766 Q74.1502 626.324 69.9507 630.524 Q65.7202 634.692 59.5135 634.692 M57.5063 629.381 L57.5063 614.374 Q56.1785 614.374 54.6963 614.621 Q53.2141 614.837 51.1761 615.516 Q49.1072 616.165 47.8103 617.709 Q46.5133 619.253 46.5133 621.538 Q46.5133 622.557 46.9456 623.668 Q47.378 624.749 48.4278 626.077 Q49.4777 627.405 51.8554 628.331 Q54.2331 629.258 57.5063 629.381 Z" fill="#000000" fill-rule="evenodd" fill-opacity="1" /><path clip-path="url(#clip121)" d="M 0 0 M72.6063 608.105 L64.2689 608.105 Q63.5587 608.105 63.3116 608.074 Q63.0646 608.044 62.8793 607.858 Q62.694 607.673 62.694 607.303 Q62.694 606.87 62.8793 606.716 Q63.0646 606.531 63.7748 606.407 Q68.1288 605.45 70.4447 603.412 Q72.7298 601.343 72.7298 597.606 Q72.7298 594.055 71.1549 592.264 Q69.5801 590.473 66.9862 590.473 Q62.3544 590.473 61.181 597.051 Q60.409 600.849 59.9149 602.424 Q59.39 603.998 58.2474 605.388 Q56.0241 608.105 52.8745 608.105 Q49.7248 608.105 47.4088 605.728 Q45.0929 603.319 45.0929 598.008 Q45.0929 594.457 46.8839 592.048 Q46.3281 591.338 45.8649 590.967 Q45.0929 590.134 45.0929 589.701 Q45.0929 589.207 45.4326 589.115 Q45.7414 589.022 46.6369 589.022 L52.998 589.022 Q53.7082 589.022 53.9552 589.053 Q54.2023 589.084 54.3875 589.269 Q54.5419 589.454 54.5419 589.856 Q54.5419 590.566 53.9552 590.597 Q46.2972 591.091 46.2972 598.008 Q46.2972 601.744 47.7485 603.412 Q49.1689 605.079 51.1143 605.079 Q52.1951 605.079 53.0288 604.585 Q53.8317 604.06 54.3258 603.412 Q54.789 602.732 55.2522 601.497 Q55.6845 600.262 55.8389 599.521 Q55.9933 598.749 56.302 597.298 Q57.2593 592.233 59.3282 590.103 Q61.9838 587.447 65.3496 587.447 Q69.086 587.447 71.6181 589.979 Q74.1502 592.511 74.1502 597.606 Q74.1502 601.713 71.402 604.585 Q71.7725 604.956 72.1122 605.234 Q72.421 605.512 72.5445 605.635 Q72.668 605.728 72.7607 605.759 Q72.8224 605.789 72.8842 605.851 Q74.1502 607.117 74.1502 607.426 Q74.1502 607.92 73.8106 608.013 Q73.5018 608.105 72.6063 608.105 Z" fill="#000000" fill-rule="evenodd" fill-opacity="1" /></svg>
