<?xml version="1.0" encoding="utf-8"?>
<svg xmlns="http://www.w3.org/2000/svg" xmlns:xlink="http://www.w3.org/1999/xlink" width="500" height="500" viewBox="0 0 2000 2000">
<defs>
  <clipPath id="clip390">
    <rect x="0" y="0" width="2000" height="2000"/>
  </clipPath>
</defs>
<path clip-path="url(#clip390)" d="
 Z
  " fill="#ffffff" fill-rule="evenodd" fill-opacity="1"/>
<defs>
  <clipPath id="clip391">
    <rect x="400" y="200" width="1401" height="1401"/>
  </clipPath>
</defs>
<polyline clip-path="url(#clip390)" style="stroke:#cccccc; stroke-width:4; stroke-opacity:1; fill:none" points="
  400,1600 1800,1600 
  "/>
<polyline clip-path="url(#clip390)" style="stroke:#ededed; stroke-width:4; stroke-opacity:1; fill:none" points="
  400,1472.73 1800,1472.73 
  "/>
<polyline clip-path="url(#clip390)" style="stroke:#ededed; stroke-width:4; stroke-opacity:1; fill:none" points="
  400,1345.45 1800,1345.45 
  "/>
<polyline clip-path="url(#clip390)" style="stroke:#ededed; stroke-width:4; stroke-opacity:1; fill:none" points="
  400,1218.18 1800,1218.18 
  "/>
<polyline clip-path="url(#clip390)" style="stroke:#ededed; stroke-width:4; stroke-opacity:1; fill:none" points="
  400,1090.91 1800,1090.91 
  "/>
<polyline clip-path="url(#clip390)" style="stroke:#cccccc; stroke-width:4; stroke-opacity:1; fill:none" points="
  400,963.636 1800,963.636 
  "/>
<polyline clip-path="url(#clip390)" style="stroke:#ededed; stroke-width:4; stroke-opacity:1; fill:none" points="
  400,836.364 1800,836.364 
  "/>
<polyline clip-path="url(#clip390)" style="stroke:#ededed; stroke-width:4; stroke-opacity:1; fill:none" points="
  400,709.091 1800,709.091 
  "/>
<polyline clip-path="url(#clip390)" style="stroke:#ededed; stroke-width:4; stroke-opacity:1; fill:none" points="
  400,581.818 1800,581.818 
  "/>
<polyline clip-path="url(#clip390)" style="stroke:#ededed; stroke-width:4; stroke-opacity:1; fill:none" points="
  400,454.545 1800,454.545 
  "/>
<polyline clip-path="url(#clip390)" style="stroke:#cccccc; stroke-width:4; stroke-opacity:1; fill:none" points="
  400,327.273 1800,327.273 
  "/>
<polyline clip-path="url(#clip390)" style="stroke:#ededed; stroke-width:4; stroke-opacity:1; fill:none" points="
  400,200 1800,200 
  "/>
<polyline clip-path="url(#clip390)" style="stroke:#ededed; stroke-width:4; stroke-opacity:1; fill:none" points="
  448.143,1600 448.143,200 
  "/>
<polyline clip-path="url(#clip390)" style="stroke:#ededed; stroke-width:4; stroke-opacity:1; fill:none" points="
  482.301,1600 482.301,200 
  "/>
<polyline clip-path="url(#clip390)" style="stroke:#ededed; stroke-width:4; stroke-opacity:1; fill:none" points="
  508.796,1600 508.796,200 
  "/>
<polyline clip-path="url(#clip390)" style="stroke:#ededed; stroke-width:4; stroke-opacity:1; fill:none" points="
  530.443,1600 530.443,200 
  "/>
<polyline clip-path="url(#clip390)" style="stroke:#ededed; stroke-width:4; stroke-opacity:1; fill:none" points="
  548.746,1600 548.746,200 
  "/>
<polyline clip-path="url(#clip390)" style="stroke:#ededed; stroke-width:4; stroke-opacity:1; fill:none" points="
  564.601,1600 564.601,200 
  "/>
<polyline clip-path="url(#clip390)" style="stroke:#ededed; stroke-width:4; stroke-opacity:1; fill:none" points="
  578.586,1600 578.586,200 
  "/>
<polyline clip-path="url(#clip390)" style="stroke:#ededed; stroke-width:4; stroke-opacity:1; fill:none" points="
  591.096,1600 591.096,200 
  "/>
<polyline clip-path="url(#clip390)" style="stroke:#cccccc; stroke-width:4; stroke-opacity:1; fill:none" points="
  591.096,1600 591.096,200 
  "/>
<polyline clip-path="url(#clip390)" style="stroke:#ededed; stroke-width:4; stroke-opacity:1; fill:none" points="
  673.397,1600 673.397,200 
  "/>
<polyline clip-path="url(#clip390)" style="stroke:#ededed; stroke-width:4; stroke-opacity:1; fill:none" points="
  721.54,1600 721.54,200 
  "/>
<polyline clip-path="url(#clip390)" style="stroke:#ededed; stroke-width:4; stroke-opacity:1; fill:none" points="
  755.697,1600 755.697,200 
  "/>
<polyline clip-path="url(#clip390)" style="stroke:#ededed; stroke-width:4; stroke-opacity:1; fill:none" points="
  782.192,1600 782.192,200 
  "/>
<polyline clip-path="url(#clip390)" style="stroke:#ededed; stroke-width:4; stroke-opacity:1; fill:none" points="
  803.84,1600 803.84,200 
  "/>
<polyline clip-path="url(#clip390)" style="stroke:#ededed; stroke-width:4; stroke-opacity:1; fill:none" points="
  822.143,1600 822.143,200 
  "/>
<polyline clip-path="url(#clip390)" style="stroke:#ededed; stroke-width:4; stroke-opacity:1; fill:none" points="
  837.998,1600 837.998,200 
  "/>
<polyline clip-path="url(#clip390)" style="stroke:#ededed; stroke-width:4; stroke-opacity:1; fill:none" points="
  851.983,1600 851.983,200 
  "/>
<polyline clip-path="url(#clip390)" style="stroke:#ededed; stroke-width:4; stroke-opacity:1; fill:none" points="
  864.493,1600 864.493,200 
  "/>
<polyline clip-path="url(#clip390)" style="stroke:#cccccc; stroke-width:4; stroke-opacity:1; fill:none" points="
  864.493,1600 864.493,200 
  "/>
<polyline clip-path="url(#clip390)" style="stroke:#ededed; stroke-width:4; stroke-opacity:1; fill:none" points="
  946.794,1600 946.794,200 
  "/>
<polyline clip-path="url(#clip390)" style="stroke:#ededed; stroke-width:4; stroke-opacity:1; fill:none" points="
  994.936,1600 994.936,200 
  "/>
<polyline clip-path="url(#clip390)" style="stroke:#ededed; stroke-width:4; stroke-opacity:1; fill:none" points="
  1029.09,1600 1029.09,200 
  "/>
<polyline clip-path="url(#clip390)" style="stroke:#ededed; stroke-width:4; stroke-opacity:1; fill:none" points="
  1055.59,1600 1055.59,200 
  "/>
<polyline clip-path="url(#clip390)" style="stroke:#ededed; stroke-width:4; stroke-opacity:1; fill:none" points="
  1077.24,1600 1077.24,200 
  "/>
<polyline clip-path="url(#clip390)" style="stroke:#ededed; stroke-width:4; stroke-opacity:1; fill:none" points="
  1095.54,1600 1095.54,200 
  "/>
<polyline clip-path="url(#clip390)" style="stroke:#ededed; stroke-width:4; stroke-opacity:1; fill:none" points="
  1111.39,1600 1111.39,200 
  "/>
<polyline clip-path="url(#clip390)" style="stroke:#ededed; stroke-width:4; stroke-opacity:1; fill:none" points="
  1125.38,1600 1125.38,200 
  "/>
<polyline clip-path="url(#clip390)" style="stroke:#ededed; stroke-width:4; stroke-opacity:1; fill:none" points="
  1137.89,1600 1137.89,200 
  "/>
<polyline clip-path="url(#clip390)" style="stroke:#cccccc; stroke-width:4; stroke-opacity:1; fill:none" points="
  1137.89,1600 1137.89,200 
  "/>
<polyline clip-path="url(#clip390)" style="stroke:#ededed; stroke-width:4; stroke-opacity:1; fill:none" points="
  1220.19,1600 1220.19,200 
  "/>
<polyline clip-path="url(#clip390)" style="stroke:#ededed; stroke-width:4; stroke-opacity:1; fill:none" points="
  1268.33,1600 1268.33,200 
  "/>
<polyline clip-path="url(#clip390)" style="stroke:#ededed; stroke-width:4; stroke-opacity:1; fill:none" points="
  1302.49,1600 1302.49,200 
  "/>
<polyline clip-path="url(#clip390)" style="stroke:#ededed; stroke-width:4; stroke-opacity:1; fill:none" points="
  1328.99,1600 1328.99,200 
  "/>
<polyline clip-path="url(#clip390)" style="stroke:#ededed; stroke-width:4; stroke-opacity:1; fill:none" points="
  1350.63,1600 1350.63,200 
  "/>
<polyline clip-path="url(#clip390)" style="stroke:#ededed; stroke-width:4; stroke-opacity:1; fill:none" points="
  1368.94,1600 1368.94,200 
  "/>
<polyline clip-path="url(#clip390)" style="stroke:#ededed; stroke-width:4; stroke-opacity:1; fill:none" points="
  1384.79,1600 1384.79,200 
  "/>
<polyline clip-path="url(#clip390)" style="stroke:#ededed; stroke-width:4; stroke-opacity:1; fill:none" points="
  1398.78,1600 1398.78,200 
  "/>
<polyline clip-path="url(#clip390)" style="stroke:#ededed; stroke-width:4; stroke-opacity:1; fill:none" points="
  1411.29,1600 1411.29,200 
  "/>
<polyline clip-path="url(#clip390)" style="stroke:#cccccc; stroke-width:4; stroke-opacity:1; fill:none" points="
  1411.29,1600 1411.29,200 
  "/>
<polyline clip-path="url(#clip390)" style="stroke:#ededed; stroke-width:4; stroke-opacity:1; fill:none" points="
  1493.59,1600 1493.59,200 
  "/>
<polyline clip-path="url(#clip390)" style="stroke:#ededed; stroke-width:4; stroke-opacity:1; fill:none" points="
  1541.73,1600 1541.73,200 
  "/>
<polyline clip-path="url(#clip390)" style="stroke:#ededed; stroke-width:4; stroke-opacity:1; fill:none" points="
  1575.89,1600 1575.89,200 
  "/>
<polyline clip-path="url(#clip390)" style="stroke:#ededed; stroke-width:4; stroke-opacity:1; fill:none" points="
  1602.38,1600 1602.38,200 
  "/>
<polyline clip-path="url(#clip390)" style="stroke:#ededed; stroke-width:4; stroke-opacity:1; fill:none" points="
  1624.03,1600 1624.03,200 
  "/>
<polyline clip-path="url(#clip390)" style="stroke:#ededed; stroke-width:4; stroke-opacity:1; fill:none" points="
  1642.33,1600 1642.33,200 
  "/>
<polyline clip-path="url(#clip390)" style="stroke:#ededed; stroke-width:4; stroke-opacity:1; fill:none" points="
  1658.19,1600 1658.19,200 
  "/>
<polyline clip-path="url(#clip390)" style="stroke:#ededed; stroke-width:4; stroke-opacity:1; fill:none" points="
  1672.17,1600 1672.17,200 
  "/>
<polyline clip-path="url(#clip390)" style="stroke:#ededed; stroke-width:4; stroke-opacity:1; fill:none" points="
  1684.68,1600 1684.68,200 
  "/>
<polyline clip-path="url(#clip390)" style="stroke:#cccccc; stroke-width:4; stroke-opacity:1; fill:none" points="
  1684.68,1600 1684.68,200 
  "/>
<polyline clip-path="url(#clip390)" style="stroke:#ededed; stroke-width:4; stroke-opacity:1; fill:none" points="
  1766.98,1600 1766.98,200 
  "/>
<path clip-path="url(#clip390)" d="M 0 0 Mnan nan Qnan nan nan nan Qnan nan nan nan Qnan nan nan nan Qnan nan nan nan Qnan nan nan nan Qnan nan nan nan Qnan nan nan nan Qnan nan nan nan Qnan nan nan nan Qnan nan nan nan Qnan nan nan nan Mnan nan Qnan nan nan nan Qnan nan nan nan Qnan nan nan nan Qnan nan nan nan Qnan nan nan nan Qnan nan nan nan Qnan nan nan nan Qnan nan nan nan Qnan nan nan nan Qnan nan nan nan Qnan nan nan nan Qnan nan nan nan Qnan nan nan nan Qnan nan nan nan Z" fill="#000000" fill-rule="evenodd" fill-opacity="1" /><path clip-path="url(#clip390)" d="M 0 0 Mnan nan Qnan nan nan nan Qnan nan nan nan Qnan nan nan nan Qnan nan nan nan Qnan nan nan nan Qnan nan nan nan Qnan nan nan nan Qnan nan nan nan Qnan nan nan nan Qnan nan nan nan Qnan nan nan nan Qnan nan nan nan Qnan nan nan nan Qnan nan nan nan Qnan nan nan nan Qnan nan nan nan Qnan nan nan nan Lnan nan Qnan nan nan nan Qnan nan nan nan Qnan nan nan nan Qnan nan nan nan Qnan nan nan nan Qnan nan nan nan Qnan nan nan nan Qnan nan nan nan Qnan nan nan nan Qnan nan nan nan Qnan nan nan nan Qnan nan nan nan Lnan nan Qnan nan nan nan Qnan nan nan nan Qnan nan nan nan Qnan nan nan nan Qnan nan nan nan Qnan nan nan nan Qnan nan nan nan Z" fill="#000000" fill-rule="evenodd" fill-opacity="1" /><path clip-path="url(#clip390)" d="M 0 0 Mnan nan Qnan nan nan nan Qnan nan nan nan Qnan nan nan nan Qnan nan nan nan Qnan nan nan nan Qnan nan nan nan Qnan nan nan nan Qnan nan nan nan Qnan nan nan nan Qnan nan nan nan Qnan nan nan nan Mnan nan Qnan nan nan nan Qnan nan nan nan Qnan nan nan nan Qnan nan nan nan Qnan nan nan nan Qnan nan nan nan Qnan nan nan nan Qnan nan nan nan Qnan nan nan nan Qnan nan nan nan Qnan nan nan nan Qnan nan nan nan Qnan nan nan nan Qnan nan nan nan Z" fill="#000000" fill-rule="evenodd" fill-opacity="1" /><path clip-path="url(#clip390)" d="M 0 0 Mnan nan Qnan nan nan nan Qnan nan nan nan Qnan nan nan nan Qnan nan nan nan Qnan nan nan nan Qnan nan nan nan Qnan nan nan nan Qnan nan nan nan Qnan nan nan nan Qnan nan nan nan Qnan nan nan nan Mnan nan Qnan nan nan nan Qnan nan nan nan Qnan nan nan nan Qnan nan nan nan Qnan nan nan nan Qnan nan nan nan Qnan nan nan nan Qnan nan nan nan Qnan nan nan nan Qnan nan nan nan Qnan nan nan nan Qnan nan nan nan Qnan nan nan nan Qnan nan nan nan Z" fill="#000000" fill-rule="evenodd" fill-opacity="1" /><path clip-path="url(#clip390)" d="M 0 0 Mnan nan Lnan nan Qnan nan nan nan Qnan nan nan nan Qnan nan nan nan Lnan nan Qnan nan nan nan Qnan nan nan nan Lnan nan Lnan nan Qnan nan nan nan Qnan nan nan nan Lnan nan Lnan nan Qnan nan nan nan Qnan nan nan nan Lnan nan Qnan nan nan nan Z" fill="#000000" fill-rule="evenodd" fill-opacity="1" /><path clip-path="url(#clip390)" d="M 0 0 Mnan nan Qnan nan nan nan Qnan nan nan nan Qnan nan nan nan Qnan nan nan nan Qnan nan nan nan Qnan nan nan nan Qnan nan nan nan Qnan nan nan nan Qnan nan nan nan Qnan nan nan nan Qnan nan nan nan Mnan nan Qnan nan nan nan Qnan nan nan nan Qnan nan nan nan Qnan nan nan nan Qnan nan nan nan Qnan nan nan nan Qnan nan nan nan Qnan nan nan nan Qnan nan nan nan Qnan nan nan nan Qnan nan nan nan Qnan nan nan nan Qnan nan nan nan Qnan nan nan nan Z" fill="#000000" fill-rule="evenodd" fill-opacity="1" /><path clip-path="url(#clip390)" d="M 0 0 Mnan nan Qnan nan nan nan Qnan nan nan nan Qnan nan nan nan Qnan nan nan nan Qnan nan nan nan Qnan nan nan nan Qnan nan nan nan Qnan nan nan nan Qnan nan nan nan Qnan nan nan nan Qnan nan nan nan Mnan nan Qnan nan nan nan Qnan nan nan nan Qnan nan nan nan Qnan nan nan nan Qnan nan nan nan Qnan nan nan nan Qnan nan nan nan Qnan nan nan nan Qnan nan nan nan Qnan nan nan nan Qnan nan nan nan Qnan nan nan nan Qnan nan nan nan Qnan nan nan nan Z" fill="#000000" fill-rule="evenodd" fill-opacity="1" /><path clip-path="url(#clip390)" d="M 0 0 Mnan nan Qnan nan nan nan Qnan nan nan nan Qnan nan nan nan Qnan nan nan nan Qnan nan nan nan Qnan nan nan nan Qnan nan nan nan Qnan nan nan nan Qnan nan nan nan Qnan nan nan nan Qnan nan nan nan Mnan nan Qnan nan nan nan Qnan nan nan nan Qnan nan nan nan Qnan nan nan nan Qnan nan nan nan Qnan nan nan nan Qnan nan nan nan Qnan nan nan nan Qnan nan nan nan Qnan nan nan nan Qnan nan nan nan Qnan nan nan nan Qnan nan nan nan Qnan nan nan nan Z" fill="#000000" fill-rule="evenodd" fill-opacity="1" /><polyline clip-path="url(#clip390)" style="stroke:#000000; stroke-width:4; stroke-opacity:1; fill:none" points="
  400,1600 400,1600 nan,nan 400,1600 400,1472.73 nan,nan 400,1472.73 400,1345.45 nan,nan 400,1345.45 
  400,1218.18 nan,nan 400,1218.18 400,1090.91 nan,nan 400,1090.91 400,963.636 nan,nan 400,963.636 400,836.364 
  nan,nan 400,836.364 400,709.091 nan,nan 400,709.091 400,581.818 nan,nan 400,581.818 400,454.545 nan,nan 
  400,454.545 400,327.273 nan,nan 400,327.273 400,200 nan,nan 400,200 
  "/>
<path clip-path="url(#clip390)" d="M 0 0 M-nan -nan L-nan -nan Q-nan -nan -nan -nan Q-nan -nan -nan -nan Q-nan -nan -nan -nan L-nan -nan Q-nan -nan -nan -nan Q-nan -nan -nan -nan L-nan -nan L-nan -nan Q-nan -nan -nan -nan Q-nan -nan -nan -nan L-nan -nan L-nan -nan Q-nan -nan -nan -nan Q-nan -nan -nan -nan L-nan -nan Q-nan -nan -nan -nan Z" fill="#000000" fill-rule="evenodd" fill-opacity="1" /><path clip-path="url(#clip390)" d="M 0 0 M-nan -nan Q-nan -nan -nan -nan Q-nan -nan -nan -nan Q-nan -nan -nan -nan Q-nan -nan -nan -nan Q-nan -nan -nan -nan Q-nan -nan -nan -nan Q-nan -nan -nan -nan Q-nan -nan -nan -nan Q-nan -nan -nan -nan Q-nan -nan -nan -nan Q-nan -nan -nan -nan M-nan -nan Q-nan -nan -nan -nan Q-nan -nan -nan -nan Q-nan -nan -nan -nan Q-nan -nan -nan -nan Q-nan -nan -nan -nan Q-nan -nan -nan -nan Q-nan -nan -nan -nan Q-nan -nan -nan -nan Q-nan -nan -nan -nan Q-nan -nan -nan -nan Q-nan -nan -nan -nan Q-nan -nan -nan -nan Q-nan -nan -nan -nan Q-nan -nan -nan -nan Z" fill="#000000" fill-rule="evenodd" fill-opacity="1" /><path clip-path="url(#clip390)" d="M 0 0 M-nan -nan L-nan -nan Q-nan -nan -nan -nan Q-nan -nan -nan -nan Q-nan -nan -nan -nan L-nan -nan Q-nan -nan -nan -nan Q-nan -nan -nan -nan L-nan -nan L-nan -nan Q-nan -nan -nan -nan Q-nan -nan -nan -nan L-nan -nan L-nan -nan Q-nan -nan -nan -nan Q-nan -nan -nan -nan L-nan -nan Q-nan -nan -nan -nan Z" fill="#000000" fill-rule="evenodd" fill-opacity="1" /><path clip-path="url(#clip390)" d="M 0 0 M-nan -nan L-nan -nan Q-nan -nan -nan -nan Q-nan -nan -nan -nan Q-nan -nan -nan -nan L-nan -nan Q-nan -nan -nan -nan Q-nan -nan -nan -nan L-nan -nan L-nan -nan Q-nan -nan -nan -nan Q-nan -nan -nan -nan L-nan -nan L-nan -nan Q-nan -nan -nan -nan Q-nan -nan -nan -nan L-nan -nan Q-nan -nan -nan -nan Z" fill="#000000" fill-rule="evenodd" fill-opacity="1" /><path clip-path="url(#clip390)" d="M 0 0 M-nan -nan Q-nan -nan -nan -nan Q-nan -nan -nan -nan Q-nan -nan -nan -nan Q-nan -nan -nan -nan Q-nan -nan -nan -nan Q-nan -nan -nan -nan Q-nan -nan -nan -nan Q-nan -nan -nan -nan Q-nan -nan -nan -nan Q-nan -nan -nan -nan Q-nan -nan -nan -nan M-nan -nan Q-nan -nan -nan -nan Q-nan -nan -nan -nan Q-nan -nan -nan -nan Q-nan -nan -nan -nan Q-nan -nan -nan -nan Q-nan -nan -nan -nan Q-nan -nan -nan -nan Q-nan -nan -nan -nan Q-nan -nan -nan -nan Q-nan -nan -nan -nan Q-nan -nan -nan -nan Q-nan -nan -nan -nan Q-nan -nan -nan -nan Q-nan -nan -nan -nan Z" fill="#000000" fill-rule="evenodd" fill-opacity="1" /><path clip-path="url(#clip390)" d="M 0 0 M-nan -nan Q-nan -nan -nan -nan Q-nan -nan -nan -nan L-nan -nan Q-nan -nan -nan -nan Q-nan -nan -nan -nan Q-nan -nan -nan -nan Q-nan -nan -nan -nan Q-nan -nan -nan -nan Q-nan -nan -nan -nan Q-nan -nan -nan -nan Q-nan -nan -nan -nan Q-nan -nan -nan -nan Q-nan -nan -nan -nan Q-nan -nan -nan -nan Q-nan -nan -nan -nan Q-nan -nan -nan -nan Q-nan -nan -nan -nan Q-nan -nan -nan -nan Q-nan -nan -nan -nan Q-nan -nan -nan -nan Q-nan -nan -nan -nan Q-nan -nan -nan -nan Q-nan -nan -nan -nan Q-nan -nan -nan -nan Q-nan -nan -nan -nan L-nan -nan L-nan -nan Q-nan -nan -nan -nan Q-nan -nan -nan -nan L-nan -nan L-nan -nan L-nan -nan Z" fill="#000000" fill-rule="evenodd" fill-opacity="1" /><path clip-path="url(#clip390)" d="M 0 0 M-nan -nan L-nan -nan Q-nan -nan -nan -nan Q-nan -nan -nan -nan Q-nan -nan -nan -nan L-nan -nan Q-nan -nan -nan -nan Q-nan -nan -nan -nan L-nan -nan L-nan -nan Q-nan -nan -nan -nan Q-nan -nan -nan -nan L-nan -nan L-nan -nan Q-nan -nan -nan -nan Q-nan -nan -nan -nan L-nan -nan Q-nan -nan -nan -nan Z" fill="#000000" fill-rule="evenodd" fill-opacity="1" /><path clip-path="url(#clip390)" d="M 0 0 M-nan -nan Q-nan -nan -nan -nan Q-nan -nan -nan -nan Q-nan -nan -nan -nan Q-nan -nan -nan -nan Q-nan -nan -nan -nan Q-nan -nan -nan -nan Q-nan -nan -nan -nan Q-nan -nan -nan -nan Q-nan -nan -nan -nan Q-nan -nan -nan -nan Q-nan -nan -nan -nan M-nan -nan Q-nan -nan -nan -nan Q-nan -nan -nan -nan Q-nan -nan -nan -nan Q-nan -nan -nan -nan Q-nan -nan -nan -nan Q-nan -nan -nan -nan Q-nan -nan -nan -nan Q-nan -nan -nan -nan Q-nan -nan -nan -nan Q-nan -nan -nan -nan Q-nan -nan -nan -nan Q-nan -nan -nan -nan Q-nan -nan -nan -nan Q-nan -nan -nan -nan Z" fill="#000000" fill-rule="evenodd" fill-opacity="1" /><path clip-path="url(#clip390)" d="M 0 0 M-nan -nan Q-nan -nan -nan -nan Q-nan -nan -nan -nan Q-nan -nan -nan -nan Q-nan -nan -nan -nan Q-nan -nan -nan -nan Q-nan -nan -nan -nan Q-nan -nan -nan -nan Q-nan -nan -nan -nan Q-nan -nan -nan -nan Q-nan -nan -nan -nan Q-nan -nan -nan -nan Q-nan -nan -nan -nan L-nan -nan Q-nan -nan -nan -nan Q-nan -nan -nan -nan Q-nan -nan -nan -nan Q-nan -nan -nan -nan Q-nan -nan -nan -nan Q-nan -nan -nan -nan Q-nan -nan -nan -nan Q-nan -nan -nan -nan Q-nan -nan -nan -nan Q-nan -nan -nan -nan Q-nan -nan -nan -nan Q-nan -nan -nan -nan Q-nan -nan -nan -nan Q-nan -nan -nan -nan Q-nan -nan -nan -nan Q-nan -nan -nan -nan Q-nan -nan -nan -nan Q-nan -nan -nan -nan Q-nan -nan -nan -nan Q-nan -nan -nan -nan Q-nan -nan -nan -nan Q-nan -nan -nan -nan Q-nan -nan -nan -nan Q-nan -nan -nan -nan Q-nan -nan -nan -nan Q-nan -nan -nan -nan Q-nan -nan -nan -nan Z" fill="#000000" fill-rule="evenodd" fill-opacity="1" /><path clip-path="url(#clip390)" d="M 0 0 M-nan -nan L-nan -nan Q-nan -nan -nan -nan Q-nan -nan -nan -nan Q-nan -nan -nan -nan L-nan -nan Q-nan -nan -nan -nan Q-nan -nan -nan -nan L-nan -nan L-nan -nan Q-nan -nan -nan -nan Q-nan -nan -nan -nan L-nan -nan L-nan -nan Q-nan -nan -nan -nan Q-nan -nan -nan -nan L-nan -nan Q-nan -nan -nan -nan Z" fill="#000000" fill-rule="evenodd" fill-opacity="1" /><path clip-path="url(#clip390)" d="M 0 0 M-nan -nan Q-nan -nan -nan -nan Q-nan -nan -nan -nan Q-nan -nan -nan -nan Q-nan -nan -nan -nan Q-nan -nan -nan -nan Q-nan -nan -nan -nan Q-nan -nan -nan -nan Q-nan -nan -nan -nan Q-nan -nan -nan -nan Q-nan -nan -nan -nan Q-nan -nan -nan -nan M-nan -nan Q-nan -nan -nan -nan Q-nan -nan -nan -nan Q-nan -nan -nan -nan Q-nan -nan -nan -nan Q-nan -nan -nan -nan Q-nan -nan -nan -nan Q-nan -nan -nan -nan Q-nan -nan -nan -nan Q-nan -nan -nan -nan Q-nan -nan -nan -nan Q-nan -nan -nan -nan Q-nan -nan -nan -nan Q-nan -nan -nan -nan Q-nan -nan -nan -nan Z" fill="#000000" fill-rule="evenodd" fill-opacity="1" /><path clip-path="url(#clip390)" d="M 0 0 M-nan -nan L-nan -nan L-nan -nan Q-nan -nan -nan -nan Q-nan -nan -nan -nan Q-nan -nan -nan -nan L-nan -nan L-nan -nan L-nan -nan L-nan -nan L-nan -nan Q-nan -nan -nan -nan Q-nan -nan -nan -nan L-nan -nan L-nan -nan Q-nan -nan -nan -nan Q-nan -nan -nan -nan L-nan -nan L-nan -nan Q-nan -nan -nan -nan Q-nan -nan -nan -nan L-nan -nan L-nan -nan M-nan -nan L-nan -nan L-nan -nan L-nan -nan Z" fill="#000000" fill-rule="evenodd" fill-opacity="1" /><path clip-path="url(#clip390)" d="M 0 0 M-nan -nan L-nan -nan Q-nan -nan -nan -nan Q-nan -nan -nan -nan Q-nan -nan -nan -nan L-nan -nan Q-nan -nan -nan -nan Q-nan -nan -nan -nan L-nan -nan L-nan -nan Q-nan -nan -nan -nan Q-nan -nan -nan -nan L-nan -nan L-nan -nan Q-nan -nan -nan -nan Q-nan -nan -nan -nan L-nan -nan Q-nan -nan -nan -nan Z" fill="#000000" fill-rule="evenodd" fill-opacity="1" /><path clip-path="url(#clip390)" d="M 0 0 M-nan -nan Q-nan -nan -nan -nan Q-nan -nan -nan -nan Q-nan -nan -nan -nan Q-nan -nan -nan -nan Q-nan -nan -nan -nan Q-nan -nan -nan -nan Q-nan -nan -nan -nan Q-nan -nan -nan -nan Q-nan -nan -nan -nan Q-nan -nan -nan -nan Q-nan -nan -nan -nan M-nan -nan Q-nan -nan -nan -nan Q-nan -nan -nan -nan Q-nan -nan -nan -nan Q-nan -nan -nan -nan Q-nan -nan -nan -nan Q-nan -nan -nan -nan Q-nan -nan -nan -nan Q-nan -nan -nan -nan Q-nan -nan -nan -nan Q-nan -nan -nan -nan Q-nan -nan -nan -nan Q-nan -nan -nan -nan Q-nan -nan -nan -nan Q-nan -nan -nan -nan Z" fill="#000000" fill-rule="evenodd" fill-opacity="1" /><path clip-path="url(#clip390)" d="M 0 0 M-nan -nan Q-nan -nan -nan -nan Q-nan -nan -nan -nan Q-nan -nan -nan -nan Q-nan -nan -nan -nan Q-nan -nan -nan -nan Q-nan -nan -nan -nan Q-nan -nan -nan -nan Q-nan -nan -nan -nan Q-nan -nan -nan -nan Q-nan -nan -nan -nan Q-nan -nan -nan -nan Q-nan -nan -nan -nan Q-nan -nan -nan -nan Q-nan -nan -nan -nan Q-nan -nan -nan -nan Q-nan -nan -nan -nan Q-nan -nan -nan -nan L-nan -nan Q-nan -nan -nan -nan Q-nan -nan -nan -nan Q-nan -nan -nan -nan Q-nan -nan -nan -nan Q-nan -nan -nan -nan Q-nan -nan -nan -nan Q-nan -nan -nan -nan Q-nan -nan -nan -nan Q-nan -nan -nan -nan Q-nan -nan -nan -nan Q-nan -nan -nan -nan Q-nan -nan -nan -nan L-nan -nan Q-nan -nan -nan -nan Q-nan -nan -nan -nan Q-nan -nan -nan -nan Q-nan -nan -nan -nan Q-nan -nan -nan -nan Q-nan -nan -nan -nan Q-nan -nan -nan -nan Z" fill="#000000" fill-rule="evenodd" fill-opacity="1" /><polyline clip-path="url(#clip390)" style="stroke:#000000; stroke-width:4; stroke-opacity:1; fill:none" points="
  400,1600 400,1600 -nan,-nan 400,1600 448.143,1600 -nan,-nan 448.143,1600 482.301,1600 -nan,-nan 482.301,1600 
  508.796,1600 -nan,-nan 508.796,1600 530.443,1600 -nan,-nan 530.443,1600 548.746,1600 -nan,-nan 548.746,1600 564.601,1600 
  -nan,-nan 564.601,1600 578.586,1600 -nan,-nan 578.586,1600 591.096,1600 -nan,-nan 591.096,1600 -nan,-nan 
  591.096,1600 673.397,1600 -nan,-nan 673.397,1600 721.54,1600 -nan,-nan 721.54,1600 755.697,1600 -nan,-nan 755.697,1600 
  782.192,1600 -nan,-nan 782.192,1600 803.84,1600 -nan,-nan 803.84,1600 822.143,1600 -nan,-nan 822.143,1600 837.998,1600 
  -nan,-nan 837.998,1600 851.983,1600 -nan,-nan 851.983,1600 864.493,1600 -nan,-nan 864.493,1600 -nan,-nan 
  864.493,1600 946.794,1600 -nan,-nan 946.794,1600 994.936,1600 -nan,-nan 994.936,1600 1029.09,1600 -nan,-nan 1029.09,1600 
  1055.59,1600 -nan,-nan 1055.59,1600 1077.24,1600 -nan,-nan 1077.24,1600 1095.54,1600 -nan,-nan 1095.54,1600 1111.39,1600 
  -nan,-nan 1111.39,1600 1125.38,1600 -nan,-nan 1125.38,1600 1137.89,1600 -nan,-nan 1137.89,1600 -nan,-nan 
  1137.89,1600 1220.19,1600 -nan,-nan 1220.19,1600 1268.33,1600 -nan,-nan 1268.33,1600 1302.49,1600 -nan,-nan 1302.49,1600 
  1328.99,1600 -nan,-nan 1328.99,1600 1350.63,1600 -nan,-nan 1350.63,1600 1368.94,1600 -nan,-nan 1368.94,1600 1384.79,1600 
  -nan,-nan 1384.79,1600 1398.78,1600 -nan,-nan 1398.78,1600 1411.29,1600 -nan,-nan 1411.29,1600 -nan,-nan 
  1411.29,1600 1493.59,1600 -nan,-nan 1493.59,1600 1541.73,1600 -nan,-nan 1541.73,1600 1575.89,1600 -nan,-nan 1575.89,1600 
  1602.38,1600 -nan,-nan 1602.38,1600 1624.03,1600 -nan,-nan 1624.03,1600 1642.33,1600 -nan,-nan 1642.33,1600 1658.19,1600 
  -nan,-nan 1658.19,1600 1672.17,1600 -nan,-nan 1672.17,1600 1684.68,1600 -nan,-nan 1684.68,1600 -nan,-nan 
  1684.68,1600 1766.98,1600 -nan,-nan 1766.98,1600 1800,1600 
  "/>
<polyline clip-path="url(#clip390)" style="stroke:#000000; stroke-width:4; stroke-opacity:1; fill:none" points="
  1800,1600 1800,1600 nan,nan 1800,1600 1800,1472.73 nan,nan 1800,1472.73 1800,1345.45 nan,nan 1800,1345.45 
  1800,1218.18 nan,nan 1800,1218.18 1800,1090.91 nan,nan 1800,1090.91 1800,963.636 nan,nan 1800,963.636 1800,836.364 
  nan,nan 1800,836.364 1800,709.091 nan,nan 1800,709.091 1800,581.818 nan,nan 1800,581.818 1800,454.545 nan,nan 
  1800,454.545 1800,327.273 nan,nan 1800,327.273 1800,200 nan,nan 1800,200 
  "/>
<polyline clip-path="url(#clip390)" style="stroke:#000000; stroke-width:4; stroke-opacity:1; fill:none" points="
  400,200 400,200 nan,nan 400,200 448.143,200 nan,nan 448.143,200 482.301,200 nan,nan 482.301,200 
  508.796,200 nan,nan 508.796,200 530.443,200 nan,nan 530.443,200 548.746,200 nan,nan 548.746,200 564.601,200 
  nan,nan 564.601,200 578.586,200 nan,nan 578.586,200 591.096,200 nan,nan 591.096,200 nan,nan 
  591.096,200 673.397,200 nan,nan 673.397,200 721.54,200 nan,nan 721.54,200 755.697,200 nan,nan 755.697,200 
  782.192,200 nan,nan 782.192,200 803.84,200 nan,nan 803.84,200 822.143,200 nan,nan 822.143,200 837.998,200 
  nan,nan 837.998,200 851.983,200 nan,nan 851.983,200 864.493,200 nan,nan 864.493,200 nan,nan 
  864.493,200 946.794,200 nan,nan 946.794,200 994.936,200 nan,nan 994.936,200 1029.09,200 nan,nan 1029.09,200 
  1055.59,200 nan,nan 1055.59,200 1077.24,200 nan,nan 1077.24,200 1095.54,200 nan,nan 1095.54,200 1111.39,200 
  nan,nan 1111.39,200 1125.38,200 nan,nan 1125.38,200 1137.89,200 nan,nan 1137.89,200 nan,nan 
  1137.89,200 1220.19,200 nan,nan 1220.19,200 1268.33,200 nan,nan 1268.33,200 1302.49,200 nan,nan 1302.49,200 
  1328.99,200 nan,nan 1328.99,200 1350.63,200 nan,nan 1350.63,200 1368.94,200 nan,nan 1368.94,200 1384.79,200 
  nan,nan 1384.79,200 1398.78,200 nan,nan 1398.78,200 1411.29,200 nan,nan 1411.29,200 nan,nan 
  1411.29,200 1493.59,200 nan,nan 1493.59,200 1541.73,200 nan,nan 1541.73,200 1575.89,200 nan,nan 1575.89,200 
  1602.38,200 nan,nan 1602.38,200 1624.03,200 nan,nan 1624.03,200 1642.33,200 nan,nan 1642.33,200 1658.19,200 
  nan,nan 1658.19,200 1672.17,200 nan,nan 1672.17,200 1684.68,200 nan,nan 1684.68,200 nan,nan 
  1684.68,200 1766.98,200 nan,nan 1766.98,200 1800,200 
  "/>
<path clip-path="url(#clip391)" d="
M400 1600 L507.692 1600 L507.692 1592.36 L400 1592.36  Z
  " fill="#00528a" fill-rule="evenodd" fill-opacity="1"/>
<polyline clip-path="url(#clip391)" style="stroke:#000000; stroke-width:4; stroke-opacity:1; fill:none" points="
  400,1600 507.692,1600 507.692,1592.36 400,1592.36 400,1600
  "/>
<path clip-path="url(#clip391)" d="
M507.692 1600 L615.385 1600 L615.385 1561.82 L507.692 1561.82  Z
  " fill="#00528a" fill-rule="evenodd" fill-opacity="1"/>
<polyline clip-path="url(#clip391)" style="stroke:#000000; stroke-width:4; stroke-opacity:1; fill:none" points="
  507.692,1600 615.385,1600 615.385,1561.82 507.692,1561.82 507.692,1600
  "/>
<path clip-path="url(#clip391)" d="
M615.385 1600 L723.077 1600 L723.077 1491.82 L615.385 1491.82  Z
  " fill="#00528a" fill-rule="evenodd" fill-opacity="1"/>
<polyline clip-path="url(#clip391)" style="stroke:#000000; stroke-width:4; stroke-opacity:1; fill:none" points="
  615.385,1600 723.077,1600 723.077,1491.82 615.385,1491.82 615.385,1600
  "/>
<path clip-path="url(#clip391)" d="
M723.077 1600 L830.769 1600 L830.769 1255.09 L723.077 1255.09  Z
  " fill="#00528a" fill-rule="evenodd" fill-opacity="1"/>
<polyline clip-path="url(#clip391)" style="stroke:#000000; stroke-width:4; stroke-opacity:1; fill:none" points="
  723.077,1600 830.769,1600 830.769,1255.09 723.077,1255.09 723.077,1600
  "/>
<path clip-path="url(#clip391)" d="
M830.769 1600 L938.462 1600 L938.462 774 L830.769 774  Z
  " fill="#00528a" fill-rule="evenodd" fill-opacity="1"/>
<polyline clip-path="url(#clip391)" style="stroke:#000000; stroke-width:4; stroke-opacity:1; fill:none" points="
  830.769,1600 938.462,1600 938.462,774 830.769,774 830.769,1600
  "/>
<path clip-path="url(#clip391)" d="
M938.462 1600 L1046.15 1600 L1046.15 270 L938.462 270  Z
  " fill="#00528a" fill-rule="evenodd" fill-opacity="1"/>
<polyline clip-path="url(#clip391)" style="stroke:#000000; stroke-width:4; stroke-opacity:1; fill:none" points="
  938.462,1600 1046.15,1600 1046.15,270 938.462,270 938.462,1600
  "/>
<path clip-path="url(#clip391)" d="
M1046.15 1600 L1153.85 1600 L1153.85 266.182 L1046.15 266.182  Z
  " fill="#00528a" fill-rule="evenodd" fill-opacity="1"/>
<polyline clip-path="url(#clip391)" style="stroke:#000000; stroke-width:4; stroke-opacity:1; fill:none" points="
  1046.15,1600 1153.85,1600 1153.85,266.182 1046.15,266.182 1046.15,1600
  "/>
<path clip-path="url(#clip391)" d="
M1153.85 1600 L1261.54 1600 L1261.54 631.455 L1153.85 631.455  Z
  " fill="#00528a" fill-rule="evenodd" fill-opacity="1"/>
<polyline clip-path="url(#clip391)" style="stroke:#000000; stroke-width:4; stroke-opacity:1; fill:none" points="
  1153.85,1600 1261.54,1600 1261.54,631.455 1153.85,631.455 1153.85,1600
  "/>
<path clip-path="url(#clip391)" d="
M1261.54 1600 L1369.23 1600 L1369.23 1126.55 L1261.54 1126.55  Z
  " fill="#00528a" fill-rule="evenodd" fill-opacity="1"/>
<polyline clip-path="url(#clip391)" style="stroke:#000000; stroke-width:4; stroke-opacity:1; fill:none" points="
  1261.54,1600 1369.23,1600 1369.23,1126.55 1261.54,1126.55 1261.54,1600
  "/>
<path clip-path="url(#clip391)" d="
M1369.23 1600 L1476.92 1600 L1476.92 1457.45 L1369.23 1457.45  Z
  " fill="#00528a" fill-rule="evenodd" fill-opacity="1"/>
<polyline clip-path="url(#clip391)" style="stroke:#000000; stroke-width:4; stroke-opacity:1; fill:none" points="
  1369.23,1600 1476.92,1600 1476.92,1457.45 1369.23,1457.45 1369.23,1600
  "/>
<path clip-path="url(#clip391)" d="
M1476.92 1600 L1584.62 1600 L1584.62 1566.91 L1476.92 1566.91  Z
  " fill="#00528a" fill-rule="evenodd" fill-opacity="1"/>
<polyline clip-path="url(#clip391)" style="stroke:#000000; stroke-width:4; stroke-opacity:1; fill:none" points="
  1476.92,1600 1584.62,1600 1584.62,1566.91 1476.92,1566.91 1476.92,1600
  "/>
<path clip-path="url(#clip391)" d="
M1584.62 1600 L1692.31 1600 L1692.31 1592.36 L1584.62 1592.36  Z
  " fill="#00528a" fill-rule="evenodd" fill-opacity="1"/>
<polyline clip-path="url(#clip391)" style="stroke:#000000; stroke-width:4; stroke-opacity:1; fill:none" points="
  1584.62,1600 1692.31,1600 1692.31,1592.36 1584.62,1592.36 1584.62,1600
  "/>
<path clip-path="url(#clip391)" d="
M1692.31 1600 L1800 1600 L1800 1594.91 L1692.31 1594.91  Z
  " fill="#00528a" fill-rule="evenodd" fill-opacity="1"/>
<polyline clip-path="url(#clip391)" style="stroke:#000000; stroke-width:4; stroke-opacity:1; fill:none" points="
  1692.31,1600 1800,1600 1800,1594.91 1692.31,1594.91 1692.31,1600
  "/>
<path clip-path="url(#clip390)" d="M 0 0 M-nan -nan L-nan -nan L-nan -nan Q-nan -nan -nan -nan Q-nan -nan -nan -nan L-nan -nan Q-nan -nan -nan -nan Q-nan -nan -nan -nan L-nan -nan L-nan -nan Q-nan -nan -nan -nan Q-nan -nan -nan -nan L-nan -nan L-nan -nan Q-nan -nan -nan -nan Q-nan -nan -nan -nan Q-nan -nan -nan -nan L-nan -nan Q-nan -nan -nan -nan Q-nan -nan -nan -nan L-nan -nan Q-nan -nan -nan -nan Q-nan -nan -nan -nan Q-nan -nan -nan -nan Q-nan -nan -nan -nan Q-nan -nan -nan -nan L-nan -nan L-nan -nan L-nan -nan Z" fill="#000000" fill-rule="evenodd" fill-opacity="1" /><path clip-path="url(#clip390)" d="M 0 0 M-nan -nan L-nan -nan Q-nan -nan -nan -nan Q-nan -nan -nan -nan L-nan -nan Q-nan -nan -nan -nan Q-nan -nan -nan -nan L-nan -nan L-nan -nan L-nan -nan Q-nan -nan -nan -nan Q-nan -nan -nan -nan L-nan -nan Q-nan -nan -nan -nan Q-nan -nan -nan -nan M-nan -nan Q-nan -nan -nan -nan Q-nan -nan -nan -nan Q-nan -nan -nan -nan Q-nan -nan -nan -nan Q-nan -nan -nan -nan Q-nan -nan -nan -nan Q-nan -nan -nan -nan Q-nan -nan -nan -nan Z" fill="#000000" fill-rule="evenodd" fill-opacity="1" /><path clip-path="url(#clip390)" d="M 0 0 M-nan -nan L-nan -nan Q-nan -nan -nan -nan Q-nan -nan -nan -nan L-nan -nan Q-nan -nan -nan -nan Q-nan -nan -nan -nan L-nan -nan L-nan -nan L-nan -nan Q-nan -nan -nan -nan Q-nan -nan -nan -nan Q-nan -nan -nan -nan Q-nan -nan -nan -nan L-nan -nan Q-nan -nan -nan -nan Q-nan -nan -nan -nan L-nan -nan Q-nan -nan -nan -nan Q-nan -nan -nan -nan L-nan -nan Q-nan -nan -nan -nan Q-nan -nan -nan -nan L-nan -nan Q-nan -nan -nan -nan Q-nan -nan -nan -nan Q-nan -nan -nan -nan Q-nan -nan -nan -nan L-nan -nan Q-nan -nan -nan -nan Q-nan -nan -nan -nan L-nan -nan Q-nan -nan -nan -nan Q-nan -nan -nan -nan Z" fill="#000000" fill-rule="evenodd" fill-opacity="1" /><path clip-path="url(#clip390)" d="M 0 0 M-nan -nan Q-nan -nan -nan -nan Q-nan -nan -nan -nan Q-nan -nan -nan -nan Q-nan -nan -nan -nan Q-nan -nan -nan -nan Q-nan -nan -nan -nan L-nan -nan Q-nan -nan -nan -nan Q-nan -nan -nan -nan Q-nan -nan -nan -nan Q-nan -nan -nan -nan Q-nan -nan -nan -nan Q-nan -nan -nan -nan Q-nan -nan -nan -nan Q-nan -nan -nan -nan Q-nan -nan -nan -nan Q-nan -nan -nan -nan Q-nan -nan -nan -nan Q-nan -nan -nan -nan Q-nan -nan -nan -nan Q-nan -nan -nan -nan M-nan -nan L-nan -nan Q-nan -nan -nan -nan Q-nan -nan -nan -nan Q-nan -nan -nan -nan Q-nan -nan -nan -nan Q-nan -nan -nan -nan Q-nan -nan -nan -nan Q-nan -nan -nan -nan Q-nan -nan -nan -nan Z" fill="#000000" fill-rule="evenodd" fill-opacity="1" /><path clip-path="url(#clip390)" d="M 0 0 M-nan -nan L-nan -nan Q-nan -nan -nan -nan Q-nan -nan -nan -nan Q-nan -nan -nan -nan Q-nan -nan -nan -nan Q-nan -nan -nan -nan Q-nan -nan -nan -nan Q-nan -nan -nan -nan Q-nan -nan -nan -nan Q-nan -nan -nan -nan Q-nan -nan -nan -nan Q-nan -nan -nan -nan Q-nan -nan -nan -nan Q-nan -nan -nan -nan Q-nan -nan -nan -nan Q-nan -nan -nan -nan Q-nan -nan -nan -nan Q-nan -nan -nan -nan Q-nan -nan -nan -nan Q-nan -nan -nan -nan Q-nan -nan -nan -nan L-nan -nan Q-nan -nan -nan -nan Q-nan -nan -nan -nan Q-nan -nan -nan -nan Q-nan -nan -nan -nan Q-nan -nan -nan -nan Q-nan -nan -nan -nan Q-nan -nan -nan -nan Q-nan -nan -nan -nan Q-nan -nan -nan -nan Q-nan -nan -nan -nan Q-nan -nan -nan -nan Q-nan -nan -nan -nan Q-nan -nan -nan -nan Q-nan -nan -nan -nan Q-nan -nan -nan -nan Q-nan -nan -nan -nan Q-nan -nan -nan -nan Q-nan -nan -nan -nan Q-nan -nan -nan -nan Q-nan -nan -nan -nan Q-nan -nan -nan -nan Q-nan -nan -nan -nan Q-nan -nan -nan -nan Q-nan -nan -nan -nan Z" fill="#000000" fill-rule="evenodd" fill-opacity="1" /><path clip-path="url(#clip390)" d="M 0 0 M-nan -nan Q-nan -nan -nan -nan Q-nan -nan -nan -nan Q-nan -nan -nan -nan Q-nan -nan -nan -nan Q-nan -nan -nan -nan Q-nan -nan -nan -nan Q-nan -nan -nan -nan Q-nan -nan -nan -nan M-nan -nan Q-nan -nan -nan -nan Q-nan -nan -nan -nan Q-nan -nan -nan -nan Q-nan -nan -nan -nan Q-nan -nan -nan -nan Q-nan -nan -nan -nan Q-nan -nan -nan -nan Q-nan -nan -nan -nan Q-nan -nan -nan -nan Q-nan -nan -nan -nan Z" fill="#000000" fill-rule="evenodd" fill-opacity="1" /><path clip-path="url(#clip390)" d="M 0 0 M-nan -nan L-nan -nan L-nan -nan L-nan -nan Q-nan -nan -nan -nan Q-nan -nan -nan -nan Q-nan -nan -nan -nan Q-nan -nan -nan -nan Q-nan -nan -nan -nan Q-nan -nan -nan -nan Q-nan -nan -nan -nan Q-nan -nan -nan -nan Q-nan -nan -nan -nan Q-nan -nan -nan -nan Q-nan -nan -nan -nan Q-nan -nan -nan -nan L-nan -nan L-nan -nan L-nan -nan L-nan -nan L-nan -nan Q-nan -nan -nan -nan Q-nan -nan -nan -nan L-nan -nan L-nan -nan Q-nan -nan -nan -nan Q-nan -nan -nan -nan Q-nan -nan -nan -nan Q-nan -nan -nan -nan L-nan -nan Q-nan -nan -nan -nan Q-nan -nan -nan -nan L-nan -nan L-nan -nan Z" fill="#000000" fill-rule="evenodd" fill-opacity="1" /><path clip-path="url(#clip390)" d="M 0 0 M-nan -nan Q-nan -nan -nan -nan Q-nan -nan -nan -nan Q-nan -nan -nan -nan Q-nan -nan -nan -nan Q-nan -nan -nan -nan Q-nan -nan -nan -nan Q-nan -nan -nan -nan Q-nan -nan -nan -nan Q-nan -nan -nan -nan L-nan -nan Q-nan -nan -nan -nan Q-nan -nan -nan -nan Q-nan -nan -nan -nan L-nan -nan L-nan -nan Q-nan -nan -nan -nan Q-nan -nan -nan -nan L-nan -nan Q-nan -nan -nan -nan Q-nan -nan -nan -nan L-nan -nan Q-nan -nan -nan -nan Q-nan -nan -nan -nan Q-nan -nan -nan -nan Q-nan -nan -nan -nan Q-nan -nan -nan -nan Z" fill="#000000" fill-rule="evenodd" fill-opacity="1" /><path clip-path="url(#clip390)" d="M 0 0 M-nan -nan L-nan -nan L-nan -nan L-nan -nan Q-nan -nan -nan -nan Q-nan -nan -nan -nan Q-nan -nan -nan -nan Q-nan -nan -nan -nan Q-nan -nan -nan -nan Q-nan -nan -nan -nan L-nan -nan Q-nan -nan -nan -nan Q-nan -nan -nan -nan L-nan -nan L-nan -nan L-nan -nan Q-nan -nan -nan -nan Q-nan -nan -nan -nan L-nan -nan L-nan -nan L-nan -nan Q-nan -nan -nan -nan Q-nan -nan -nan -nan Q-nan -nan -nan -nan Q-nan -nan -nan -nan Q-nan -nan -nan -nan Q-nan -nan -nan -nan L-nan -nan Q-nan -nan -nan -nan Q-nan -nan -nan -nan Z" fill="#000000" fill-rule="evenodd" fill-opacity="1" /><path clip-path="url(#clip390)" d="M 0 0 M-nan -nan L-nan -nan Q-nan -nan -nan -nan Q-nan -nan -nan -nan L-nan -nan Q-nan -nan -nan -nan Q-nan -nan -nan -nan L-nan -nan L-nan -nan L-nan -nan Q-nan -nan -nan -nan Q-nan -nan -nan -nan L-nan -nan Q-nan -nan -nan -nan Q-nan -nan -nan -nan Q-nan -nan -nan -nan Q-nan -nan -nan -nan Z" fill="#000000" fill-rule="evenodd" fill-opacity="1" /><path clip-path="url(#clip390)" d="M 0 0 M-nan -nan L-nan -nan Q-nan -nan -nan -nan Q-nan -nan -nan -nan L-nan -nan Q-nan -nan -nan -nan Q-nan -nan -nan -nan L-nan -nan L-nan -nan L-nan -nan Q-nan -nan -nan -nan Q-nan -nan -nan -nan L-nan -nan Q-nan -nan -nan -nan Q-nan -nan -nan -nan M-nan -nan Q-nan -nan -nan -nan Q-nan -nan -nan -nan Q-nan -nan -nan -nan Q-nan -nan -nan -nan Q-nan -nan -nan -nan Q-nan -nan -nan -nan Q-nan -nan -nan -nan Q-nan -nan -nan -nan Z" fill="#000000" fill-rule="evenodd" fill-opacity="1" /><path clip-path="url(#clip390)" d="M 0 0 M-nan -nan Q-nan -nan -nan -nan Q-nan -nan -nan -nan L-nan -nan Q-nan -nan -nan -nan Q-nan -nan -nan -nan Q-nan -nan -nan -nan Q-nan -nan -nan -nan Q-nan -nan -nan -nan Q-nan -nan -nan -nan Q-nan -nan -nan -nan Q-nan -nan -nan -nan Q-nan -nan -nan -nan Q-nan -nan -nan -nan Q-nan -nan -nan -nan Q-nan -nan -nan -nan Q-nan -nan -nan -nan Q-nan -nan -nan -nan Q-nan -nan -nan -nan L-nan -nan Q-nan -nan -nan -nan Q-nan -nan -nan -nan Q-nan -nan -nan -nan Q-nan -nan -nan -nan L-nan -nan L-nan -nan L-nan -nan Q-nan -nan -nan -nan Q-nan -nan -nan -nan Q-nan -nan -nan -nan Q-nan -nan -nan -nan Q-nan -nan -nan -nan Q-nan -nan -nan -nan Q-nan -nan -nan -nan Q-nan -nan -nan -nan Q-nan -nan -nan -nan M-nan -nan Q-nan -nan -nan -nan Q-nan -nan -nan -nan Q-nan -nan -nan -nan Q-nan -nan -nan -nan L-nan -nan Q-nan -nan -nan -nan Q-nan -nan -nan -nan Z" fill="#000000" fill-rule="evenodd" fill-opacity="1" /><path clip-path="url(#clip390)" d="M 0 0 M-nan -nan L-nan -nan Q-nan -nan -nan -nan Q-nan -nan -nan -nan Q-nan -nan -nan -nan Q-nan -nan -nan -nan Q-nan -nan -nan -nan Q-nan -nan -nan -nan Q-nan -nan -nan -nan Q-nan -nan -nan -nan Q-nan -nan -nan -nan Q-nan -nan -nan -nan Q-nan -nan -nan -nan Q-nan -nan -nan -nan Q-nan -nan -nan -nan Q-nan -nan -nan -nan Q-nan -nan -nan -nan Q-nan -nan -nan -nan Q-nan -nan -nan -nan Q-nan -nan -nan -nan Q-nan -nan -nan -nan Q-nan -nan -nan -nan L-nan -nan Q-nan -nan -nan -nan Q-nan -nan -nan -nan Q-nan -nan -nan -nan Q-nan -nan -nan -nan Q-nan -nan -nan -nan Q-nan -nan -nan -nan Q-nan -nan -nan -nan Q-nan -nan -nan -nan Q-nan -nan -nan -nan Q-nan -nan -nan -nan Q-nan -nan -nan -nan Q-nan -nan -nan -nan Q-nan -nan -nan -nan Q-nan -nan -nan -nan Q-nan -nan -nan -nan Q-nan -nan -nan -nan Q-nan -nan -nan -nan Q-nan -nan -nan -nan Q-nan -nan -nan -nan Q-nan -nan -nan -nan Q-nan -nan -nan -nan Q-nan -nan -nan -nan Q-nan -nan -nan -nan Q-nan -nan -nan -nan Z" fill="#000000" fill-rule="evenodd" fill-opacity="1" /><path clip-path="url(#clip390)" d="M 0 0 M-nan -nan Q-nan -nan -nan -nan Q-nan -nan -nan -nan Q-nan -nan -nan -nan Q-nan -nan -nan -nan Q-nan -nan -nan -nan Q-nan -nan -nan -nan Q-nan -nan -nan -nan Q-nan -nan -nan -nan M-nan -nan Q-nan -nan -nan -nan Q-nan -nan -nan -nan Q-nan -nan -nan -nan Q-nan -nan -nan -nan Q-nan -nan -nan -nan Q-nan -nan -nan -nan Q-nan -nan -nan -nan Q-nan -nan -nan -nan Q-nan -nan -nan -nan Q-nan -nan -nan -nan Z" fill="#000000" fill-rule="evenodd" fill-opacity="1" /><path clip-path="url(#clip390)" d="M 0 0 M-nan -nan L-nan -nan L-nan -nan L-nan -nan Q-nan -nan -nan -nan Q-nan -nan -nan -nan Q-nan -nan -nan -nan Q-nan -nan -nan -nan Q-nan -nan -nan -nan Q-nan -nan -nan -nan L-nan -nan Q-nan -nan -nan -nan Q-nan -nan -nan -nan L-nan -nan L-nan -nan L-nan -nan Q-nan -nan -nan -nan Q-nan -nan -nan -nan L-nan -nan L-nan -nan L-nan -nan Q-nan -nan -nan -nan Q-nan -nan -nan -nan Q-nan -nan -nan -nan Q-nan -nan -nan -nan Q-nan -nan -nan -nan Q-nan -nan -nan -nan L-nan -nan Q-nan -nan -nan -nan Q-nan -nan -nan -nan Z" fill="#000000" fill-rule="evenodd" fill-opacity="1" /><path clip-path="url(#clip390)" d="M 0 0 M-nan -nan L-nan -nan Q-nan -nan -nan -nan Q-nan -nan -nan -nan L-nan -nan Q-nan -nan -nan -nan Q-nan -nan -nan -nan L-nan -nan L-nan -nan L-nan -nan Q-nan -nan -nan -nan Q-nan -nan -nan -nan Q-nan -nan -nan -nan Q-nan -nan -nan -nan Q-nan -nan -nan -nan Q-nan -nan -nan -nan Q-nan -nan -nan -nan Q-nan -nan -nan -nan Q-nan -nan -nan -nan Q-nan -nan -nan -nan Q-nan -nan -nan -nan Q-nan -nan -nan -nan Q-nan -nan -nan -nan Q-nan -nan -nan -nan L-nan -nan Q-nan -nan -nan -nan Q-nan -nan -nan -nan L-nan -nan L-nan -nan Q-nan -nan -nan -nan Q-nan -nan -nan -nan Q-nan -nan -nan -nan Q-nan -nan -nan -nan Z" fill="#000000" fill-rule="evenodd" fill-opacity="1" /><path clip-path="url(#clip390)" d="M 0 0 M-nan -nan Q-nan -nan -nan -nan Q-nan -nan -nan -nan Q-nan -nan -nan -nan Q-nan -nan -nan -nan Q-nan -nan -nan -nan Q-nan -nan -nan -nan Q-nan -nan -nan -nan Q-nan -nan -nan -nan Q-nan -nan -nan -nan Q-nan -nan -nan -nan Q-nan -nan -nan -nan Q-nan -nan -nan -nan Q-nan -nan -nan -nan Q-nan -nan -nan -nan Q-nan -nan -nan -nan Q-nan -nan -nan -nan Q-nan -nan -nan -nan Q-nan -nan -nan -nan Q-nan -nan -nan -nan Q-nan -nan -nan -nan Q-nan -nan -nan -nan Q-nan -nan -nan -nan Q-nan -nan -nan -nan Q-nan -nan -nan -nan Q-nan -nan -nan -nan Q-nan -nan -nan -nan Q-nan -nan -nan -nan Q-nan -nan -nan -nan Q-nan -nan -nan -nan Z" fill="#000000" fill-rule="evenodd" fill-opacity="1" /><path clip-path="url(#clip390)" d="M 0 0 M-nan -nan Q-nan -nan -nan -nan Q-nan -nan -nan -nan Q-nan -nan -nan -nan Q-nan -nan -nan -nan Q-nan -nan -nan -nan Q-nan -nan -nan -nan L-nan -nan Q-nan -nan -nan -nan Q-nan -nan -nan -nan Q-nan -nan -nan -nan Q-nan -nan -nan -nan Q-nan -nan -nan -nan Q-nan -nan -nan -nan Q-nan -nan -nan -nan Q-nan -nan -nan -nan Q-nan -nan -nan -nan Q-nan -nan -nan -nan Q-nan -nan -nan -nan Q-nan -nan -nan -nan Q-nan -nan -nan -nan Q-nan -nan -nan -nan M-nan -nan L-nan -nan Q-nan -nan -nan -nan Q-nan -nan -nan -nan Q-nan -nan -nan -nan Q-nan -nan -nan -nan Q-nan -nan -nan -nan Q-nan -nan -nan -nan Q-nan -nan -nan -nan Q-nan -nan -nan -nan Z" fill="#000000" fill-rule="evenodd" fill-opacity="1" /><path clip-path="url(#clip390)" d="M 0 0 M-nan -nan Q-nan -nan -nan -nan Q-nan -nan -nan -nan Q-nan -nan -nan -nan Q-nan -nan -nan -nan Q-nan -nan -nan -nan Q-nan -nan -nan -nan Q-nan -nan -nan -nan Q-nan -nan -nan -nan Q-nan -nan -nan -nan Q-nan -nan -nan -nan Q-nan -nan -nan -nan Q-nan -nan -nan -nan Q-nan -nan -nan -nan Q-nan -nan -nan -nan Q-nan -nan -nan -nan Q-nan -nan -nan -nan Q-nan -nan -nan -nan Q-nan -nan -nan -nan Q-nan -nan -nan -nan Q-nan -nan -nan -nan Q-nan -nan -nan -nan Q-nan -nan -nan -nan Q-nan -nan -nan -nan Q-nan -nan -nan -nan Q-nan -nan -nan -nan Q-nan -nan -nan -nan Q-nan -nan -nan -nan Q-nan -nan -nan -nan Q-nan -nan -nan -nan Z" fill="#000000" fill-rule="evenodd" fill-opacity="1" /><path clip-path="url(#clip390)" d="M 0 0 M-nan -nan Q-nan -nan -nan -nan Q-nan -nan -nan -nan Q-nan -nan -nan -nan Q-nan -nan -nan -nan Q-nan -nan -nan -nan Q-nan -nan -nan -nan Q-nan -nan -nan -nan Q-nan -nan -nan -nan M-nan -nan Q-nan -nan -nan -nan Q-nan -nan -nan -nan Q-nan -nan -nan -nan Q-nan -nan -nan -nan Q-nan -nan -nan -nan Q-nan -nan -nan -nan Q-nan -nan -nan -nan Q-nan -nan -nan -nan Q-nan -nan -nan -nan Q-nan -nan -nan -nan Z" fill="#000000" fill-rule="evenodd" fill-opacity="1" /><path clip-path="url(#clip390)" d="M 0 0 M-nan -nan Q-nan -nan -nan -nan Q-nan -nan -nan -nan Q-nan -nan -nan -nan L-nan -nan Q-nan -nan -nan -nan Q-nan -nan -nan -nan L-nan -nan L-nan -nan L-nan -nan Q-nan -nan -nan -nan Q-nan -nan -nan -nan L-nan -nan L-nan -nan L-nan -nan Q-nan -nan -nan -nan Q-nan -nan -nan -nan Q-nan -nan -nan -nan M-nan -nan Q-nan -nan -nan -nan Q-nan -nan -nan -nan Q-nan -nan -nan -nan Q-nan -nan -nan -nan L-nan -nan Q-nan -nan -nan -nan Q-nan -nan -nan -nan Q-nan -nan -nan -nan Q-nan -nan -nan -nan Z" fill="#000000" fill-rule="evenodd" fill-opacity="1" /><path clip-path="url(#clip390)" d="M 0 0 M-nan -nan Q-nan -nan -nan -nan Q-nan -nan -nan -nan Q-nan -nan -nan -nan Q-nan -nan -nan -nan Q-nan -nan -nan -nan Q-nan -nan -nan -nan L-nan -nan Q-nan -nan -nan -nan Q-nan -nan -nan -nan Q-nan -nan -nan -nan Q-nan -nan -nan -nan Q-nan -nan -nan -nan Q-nan -nan -nan -nan Q-nan -nan -nan -nan Q-nan -nan -nan -nan Q-nan -nan -nan -nan Q-nan -nan -nan -nan Q-nan -nan -nan -nan Q-nan -nan -nan -nan Q-nan -nan -nan -nan Q-nan -nan -nan -nan M-nan -nan L-nan -nan Q-nan -nan -nan -nan Q-nan -nan -nan -nan Q-nan -nan -nan -nan Q-nan -nan -nan -nan Q-nan -nan -nan -nan Q-nan -nan -nan -nan Q-nan -nan -nan -nan Q-nan -nan -nan -nan Z" fill="#000000" fill-rule="evenodd" fill-opacity="1" /><path clip-path="url(#clip390)" d="M 0 0 M-nan -nan L-nan -nan Q-nan -nan -nan -nan Q-nan -nan -nan -nan Q-nan -nan -nan -nan Q-nan -nan -nan -nan L-nan -nan Q-nan -nan -nan -nan Q-nan -nan -nan -nan Q-nan -nan -nan -nan L-nan -nan L-nan -nan L-nan -nan Q-nan -nan -nan -nan Q-nan -nan -nan -nan L-nan -nan L-nan -nan Q-nan -nan -nan -nan Q-nan -nan -nan -nan Q-nan -nan -nan -nan Q-nan -nan -nan -nan L-nan -nan Q-nan -nan -nan -nan Q-nan -nan -nan -nan L-nan -nan Q-nan -nan -nan -nan Q-nan -nan -nan -nan Q-nan -nan -nan -nan Q-nan -nan -nan -nan L-nan -nan Q-nan -nan -nan -nan Q-nan -nan -nan -nan Q-nan -nan -nan -nan L-nan -nan Q-nan -nan -nan -nan L-nan -nan Q-nan -nan -nan -nan Q-nan -nan -nan -nan Q-nan -nan -nan -nan Q-nan -nan -nan -nan L-nan -nan Q-nan -nan -nan -nan Q-nan -nan -nan -nan Z" fill="#000000" fill-rule="evenodd" fill-opacity="1" /><path clip-path="url(#clip390)" d="M 0 0 M-nan -nan L-nan -nan L-nan -nan L-nan -nan Q-nan -nan -nan -nan Q-nan -nan -nan -nan Q-nan -nan -nan -nan Q-nan -nan -nan -nan Q-nan -nan -nan -nan Q-nan -nan -nan -nan L-nan -nan Q-nan -nan -nan -nan Q-nan -nan -nan -nan L-nan -nan L-nan -nan L-nan -nan Q-nan -nan -nan -nan Q-nan -nan -nan -nan L-nan -nan L-nan -nan L-nan -nan Q-nan -nan -nan -nan Q-nan -nan -nan -nan Q-nan -nan -nan -nan Q-nan -nan -nan -nan Q-nan -nan -nan -nan Q-nan -nan -nan -nan L-nan -nan Q-nan -nan -nan -nan Q-nan -nan -nan -nan Z" fill="#000000" fill-rule="evenodd" fill-opacity="1" /><path clip-path="url(#clip390)" d="M 0 0 M-nan -nan L-nan -nan Q-nan -nan -nan -nan Q-nan -nan -nan -nan L-nan -nan Q-nan -nan -nan -nan Q-nan -nan -nan -nan L-nan -nan L-nan -nan L-nan -nan Q-nan -nan -nan -nan Q-nan -nan -nan -nan Q-nan -nan -nan -nan Q-nan -nan -nan -nan Q-nan -nan -nan -nan Q-nan -nan -nan -nan Q-nan -nan -nan -nan L-nan -nan Q-nan -nan -nan -nan Q-nan -nan -nan -nan L-nan -nan Q-nan -nan -nan -nan Q-nan -nan -nan -nan L-nan -nan Q-nan -nan -nan -nan Q-nan -nan -nan -nan L-nan -nan Q-nan -nan -nan -nan Q-nan -nan -nan -nan Q-nan -nan -nan -nan Q-nan -nan -nan -nan L-nan -nan Q-nan -nan -nan -nan Q-nan -nan -nan -nan L-nan -nan Q-nan -nan -nan -nan Q-nan -nan -nan -nan L-nan -nan Q-nan -nan -nan -nan Q-nan -nan -nan -nan L-nan -nan Q-nan -nan -nan -nan Q-nan -nan -nan -nan Q-nan -nan -nan -nan Q-nan -nan -nan -nan L-nan -nan Q-nan -nan -nan -nan Q-nan -nan -nan -nan L-nan -nan Q-nan -nan -nan -nan Q-nan -nan -nan -nan Z" fill="#000000" fill-rule="evenodd" fill-opacity="1" /><path clip-path="url(#clip390)" d="M 0 0 M-nan -nan L-nan -nan L-nan -nan L-nan -nan Q-nan -nan -nan -nan Q-nan -nan -nan -nan Q-nan -nan -nan -nan Q-nan -nan -nan -nan Q-nan -nan -nan -nan Q-nan -nan -nan -nan Q-nan -nan -nan -nan L-nan -nan L-nan -nan Q-nan -nan -nan -nan Q-nan -nan -nan -nan M-nan -nan Q-nan -nan -nan -nan Q-nan -nan -nan -nan Q-nan -nan -nan -nan Q-nan -nan -nan -nan Q-nan -nan -nan -nan Q-nan -nan -nan -nan Q-nan -nan -nan -nan Q-nan -nan -nan -nan Q-nan -nan -nan -nan L-nan -nan Z" fill="#000000" fill-rule="evenodd" fill-opacity="1" /><path clip-path="url(#clip390)" d="M 0 0 M-nan -nan Q-nan -nan -nan -nan Q-nan -nan -nan -nan Q-nan -nan -nan -nan Q-nan -nan -nan -nan Q-nan -nan -nan -nan Q-nan -nan -nan -nan L-nan -nan Q-nan -nan -nan -nan Q-nan -nan -nan -nan Q-nan -nan -nan -nan Q-nan -nan -nan -nan Q-nan -nan -nan -nan Q-nan -nan -nan -nan Q-nan -nan -nan -nan Q-nan -nan -nan -nan Q-nan -nan -nan -nan Q-nan -nan -nan -nan Q-nan -nan -nan -nan Q-nan -nan -nan -nan Q-nan -nan -nan -nan Q-nan -nan -nan -nan M-nan -nan L-nan -nan Q-nan -nan -nan -nan Q-nan -nan -nan -nan Q-nan -nan -nan -nan Q-nan -nan -nan -nan Q-nan -nan -nan -nan Q-nan -nan -nan -nan Q-nan -nan -nan -nan Q-nan -nan -nan -nan Z" fill="#000000" fill-rule="evenodd" fill-opacity="1" /><path clip-path="url(#clip390)" d="M 0 0 M-nan -nan L-nan -nan Q-nan -nan -nan -nan Q-nan -nan -nan -nan L-nan -nan Q-nan -nan -nan -nan Q-nan -nan -nan -nan L-nan -nan L-nan -nan L-nan -nan Q-nan -nan -nan -nan Q-nan -nan -nan -nan Q-nan -nan -nan -nan Q-nan -nan -nan -nan Q-nan -nan -nan -nan Q-nan -nan -nan -nan Q-nan -nan -nan -nan Q-nan -nan -nan -nan Q-nan -nan -nan -nan Q-nan -nan -nan -nan Q-nan -nan -nan -nan Q-nan -nan -nan -nan Q-nan -nan -nan -nan Q-nan -nan -nan -nan L-nan -nan Q-nan -nan -nan -nan Q-nan -nan -nan -nan L-nan -nan L-nan -nan Q-nan -nan -nan -nan Q-nan -nan -nan -nan Q-nan -nan -nan -nan Q-nan -nan -nan -nan Z" fill="#000000" fill-rule="evenodd" fill-opacity="1" /><path clip-path="url(#clip390)" d="M 0 0 M-nan -nan Q-nan -nan -nan -nan Q-nan -nan -nan -nan Q-nan -nan -nan -nan Q-nan -nan -nan -nan Q-nan -nan -nan -nan Q-nan -nan -nan -nan Q-nan -nan -nan -nan Q-nan -nan -nan -nan M-nan -nan Q-nan -nan -nan -nan Q-nan -nan -nan -nan Q-nan -nan -nan -nan Q-nan -nan -nan -nan Q-nan -nan -nan -nan Q-nan -nan -nan -nan Q-nan -nan -nan -nan Q-nan -nan -nan -nan Q-nan -nan -nan -nan Q-nan -nan -nan -nan Z" fill="#000000" fill-rule="evenodd" fill-opacity="1" /><path clip-path="url(#clip390)" d="M 0 0 M-nan -nan L-nan -nan L-nan -nan L-nan -nan Q-nan -nan -nan -nan Q-nan -nan -nan -nan Q-nan -nan -nan -nan Q-nan -nan -nan -nan Q-nan -nan -nan -nan Q-nan -nan -nan -nan Q-nan -nan -nan -nan Q-nan -nan -nan -nan Q-nan -nan -nan -nan Q-nan -nan -nan -nan Q-nan -nan -nan -nan Q-nan -nan -nan -nan L-nan -nan L-nan -nan L-nan -nan L-nan -nan L-nan -nan Q-nan -nan -nan -nan Q-nan -nan -nan -nan L-nan -nan L-nan -nan Q-nan -nan -nan -nan Q-nan -nan -nan -nan Q-nan -nan -nan -nan Q-nan -nan -nan -nan L-nan -nan Q-nan -nan -nan -nan Q-nan -nan -nan -nan L-nan -nan L-nan -nan Z" fill="#000000" fill-rule="evenodd" fill-opacity="1" /><path clip-path="url(#clip390)" d="M 0 0 M-nan -nan Q-nan -nan -nan -nan Q-nan -nan -nan -nan L-nan -nan Q-nan -nan -nan -nan Q-nan -nan -nan -nan L-nan -nan L-nan -nan L-nan -nan Q-nan -nan -nan -nan Q-nan -nan -nan -nan Q-nan -nan -nan -nan Q-nan -nan -nan -nan Q-nan -nan -nan -nan Q-nan -nan -nan -nan Q-nan -nan -nan -nan L-nan -nan L-nan -nan Q-nan -nan -nan -nan Q-nan -nan -nan -nan L-nan -nan Q-nan -nan -nan -nan Q-nan -nan -nan -nan L-nan -nan M-nan -nan Q-nan -nan -nan -nan Q-nan -nan -nan -nan Q-nan -nan -nan -nan Q-nan -nan -nan -nan Q-nan -nan -nan -nan Q-nan -nan -nan -nan Q-nan -nan -nan -nan Q-nan -nan -nan -nan Q-nan -nan -nan -nan Q-nan -nan -nan -nan L-nan -nan Z" fill="#000000" fill-rule="evenodd" fill-opacity="1" /><path clip-path="url(#clip390)" d="M 0 0 M-nan -nan Q-nan -nan -nan -nan Q-nan -nan -nan -nan L-nan -nan Q-nan -nan -nan -nan Q-nan -nan -nan -nan Q-nan -nan -nan -nan Q-nan -nan -nan -nan Q-nan -nan -nan -nan Q-nan -nan -nan -nan Q-nan -nan -nan -nan Q-nan -nan -nan -nan Q-nan -nan -nan -nan Q-nan -nan -nan -nan Q-nan -nan -nan -nan Q-nan -nan -nan -nan Q-nan -nan -nan -nan Q-nan -nan -nan -nan Q-nan -nan -nan -nan L-nan -nan Q-nan -nan -nan -nan Q-nan -nan -nan -nan Q-nan -nan -nan -nan Q-nan -nan -nan -nan L-nan -nan L-nan -nan L-nan -nan Q-nan -nan -nan -nan Q-nan -nan -nan -nan Q-nan -nan -nan -nan Q-nan -nan -nan -nan Q-nan -nan -nan -nan Q-nan -nan -nan -nan Q-nan -nan -nan -nan Q-nan -nan -nan -nan Q-nan -nan -nan -nan M-nan -nan Q-nan -nan -nan -nan Q-nan -nan -nan -nan Q-nan -nan -nan -nan Q-nan -nan -nan -nan L-nan -nan Q-nan -nan -nan -nan Q-nan -nan -nan -nan Z" fill="#000000" fill-rule="evenodd" fill-opacity="1" /><path clip-path="url(#clip390)" d="M 0 0 M-nan -nan Q-nan -nan -nan -nan Q-nan -nan -nan -nan Q-nan -nan -nan -nan Q-nan -nan -nan -nan Q-nan -nan -nan -nan Q-nan -nan -nan -nan Q-nan -nan -nan -nan Q-nan -nan -nan -nan Q-nan -nan -nan -nan Q-nan -nan -nan -nan Q-nan -nan -nan -nan Q-nan -nan -nan -nan Q-nan -nan -nan -nan Q-nan -nan -nan -nan Q-nan -nan -nan -nan Q-nan -nan -nan -nan Q-nan -nan -nan -nan Q-nan -nan -nan -nan Q-nan -nan -nan -nan Q-nan -nan -nan -nan Q-nan -nan -nan -nan Q-nan -nan -nan -nan Q-nan -nan -nan -nan Q-nan -nan -nan -nan Q-nan -nan -nan -nan Q-nan -nan -nan -nan Q-nan -nan -nan -nan Q-nan -nan -nan -nan Q-nan -nan -nan -nan Z" fill="#000000" fill-rule="evenodd" fill-opacity="1" /><path clip-path="url(#clip390)" d="M 0 0 M-nan -nan L-nan -nan Q-nan -nan -nan -nan Q-nan -nan -nan -nan L-nan -nan Q-nan -nan -nan -nan Q-nan -nan -nan -nan L-nan -nan L-nan -nan L-nan -nan L-nan -nan Q-nan -nan -nan -nan Q-nan -nan -nan -nan L-nan -nan Q-nan -nan -nan -nan Q-nan -nan -nan -nan L-nan -nan Q-nan -nan -nan -nan Q-nan -nan -nan -nan Q-nan -nan -nan -nan Q-nan -nan -nan -nan Q-nan -nan -nan -nan Q-nan -nan -nan -nan L-nan -nan Q-nan -nan -nan -nan Q-nan -nan -nan -nan L-nan -nan Q-nan -nan -nan -nan Q-nan -nan -nan -nan L-nan -nan Q-nan -nan -nan -nan Q-nan -nan -nan -nan Q-nan -nan -nan -nan Q-nan -nan -nan -nan L-nan -nan L-nan -nan Q-nan -nan -nan -nan Q-nan -nan -nan -nan L-nan -nan Q-nan -nan -nan -nan Q-nan -nan -nan -nan Z" fill="#000000" fill-rule="evenodd" fill-opacity="1" /><path clip-path="url(#clip390)" d="M 0 0 M-nan -nan Q-nan -nan -nan -nan Q-nan -nan -nan -nan L-nan -nan Q-nan -nan -nan -nan Q-nan -nan -nan -nan Q-nan -nan -nan -nan Q-nan -nan -nan -nan Q-nan -nan -nan -nan Q-nan -nan -nan -nan Q-nan -nan -nan -nan Q-nan -nan -nan -nan Q-nan -nan -nan -nan Q-nan -nan -nan -nan Q-nan -nan -nan -nan Q-nan -nan -nan -nan Q-nan -nan -nan -nan Q-nan -nan -nan -nan Q-nan -nan -nan -nan L-nan -nan Q-nan -nan -nan -nan Q-nan -nan -nan -nan Q-nan -nan -nan -nan Q-nan -nan -nan -nan L-nan -nan L-nan -nan L-nan -nan Q-nan -nan -nan -nan Q-nan -nan -nan -nan Q-nan -nan -nan -nan Q-nan -nan -nan -nan Q-nan -nan -nan -nan Q-nan -nan -nan -nan Q-nan -nan -nan -nan Q-nan -nan -nan -nan Q-nan -nan -nan -nan M-nan -nan Q-nan -nan -nan -nan Q-nan -nan -nan -nan Q-nan -nan -nan -nan Q-nan -nan -nan -nan L-nan -nan Q-nan -nan -nan -nan Q-nan -nan -nan -nan Z" fill="#000000" fill-rule="evenodd" fill-opacity="1" /><path clip-path="url(#clip390)" d="M 0 0 M-nan -nan Q-nan -nan -nan -nan Q-nan -nan -nan -nan Q-nan -nan -nan -nan Q-nan -nan -nan -nan Q-nan -nan -nan -nan Q-nan -nan -nan -nan Q-nan -nan -nan -nan Q-nan -nan -nan -nan Q-nan -nan -nan -nan Q-nan -nan -nan -nan Q-nan -nan -nan -nan Q-nan -nan -nan -nan Q-nan -nan -nan -nan Q-nan -nan -nan -nan Q-nan -nan -nan -nan Q-nan -nan -nan -nan Q-nan -nan -nan -nan Q-nan -nan -nan -nan Q-nan -nan -nan -nan Q-nan -nan -nan -nan Q-nan -nan -nan -nan Q-nan -nan -nan -nan Q-nan -nan -nan -nan Q-nan -nan -nan -nan Q-nan -nan -nan -nan Q-nan -nan -nan -nan Q-nan -nan -nan -nan Q-nan -nan -nan -nan Q-nan -nan -nan -nan Q-nan -nan -nan -nan Q-nan -nan -nan -nan Q-nan -nan -nan -nan Q-nan -nan -nan -nan Q-nan -nan -nan -nan M-nan -nan Q-nan -nan -nan -nan Q-nan -nan -nan -nan Q-nan -nan -nan -nan Q-nan -nan -nan -nan Q-nan -nan -nan -nan Q-nan -nan -nan -nan Q-nan -nan -nan -nan Q-nan -nan -nan -nan L-nan -nan Q-nan -nan -nan -nan Q-nan -nan -nan -nan M-nan -nan Q-nan -nan -nan -nan Q-nan -nan -nan -nan Q-nan -nan -nan -nan Q-nan -nan -nan -nan Q-nan -nan -nan -nan Q-nan -nan -nan -nan Z" fill="#000000" fill-rule="evenodd" fill-opacity="1" /><path clip-path="url(#clip390)" d="M 0 0 M-nan -nan Q-nan -nan -nan -nan Q-nan -nan -nan -nan Q-nan -nan -nan -nan Q-nan -nan -nan -nan Q-nan -nan -nan -nan Q-nan -nan -nan -nan L-nan -nan Q-nan -nan -nan -nan Q-nan -nan -nan -nan Q-nan -nan -nan -nan Q-nan -nan -nan -nan Q-nan -nan -nan -nan Q-nan -nan -nan -nan Q-nan -nan -nan -nan Q-nan -nan -nan -nan Q-nan -nan -nan -nan Q-nan -nan -nan -nan Q-nan -nan -nan -nan Q-nan -nan -nan -nan Q-nan -nan -nan -nan Q-nan -nan -nan -nan M-nan -nan L-nan -nan Q-nan -nan -nan -nan Q-nan -nan -nan -nan Q-nan -nan -nan -nan Q-nan -nan -nan -nan Q-nan -nan -nan -nan Q-nan -nan -nan -nan Q-nan -nan -nan -nan Q-nan -nan -nan -nan Z" fill="#000000" fill-rule="evenodd" fill-opacity="1" /><path clip-path="url(#clip390)" d="M 0 0 M-nan -nan L-nan -nan Q-nan -nan -nan -nan Q-nan -nan -nan -nan Q-nan -nan -nan -nan Q-nan -nan -nan -nan Q-nan -nan -nan -nan Q-nan -nan -nan -nan Q-nan -nan -nan -nan Q-nan -nan -nan -nan Q-nan -nan -nan -nan Q-nan -nan -nan -nan Q-nan -nan -nan -nan Q-nan -nan -nan -nan Q-nan -nan -nan -nan Q-nan -nan -nan -nan Q-nan -nan -nan -nan Q-nan -nan -nan -nan Q-nan -nan -nan -nan Q-nan -nan -nan -nan Q-nan -nan -nan -nan Q-nan -nan -nan -nan L-nan -nan Q-nan -nan -nan -nan Q-nan -nan -nan -nan Q-nan -nan -nan -nan Q-nan -nan -nan -nan Q-nan -nan -nan -nan Q-nan -nan -nan -nan Q-nan -nan -nan -nan Q-nan -nan -nan -nan Q-nan -nan -nan -nan Q-nan -nan -nan -nan Q-nan -nan -nan -nan Q-nan -nan -nan -nan Q-nan -nan -nan -nan Q-nan -nan -nan -nan Q-nan -nan -nan -nan Q-nan -nan -nan -nan Q-nan -nan -nan -nan Q-nan -nan -nan -nan Q-nan -nan -nan -nan Q-nan -nan -nan -nan Q-nan -nan -nan -nan Q-nan -nan -nan -nan Q-nan -nan -nan -nan Q-nan -nan -nan -nan Z" fill="#000000" fill-rule="evenodd" fill-opacity="1" /></svg>
