<?xml version="1.0" encoding="utf-8"?>
<svg xmlns="http://www.w3.org/2000/svg" xmlns:xlink="http://www.w3.org/1999/xlink" width="600" height="400" viewBox="0 0 2400 1600">
<defs>
  <clipPath id="clip840">
    <rect x="300" y="120" width="1921" height="1281"/>
  </clipPath>
</defs>
<defs>
  <clipPath id="clip841">
    <rect x="0" y="0" width="2400" height="1600"/>
  </clipPath>
</defs>
<path clip-path="url(#clip841)" d="
M300 1400 L2220 1400 L2220 120 L300 120  Z
  " fill="#ffffff" fill-rule="evenodd" fill-opacity="1"/>
<polyline clip-path="url(#clip841)" style="stroke:#cccccc; stroke-width:3.2; stroke-opacity:1; fill:none" points="
  300,1400 2220,1400 
  "/>
<polyline clip-path="url(#clip841)" style="stroke:#ededed; stroke-width:3.2; stroke-opacity:1; fill:none" points="
  300,1283.64 2220,1283.64 
  "/>
<polyline clip-path="url(#clip841)" style="stroke:#ededed; stroke-width:3.2; stroke-opacity:1; fill:none" points="
  300,1167.27 2220,1167.27 
  "/>
<polyline clip-path="url(#clip841)" style="stroke:#ededed; stroke-width:3.2; stroke-opacity:1; fill:none" points="
  300,1050.91 2220,1050.91 
  "/>
<polyline clip-path="url(#clip841)" style="stroke:#ededed; stroke-width:3.2; stroke-opacity:1; fill:none" points="
  300,934.545 2220,934.545 
  "/>
<polyline clip-path="url(#clip841)" style="stroke:#cccccc; stroke-width:3.2; stroke-opacity:1; fill:none" points="
  300,818.182 2220,818.182 
  "/>
<polyline clip-path="url(#clip841)" style="stroke:#ededed; stroke-width:3.2; stroke-opacity:1; fill:none" points="
  300,701.818 2220,701.818 
  "/>
<polyline clip-path="url(#clip841)" style="stroke:#ededed; stroke-width:3.2; stroke-opacity:1; fill:none" points="
  300,585.455 2220,585.455 
  "/>
<polyline clip-path="url(#clip841)" style="stroke:#ededed; stroke-width:3.2; stroke-opacity:1; fill:none" points="
  300,469.091 2220,469.091 
  "/>
<polyline clip-path="url(#clip841)" style="stroke:#ededed; stroke-width:3.2; stroke-opacity:1; fill:none" points="
  300,352.727 2220,352.727 
  "/>
<polyline clip-path="url(#clip841)" style="stroke:#cccccc; stroke-width:3.2; stroke-opacity:1; fill:none" points="
  300,236.364 2220,236.364 
  "/>
<polyline clip-path="url(#clip841)" style="stroke:#ededed; stroke-width:3.2; stroke-opacity:1; fill:none" points="
  300,120 2220,120 
  "/>
<polyline clip-path="url(#clip841)" style="stroke:#ededed; stroke-width:3.2; stroke-opacity:1; fill:none" points="
  366.024,1400 366.024,120 
  "/>
<polyline clip-path="url(#clip841)" style="stroke:#ededed; stroke-width:3.2; stroke-opacity:1; fill:none" points="
  412.869,1400 412.869,120 
  "/>
<polyline clip-path="url(#clip841)" style="stroke:#ededed; stroke-width:3.2; stroke-opacity:1; fill:none" points="
  449.205,1400 449.205,120 
  "/>
<polyline clip-path="url(#clip841)" style="stroke:#ededed; stroke-width:3.2; stroke-opacity:1; fill:none" points="
  478.894,1400 478.894,120 
  "/>
<polyline clip-path="url(#clip841)" style="stroke:#ededed; stroke-width:3.2; stroke-opacity:1; fill:none" points="
  503.995,1400 503.995,120 
  "/>
<polyline clip-path="url(#clip841)" style="stroke:#ededed; stroke-width:3.2; stroke-opacity:1; fill:none" points="
  525.739,1400 525.739,120 
  "/>
<polyline clip-path="url(#clip841)" style="stroke:#ededed; stroke-width:3.2; stroke-opacity:1; fill:none" points="
  544.918,1400 544.918,120 
  "/>
<polyline clip-path="url(#clip841)" style="stroke:#ededed; stroke-width:3.2; stroke-opacity:1; fill:none" points="
  562.075,1400 562.075,120 
  "/>
<polyline clip-path="url(#clip841)" style="stroke:#cccccc; stroke-width:3.2; stroke-opacity:1; fill:none" points="
  562.075,1400 562.075,120 
  "/>
<polyline clip-path="url(#clip841)" style="stroke:#ededed; stroke-width:3.2; stroke-opacity:1; fill:none" points="
  674.944,1400 674.944,120 
  "/>
<polyline clip-path="url(#clip841)" style="stroke:#ededed; stroke-width:3.2; stroke-opacity:1; fill:none" points="
  740.969,1400 740.969,120 
  "/>
<polyline clip-path="url(#clip841)" style="stroke:#ededed; stroke-width:3.2; stroke-opacity:1; fill:none" points="
  787.814,1400 787.814,120 
  "/>
<polyline clip-path="url(#clip841)" style="stroke:#ededed; stroke-width:3.2; stroke-opacity:1; fill:none" points="
  824.149,1400 824.149,120 
  "/>
<polyline clip-path="url(#clip841)" style="stroke:#ededed; stroke-width:3.2; stroke-opacity:1; fill:none" points="
  853.838,1400 853.838,120 
  "/>
<polyline clip-path="url(#clip841)" style="stroke:#ededed; stroke-width:3.2; stroke-opacity:1; fill:none" points="
  878.939,1400 878.939,120 
  "/>
<polyline clip-path="url(#clip841)" style="stroke:#ededed; stroke-width:3.2; stroke-opacity:1; fill:none" points="
  900.683,1400 900.683,120 
  "/>
<polyline clip-path="url(#clip841)" style="stroke:#ededed; stroke-width:3.2; stroke-opacity:1; fill:none" points="
  919.862,1400 919.862,120 
  "/>
<polyline clip-path="url(#clip841)" style="stroke:#ededed; stroke-width:3.2; stroke-opacity:1; fill:none" points="
  937.019,1400 937.019,120 
  "/>
<polyline clip-path="url(#clip841)" style="stroke:#cccccc; stroke-width:3.2; stroke-opacity:1; fill:none" points="
  937.019,1400 937.019,120 
  "/>
<polyline clip-path="url(#clip841)" style="stroke:#ededed; stroke-width:3.2; stroke-opacity:1; fill:none" points="
  1049.89,1400 1049.89,120 
  "/>
<polyline clip-path="url(#clip841)" style="stroke:#ededed; stroke-width:3.2; stroke-opacity:1; fill:none" points="
  1115.91,1400 1115.91,120 
  "/>
<polyline clip-path="url(#clip841)" style="stroke:#ededed; stroke-width:3.2; stroke-opacity:1; fill:none" points="
  1162.76,1400 1162.76,120 
  "/>
<polyline clip-path="url(#clip841)" style="stroke:#ededed; stroke-width:3.2; stroke-opacity:1; fill:none" points="
  1199.09,1400 1199.09,120 
  "/>
<polyline clip-path="url(#clip841)" style="stroke:#ededed; stroke-width:3.2; stroke-opacity:1; fill:none" points="
  1228.78,1400 1228.78,120 
  "/>
<polyline clip-path="url(#clip841)" style="stroke:#ededed; stroke-width:3.2; stroke-opacity:1; fill:none" points="
  1253.88,1400 1253.88,120 
  "/>
<polyline clip-path="url(#clip841)" style="stroke:#ededed; stroke-width:3.2; stroke-opacity:1; fill:none" points="
  1275.63,1400 1275.63,120 
  "/>
<polyline clip-path="url(#clip841)" style="stroke:#ededed; stroke-width:3.2; stroke-opacity:1; fill:none" points="
  1294.81,1400 1294.81,120 
  "/>
<polyline clip-path="url(#clip841)" style="stroke:#ededed; stroke-width:3.2; stroke-opacity:1; fill:none" points="
  1311.96,1400 1311.96,120 
  "/>
<polyline clip-path="url(#clip841)" style="stroke:#cccccc; stroke-width:3.2; stroke-opacity:1; fill:none" points="
  1311.96,1400 1311.96,120 
  "/>
<polyline clip-path="url(#clip841)" style="stroke:#ededed; stroke-width:3.2; stroke-opacity:1; fill:none" points="
  1424.83,1400 1424.83,120 
  "/>
<polyline clip-path="url(#clip841)" style="stroke:#ededed; stroke-width:3.2; stroke-opacity:1; fill:none" points="
  1490.86,1400 1490.86,120 
  "/>
<polyline clip-path="url(#clip841)" style="stroke:#ededed; stroke-width:3.2; stroke-opacity:1; fill:none" points="
  1537.7,1400 1537.7,120 
  "/>
<polyline clip-path="url(#clip841)" style="stroke:#ededed; stroke-width:3.2; stroke-opacity:1; fill:none" points="
  1574.04,1400 1574.04,120 
  "/>
<polyline clip-path="url(#clip841)" style="stroke:#ededed; stroke-width:3.2; stroke-opacity:1; fill:none" points="
  1603.73,1400 1603.73,120 
  "/>
<polyline clip-path="url(#clip841)" style="stroke:#ededed; stroke-width:3.2; stroke-opacity:1; fill:none" points="
  1628.83,1400 1628.83,120 
  "/>
<polyline clip-path="url(#clip841)" style="stroke:#ededed; stroke-width:3.2; stroke-opacity:1; fill:none" points="
  1650.57,1400 1650.57,120 
  "/>
<polyline clip-path="url(#clip841)" style="stroke:#ededed; stroke-width:3.2; stroke-opacity:1; fill:none" points="
  1669.75,1400 1669.75,120 
  "/>
<polyline clip-path="url(#clip841)" style="stroke:#ededed; stroke-width:3.2; stroke-opacity:1; fill:none" points="
  1686.91,1400 1686.91,120 
  "/>
<polyline clip-path="url(#clip841)" style="stroke:#cccccc; stroke-width:3.2; stroke-opacity:1; fill:none" points="
  1686.91,1400 1686.91,120 
  "/>
<polyline clip-path="url(#clip841)" style="stroke:#ededed; stroke-width:3.2; stroke-opacity:1; fill:none" points="
  1799.78,1400 1799.78,120 
  "/>
<polyline clip-path="url(#clip841)" style="stroke:#ededed; stroke-width:3.2; stroke-opacity:1; fill:none" points="
  1865.8,1400 1865.8,120 
  "/>
<polyline clip-path="url(#clip841)" style="stroke:#ededed; stroke-width:3.2; stroke-opacity:1; fill:none" points="
  1912.65,1400 1912.65,120 
  "/>
<polyline clip-path="url(#clip841)" style="stroke:#ededed; stroke-width:3.2; stroke-opacity:1; fill:none" points="
  1948.98,1400 1948.98,120 
  "/>
<polyline clip-path="url(#clip841)" style="stroke:#ededed; stroke-width:3.2; stroke-opacity:1; fill:none" points="
  1978.67,1400 1978.67,120 
  "/>
<polyline clip-path="url(#clip841)" style="stroke:#ededed; stroke-width:3.2; stroke-opacity:1; fill:none" points="
  2003.77,1400 2003.77,120 
  "/>
<polyline clip-path="url(#clip841)" style="stroke:#ededed; stroke-width:3.2; stroke-opacity:1; fill:none" points="
  2025.52,1400 2025.52,120 
  "/>
<polyline clip-path="url(#clip841)" style="stroke:#ededed; stroke-width:3.2; stroke-opacity:1; fill:none" points="
  2044.69,1400 2044.69,120 
  "/>
<polyline clip-path="url(#clip841)" style="stroke:#ededed; stroke-width:3.2; stroke-opacity:1; fill:none" points="
  2061.85,1400 2061.85,120 
  "/>
<polyline clip-path="url(#clip841)" style="stroke:#cccccc; stroke-width:3.2; stroke-opacity:1; fill:none" points="
  2061.85,1400 2061.85,120 
  "/>
<polyline clip-path="url(#clip841)" style="stroke:#ededed; stroke-width:3.2; stroke-opacity:1; fill:none" points="
  2174.72,1400 2174.72,120 
  "/>
<path clip-path="url(#clip841)" d="M 0 0 M257.101 1396.96 Q257.101 1388.02 259.357 1383.15 Q262.504 1375.91 269.927 1375.91 Q271.5 1375.91 273.133 1376.36 Q274.796 1376.77 276.874 1378.4 Q278.982 1380.04 280.259 1382.71 Q282.693 1387.87 282.693 1396.96 Q282.693 1405.84 280.437 1410.68 Q277.141 1417.74 269.867 1417.74 Q267.136 1417.74 264.345 1416.35 Q261.584 1414.95 259.832 1411.6 Q257.101 1406.58 257.101 1396.96 M262.148 1396.22 Q262.148 1405.39 262.801 1409.04 Q263.543 1412.99 265.562 1414.71 Q267.611 1416.41 269.867 1416.41 Q272.302 1416.41 274.321 1414.6 Q276.369 1412.75 276.993 1408.81 Q277.676 1404.92 277.646 1396.22 Q277.646 1387.76 277.052 1384.37 Q276.251 1380.42 274.113 1378.85 Q272.005 1377.25 269.867 1377.25 Q269.066 1377.25 268.205 1377.48 Q267.373 1377.72 266.156 1378.4 Q264.939 1379.09 263.989 1380.78 Q263.068 1382.47 262.623 1385.02 Q262.148 1388.32 262.148 1396.22 Z" fill="#000000" fill-rule="evenodd" fill-opacity="1" /><path clip-path="url(#clip841)" d="M 0 0 M202.472 824.791 Q202.472 822.98 203.451 822.297 Q204.431 821.584 205.47 821.584 Q206.866 821.584 207.667 822.475 Q208.499 823.336 208.499 824.553 Q208.499 825.771 207.667 826.661 Q206.866 827.522 205.47 827.522 Q204.787 827.522 204.431 827.404 Q205.233 830.194 207.667 832.213 Q210.132 834.232 213.368 834.232 Q217.435 834.232 219.87 830.284 Q221.325 827.73 221.325 821.941 Q221.325 816.834 220.226 814.281 Q218.534 810.391 215.06 810.391 Q210.132 810.391 207.222 814.637 Q206.866 815.171 206.45 815.201 Q205.856 815.201 205.708 814.875 Q205.589 814.518 205.589 813.598 L205.589 795.606 Q205.589 794.151 206.183 794.151 Q206.42 794.151 206.925 794.329 Q210.755 796.022 215.001 796.051 Q219.365 796.051 223.284 794.27 Q223.581 794.092 223.759 794.092 Q224.353 794.092 224.383 794.775 Q224.383 795.012 223.878 795.725 Q223.403 796.408 222.364 797.328 Q221.325 798.219 219.989 799.08 Q218.653 799.941 216.693 800.534 Q214.763 801.098 212.626 801.098 Q210.072 801.098 207.46 800.297 L207.46 812.143 Q210.607 809.055 215.179 809.055 Q220.048 809.055 223.403 812.974 Q226.758 816.893 226.758 822.356 Q226.758 828.086 222.779 832.006 Q218.831 835.925 213.487 835.925 Q208.617 835.925 205.53 832.451 Q202.472 828.977 202.472 824.791 Z" fill="#000000" fill-rule="evenodd" fill-opacity="1" /><path clip-path="url(#clip841)" d="M 0 0 M229.133 815.142 Q229.133 806.205 231.389 801.336 Q234.537 794.092 241.959 794.092 Q243.533 794.092 245.166 794.537 Q246.828 794.953 248.906 796.586 Q251.014 798.219 252.291 800.891 Q254.726 806.057 254.726 815.142 Q254.726 824.019 252.469 828.858 Q249.174 835.925 241.9 835.925 Q239.168 835.925 236.377 834.529 Q233.616 833.134 231.865 829.779 Q229.133 824.761 229.133 815.142 M234.18 814.399 Q234.18 823.574 234.833 827.225 Q235.576 831.174 237.595 832.896 Q239.643 834.589 241.9 834.589 Q244.334 834.589 246.353 832.777 Q248.402 830.937 249.025 826.988 Q249.708 823.099 249.678 814.399 Q249.678 805.938 249.085 802.553 Q248.283 798.605 246.145 797.031 Q244.037 795.428 241.9 795.428 Q241.098 795.428 240.237 795.665 Q239.406 795.903 238.188 796.586 Q236.971 797.269 236.021 798.961 Q235.101 800.653 234.655 803.206 Q234.18 806.502 234.18 814.399 Z" fill="#000000" fill-rule="evenodd" fill-opacity="1" /><path clip-path="url(#clip841)" d="M 0 0 M257.101 815.142 Q257.101 806.205 259.357 801.336 Q262.504 794.092 269.927 794.092 Q271.5 794.092 273.133 794.537 Q274.796 794.953 276.874 796.586 Q278.982 798.219 280.259 800.891 Q282.693 806.057 282.693 815.142 Q282.693 824.019 280.437 828.858 Q277.141 835.925 269.867 835.925 Q267.136 835.925 264.345 834.529 Q261.584 833.134 259.832 829.779 Q257.101 824.761 257.101 815.142 M262.148 814.399 Q262.148 823.574 262.801 827.225 Q263.543 831.174 265.562 832.896 Q267.611 834.589 269.867 834.589 Q272.302 834.589 274.321 832.777 Q276.369 830.937 276.993 826.988 Q277.676 823.099 277.646 814.399 Q277.646 805.938 277.052 802.553 Q276.251 798.605 274.113 797.031 Q272.005 795.428 269.867 795.428 Q269.066 795.428 268.205 795.665 Q267.373 795.903 266.156 796.586 Q264.939 797.269 263.989 798.961 Q263.068 800.653 262.623 803.206 Q262.148 806.502 262.148 814.399 Z" fill="#000000" fill-rule="evenodd" fill-opacity="1" /><path clip-path="url(#clip841)" d="M 0 0 M178.72 218.063 L178.72 216.163 Q186.024 216.163 189.794 212.274 Q190.833 212.274 191.011 212.511 Q191.19 212.749 191.19 213.847 L191.19 247.961 Q191.19 249.772 192.08 250.336 Q192.971 250.9 196.86 250.9 L198.79 250.9 L198.79 252.77 Q196.652 252.592 188.933 252.592 Q181.214 252.592 179.106 252.77 L179.106 250.9 L181.036 250.9 Q184.866 250.9 185.786 250.365 Q186.706 249.801 186.706 247.961 L186.706 216.46 Q183.53 218.063 178.72 218.063 Z" fill="#000000" fill-rule="evenodd" fill-opacity="1" /><path clip-path="url(#clip841)" d="M 0 0 M201.165 233.324 Q201.165 224.387 203.422 219.518 Q206.569 212.274 213.991 212.274 Q215.565 212.274 217.198 212.719 Q218.86 213.135 220.939 214.767 Q223.047 216.4 224.323 219.072 Q226.758 224.238 226.758 233.324 Q226.758 242.201 224.501 247.04 Q221.206 254.106 213.932 254.106 Q211.2 254.106 208.41 252.711 Q205.648 251.316 203.897 247.961 Q201.165 242.943 201.165 233.324 M206.213 232.581 Q206.213 241.755 206.866 245.407 Q207.608 249.356 209.627 251.078 Q211.675 252.77 213.932 252.77 Q216.366 252.77 218.385 250.959 Q220.434 249.118 221.057 245.17 Q221.74 241.28 221.711 232.581 Q221.711 224.12 221.117 220.735 Q220.315 216.786 218.178 215.213 Q216.07 213.61 213.932 213.61 Q213.13 213.61 212.269 213.847 Q211.438 214.085 210.221 214.767 Q209.003 215.45 208.053 217.143 Q207.133 218.835 206.688 221.388 Q206.213 224.684 206.213 232.581 Z" fill="#000000" fill-rule="evenodd" fill-opacity="1" /><path clip-path="url(#clip841)" d="M 0 0 M229.133 233.324 Q229.133 224.387 231.389 219.518 Q234.537 212.274 241.959 212.274 Q243.533 212.274 245.166 212.719 Q246.828 213.135 248.906 214.767 Q251.014 216.4 252.291 219.072 Q254.726 224.238 254.726 233.324 Q254.726 242.201 252.469 247.04 Q249.174 254.106 241.9 254.106 Q239.168 254.106 236.377 252.711 Q233.616 251.316 231.865 247.961 Q229.133 242.943 229.133 233.324 M234.18 232.581 Q234.18 241.755 234.833 245.407 Q235.576 249.356 237.595 251.078 Q239.643 252.77 241.9 252.77 Q244.334 252.77 246.353 250.959 Q248.402 249.118 249.025 245.17 Q249.708 241.28 249.678 232.581 Q249.678 224.12 249.085 220.735 Q248.283 216.786 246.145 215.213 Q244.037 213.61 241.9 213.61 Q241.098 213.61 240.237 213.847 Q239.406 214.085 238.188 214.767 Q236.971 215.45 236.021 217.143 Q235.101 218.835 234.655 221.388 Q234.18 224.684 234.18 232.581 Z" fill="#000000" fill-rule="evenodd" fill-opacity="1" /><path clip-path="url(#clip841)" d="M 0 0 M257.101 233.324 Q257.101 224.387 259.357 219.518 Q262.504 212.274 269.927 212.274 Q271.5 212.274 273.133 212.719 Q274.796 213.135 276.874 214.767 Q278.982 216.4 280.259 219.072 Q282.693 224.238 282.693 233.324 Q282.693 242.201 280.437 247.04 Q277.141 254.106 269.867 254.106 Q267.136 254.106 264.345 252.711 Q261.584 251.316 259.832 247.961 Q257.101 242.943 257.101 233.324 M262.148 232.581 Q262.148 241.755 262.801 245.407 Q263.543 249.356 265.562 251.078 Q267.611 252.77 269.867 252.77 Q272.302 252.77 274.321 250.959 Q276.369 249.118 276.993 245.17 Q277.676 241.28 277.646 232.581 Q277.646 224.12 277.052 220.735 Q276.251 216.786 274.113 215.213 Q272.005 213.61 269.867 213.61 Q269.066 213.61 268.205 213.847 Q267.373 214.085 266.156 214.767 Q264.939 215.45 263.989 217.143 Q263.068 218.835 262.623 221.388 Q262.148 224.684 262.148 232.581 Z" fill="#000000" fill-rule="evenodd" fill-opacity="1" /><polyline clip-path="url(#clip841)" style="stroke:#000000; stroke-width:3.2; stroke-opacity:1; fill:none" points="
  300,1400 300,1400 334.613,1400 300,1400 300,1283.64 317.307,1283.64 300,1283.64 300,1167.27 317.307,1167.27 300,1167.27 
  300,1050.91 317.307,1050.91 300,1050.91 300,934.545 317.307,934.545 300,934.545 300,818.182 334.613,818.182 300,818.182 300,701.818 
  317.307,701.818 300,701.818 300,585.455 317.307,585.455 300,585.455 300,469.091 317.307,469.091 300,469.091 300,352.727 317.307,352.727 
  300,352.727 300,236.364 334.613,236.364 300,236.364 300,120 317.307,120 300,120 
  "/>
<path clip-path="url(#clip841)" d="M 0 0 M529.902 1458.32 L529.902 1456.42 Q537.206 1456.42 540.976 1452.54 Q542.016 1452.54 542.194 1452.77 Q542.372 1453.01 542.372 1454.11 L542.372 1488.22 Q542.372 1490.03 543.263 1490.6 Q544.153 1491.16 548.043 1491.16 L549.972 1491.16 L549.972 1493.03 Q547.835 1492.85 540.115 1492.85 Q532.396 1492.85 530.288 1493.03 L530.288 1491.16 L532.218 1491.16 Q536.048 1491.16 536.968 1490.63 Q537.889 1490.06 537.889 1488.22 L537.889 1456.72 Q534.712 1458.32 529.902 1458.32 Z" fill="#000000" fill-rule="evenodd" fill-opacity="1" /><path clip-path="url(#clip841)" d="M 0 0 M552.348 1473.59 Q552.348 1464.65 554.604 1459.78 Q557.751 1452.54 565.174 1452.54 Q566.747 1452.54 568.38 1452.98 Q570.043 1453.4 572.121 1455.03 Q574.229 1456.66 575.506 1459.33 Q577.94 1464.5 577.94 1473.59 Q577.94 1482.46 575.684 1487.3 Q572.388 1494.37 565.114 1494.37 Q562.383 1494.37 559.592 1492.97 Q556.831 1491.58 555.079 1488.22 Q552.348 1483.2 552.348 1473.59 M557.395 1472.84 Q557.395 1482.02 558.048 1485.67 Q558.79 1489.62 560.809 1491.34 Q562.858 1493.03 565.114 1493.03 Q567.549 1493.03 569.568 1491.22 Q571.616 1489.38 572.24 1485.43 Q572.923 1481.54 572.893 1472.84 Q572.893 1464.38 572.299 1461 Q571.497 1457.05 569.36 1455.47 Q567.252 1453.87 565.114 1453.87 Q564.313 1453.87 563.452 1454.11 Q562.62 1454.35 561.403 1455.03 Q560.186 1455.71 559.236 1457.4 Q558.315 1459.1 557.87 1461.65 Q557.395 1464.95 557.395 1472.84 Z" fill="#000000" fill-rule="evenodd" fill-opacity="1" /><path clip-path="url(#clip841)" d="M 0 0 M577.94 1431.89 L577.94 1430.35 Q583.874 1430.35 586.938 1427.19 Q587.782 1427.19 587.927 1427.38 Q588.072 1427.57 588.072 1428.46 L588.072 1456.18 Q588.072 1457.65 588.795 1458.11 Q589.519 1458.57 592.679 1458.57 L594.247 1458.57 L594.247 1460.09 Q592.51 1459.94 586.238 1459.94 Q579.966 1459.94 578.254 1460.09 L578.254 1458.57 L579.822 1458.57 Q582.934 1458.57 583.681 1458.13 Q584.429 1457.68 584.429 1456.18 L584.429 1430.59 Q581.848 1431.89 577.94 1431.89 Z" fill="#000000" fill-rule="evenodd" fill-opacity="1" /><path clip-path="url(#clip841)" d="M 0 0 M903.134 1458.32 L903.134 1456.42 Q910.437 1456.42 914.208 1452.54 Q915.247 1452.54 915.425 1452.77 Q915.603 1453.01 915.603 1454.11 L915.603 1488.22 Q915.603 1490.03 916.494 1490.6 Q917.385 1491.16 921.274 1491.16 L923.204 1491.16 L923.204 1493.03 Q921.066 1492.85 913.347 1492.85 Q905.627 1492.85 903.52 1493.03 L903.52 1491.16 L905.449 1491.16 Q909.279 1491.16 910.2 1490.63 Q911.12 1490.06 911.12 1488.22 L911.12 1456.72 Q907.943 1458.32 903.134 1458.32 Z" fill="#000000" fill-rule="evenodd" fill-opacity="1" /><path clip-path="url(#clip841)" d="M 0 0 M925.579 1473.59 Q925.579 1464.65 927.835 1459.78 Q930.983 1452.54 938.405 1452.54 Q939.979 1452.54 941.611 1452.98 Q943.274 1453.4 945.352 1455.03 Q947.46 1456.66 948.737 1459.33 Q951.172 1464.5 951.172 1473.59 Q951.172 1482.46 948.915 1487.3 Q945.62 1494.37 938.346 1494.37 Q935.614 1494.37 932.823 1492.97 Q930.062 1491.58 928.31 1488.22 Q925.579 1483.2 925.579 1473.59 M930.626 1472.84 Q930.626 1482.02 931.279 1485.67 Q932.022 1489.62 934.041 1491.34 Q936.089 1493.03 938.346 1493.03 Q940.78 1493.03 942.799 1491.22 Q944.848 1489.38 945.471 1485.43 Q946.154 1481.54 946.124 1472.84 Q946.124 1464.38 945.53 1461 Q944.729 1457.05 942.591 1455.47 Q940.483 1453.87 938.346 1453.87 Q937.544 1453.87 936.683 1454.11 Q935.852 1454.35 934.634 1455.03 Q933.417 1455.71 932.467 1457.4 Q931.547 1459.1 931.101 1461.65 Q930.626 1464.95 930.626 1472.84 Z" fill="#000000" fill-rule="evenodd" fill-opacity="1" /><path clip-path="url(#clip841)" d="M 0 0 M951.172 1460.09 Q951.172 1459.2 951.244 1458.93 Q951.34 1458.67 951.726 1458.26 L961.207 1447.69 Q966.393 1441.85 966.393 1436.76 Q966.393 1433.46 964.656 1431.09 Q962.944 1428.73 959.783 1428.73 Q957.612 1428.73 955.779 1430.06 Q953.946 1431.38 953.101 1433.75 Q953.246 1433.7 953.753 1433.7 Q954.983 1433.7 955.658 1434.47 Q956.358 1435.24 956.358 1436.28 Q956.358 1437.61 955.49 1438.26 Q954.645 1438.88 953.801 1438.88 Q953.463 1438.88 953.005 1438.81 Q952.571 1438.74 951.871 1438.06 Q951.172 1437.36 951.172 1436.13 Q951.172 1432.69 953.777 1429.94 Q956.406 1427.19 960.411 1427.19 Q964.946 1427.19 967.913 1429.89 Q970.904 1432.56 970.904 1436.76 Q970.904 1438.23 970.446 1439.58 Q970.012 1440.91 969.408 1441.95 Q968.83 1442.99 967.237 1444.65 Q965.645 1446.31 964.367 1447.5 Q963.088 1448.68 960.218 1451.19 L954.983 1456.28 L963.884 1456.28 Q968.226 1456.28 968.564 1455.89 Q969.047 1455.19 969.65 1451.5 L970.904 1451.5 L969.505 1460.09 L951.172 1460.09 Z" fill="#000000" fill-rule="evenodd" fill-opacity="1" /><path clip-path="url(#clip841)" d="M 0 0 M1277.69 1458.32 L1277.69 1456.42 Q1285 1456.42 1288.77 1452.54 Q1289.81 1452.54 1289.98 1452.77 Q1290.16 1453.01 1290.16 1454.11 L1290.16 1488.22 Q1290.16 1490.03 1291.05 1490.6 Q1291.94 1491.16 1295.83 1491.16 L1297.76 1491.16 L1297.76 1493.03 Q1295.62 1492.85 1287.9 1492.85 Q1280.19 1492.85 1278.08 1493.03 L1278.08 1491.16 L1280.01 1491.16 Q1283.84 1491.16 1284.76 1490.63 Q1285.68 1490.06 1285.68 1488.22 L1285.68 1456.72 Q1282.5 1458.32 1277.69 1458.32 Z" fill="#000000" fill-rule="evenodd" fill-opacity="1" /><path clip-path="url(#clip841)" d="M 0 0 M1300.14 1473.59 Q1300.14 1464.65 1302.39 1459.78 Q1305.54 1452.54 1312.96 1452.54 Q1314.54 1452.54 1316.17 1452.98 Q1317.83 1453.4 1319.91 1455.03 Q1322.02 1456.66 1323.3 1459.33 Q1325.73 1464.5 1325.73 1473.59 Q1325.73 1482.46 1323.47 1487.3 Q1320.18 1494.37 1312.9 1494.37 Q1310.17 1494.37 1307.38 1492.97 Q1304.62 1491.58 1302.87 1488.22 Q1300.14 1483.2 1300.14 1473.59 M1305.18 1472.84 Q1305.18 1482.02 1305.84 1485.67 Q1306.58 1489.62 1308.6 1491.34 Q1310.65 1493.03 1312.9 1493.03 Q1315.34 1493.03 1317.36 1491.22 Q1319.41 1489.38 1320.03 1485.43 Q1320.71 1481.54 1320.68 1472.84 Q1320.68 1464.38 1320.09 1461 Q1319.29 1457.05 1317.15 1455.47 Q1315.04 1453.87 1312.9 1453.87 Q1312.1 1453.87 1311.24 1454.11 Q1310.41 1454.35 1309.19 1455.03 Q1307.98 1455.71 1307.03 1457.4 Q1306.1 1459.1 1305.66 1461.65 Q1305.18 1464.95 1305.18 1472.84 Z" fill="#000000" fill-rule="evenodd" fill-opacity="1" /><path clip-path="url(#clip841)" d="M 0 0 M1325.73 1453.43 Q1325.73 1451.96 1326.57 1451.26 Q1327.42 1450.56 1328.5 1450.56 Q1329.64 1450.56 1330.43 1451.31 Q1331.25 1452.03 1331.25 1453.31 Q1331.25 1454.69 1330.29 1455.46 Q1329.35 1456.23 1328 1456.04 Q1329.18 1458.01 1331.35 1458.91 Q1333.55 1459.8 1335.57 1459.8 Q1337.69 1459.8 1339.41 1457.97 Q1341.14 1456.13 1341.14 1451.65 Q1341.14 1447.83 1339.65 1445.64 Q1338.18 1443.44 1335.26 1443.44 L1333.09 1443.44 Q1332.34 1443.44 1332.12 1443.37 Q1331.91 1443.3 1331.91 1442.89 Q1331.91 1442.41 1332.65 1442.31 Q1333.4 1442.31 1334.58 1442.17 Q1337.45 1442.07 1338.97 1439.58 Q1340.35 1437.27 1340.35 1433.96 Q1340.35 1430.95 1338.9 1429.69 Q1337.48 1428.42 1335.62 1428.42 Q1333.88 1428.42 1331.98 1429.14 Q1330.07 1429.86 1329.03 1431.48 Q1332.1 1431.48 1332.1 1433.96 Q1332.1 1435.05 1331.4 1435.77 Q1330.72 1436.47 1329.59 1436.47 Q1328.5 1436.47 1327.78 1435.8 Q1327.06 1435.1 1327.06 1433.92 Q1327.06 1431.09 1329.57 1429.14 Q1332.1 1427.19 1335.81 1427.19 Q1339.48 1427.19 1342.18 1429.11 Q1344.91 1431.04 1344.91 1434.01 Q1344.91 1436.93 1342.98 1439.32 Q1341.05 1441.71 1337.98 1442.7 Q1341.75 1443.44 1343.99 1446 Q1346.23 1448.53 1346.23 1451.65 Q1346.23 1455.51 1343.19 1458.35 Q1340.16 1461.17 1335.72 1461.17 Q1331.62 1461.17 1328.67 1458.95 Q1325.73 1456.74 1325.73 1453.43 Z" fill="#000000" fill-rule="evenodd" fill-opacity="1" /><path clip-path="url(#clip841)" d="M 0 0 M1651.94 1458.32 L1651.94 1456.42 Q1659.24 1456.42 1663.01 1452.54 Q1664.05 1452.54 1664.23 1452.77 Q1664.41 1453.01 1664.41 1454.11 L1664.41 1488.22 Q1664.41 1490.03 1665.3 1490.6 Q1666.19 1491.16 1670.08 1491.16 L1672.01 1491.16 L1672.01 1493.03 Q1669.87 1492.85 1662.15 1492.85 Q1654.43 1492.85 1652.32 1493.03 L1652.32 1491.16 L1654.25 1491.16 Q1658.08 1491.16 1659 1490.63 Q1659.92 1490.06 1659.92 1488.22 L1659.92 1456.72 Q1656.75 1458.32 1651.94 1458.32 Z" fill="#000000" fill-rule="evenodd" fill-opacity="1" /><path clip-path="url(#clip841)" d="M 0 0 M1674.38 1473.59 Q1674.38 1464.65 1676.64 1459.78 Q1679.79 1452.54 1687.21 1452.54 Q1688.78 1452.54 1690.41 1452.98 Q1692.08 1453.4 1694.16 1455.03 Q1696.26 1456.66 1697.54 1459.33 Q1699.97 1464.5 1699.97 1473.59 Q1699.97 1482.46 1697.72 1487.3 Q1694.42 1494.37 1687.15 1494.37 Q1684.42 1494.37 1681.63 1492.97 Q1678.86 1491.58 1677.11 1488.22 Q1674.38 1483.2 1674.38 1473.59 M1679.43 1472.84 Q1679.43 1482.02 1680.08 1485.67 Q1680.82 1489.62 1682.84 1491.34 Q1684.89 1493.03 1687.15 1493.03 Q1689.58 1493.03 1691.6 1491.22 Q1693.65 1489.38 1694.27 1485.43 Q1694.96 1481.54 1694.93 1472.84 Q1694.93 1464.38 1694.33 1461 Q1693.53 1457.05 1691.39 1455.47 Q1689.29 1453.87 1687.15 1453.87 Q1686.35 1453.87 1685.49 1454.11 Q1684.65 1454.35 1683.44 1455.03 Q1682.22 1455.71 1681.27 1457.4 Q1680.35 1459.1 1679.9 1461.65 Q1679.43 1464.95 1679.43 1472.84 Z" fill="#000000" fill-rule="evenodd" fill-opacity="1" /><path clip-path="url(#clip841)" d="M 0 0 M1699.97 1451.94 L1699.97 1450.42 L1715.15 1427.23 Q1715.53 1426.63 1716.14 1426.65 Q1716.69 1426.65 1716.81 1426.87 Q1716.93 1427.09 1716.93 1427.93 L1716.93 1450.42 L1721.88 1450.42 L1721.88 1451.94 L1716.93 1451.94 L1716.93 1456.23 Q1716.93 1457.65 1717.51 1458.11 Q1718.11 1458.57 1720.67 1458.57 L1721.71 1458.57 L1721.71 1460.09 Q1719.68 1459.94 1715 1459.94 Q1710.35 1459.94 1708.32 1460.09 L1708.32 1458.57 L1709.36 1458.57 Q1711.92 1458.57 1712.52 1458.13 Q1713.12 1457.68 1713.12 1456.23 L1713.12 1451.94 L1699.97 1451.94 M1701.37 1450.42 L1713.41 1450.42 L1713.41 1431.99 L1701.37 1450.42 Z" fill="#000000" fill-rule="evenodd" fill-opacity="1" /><path clip-path="url(#clip841)" d="M 0 0 M2027.97 1458.32 L2027.97 1456.42 Q2035.27 1456.42 2039.04 1452.54 Q2040.08 1452.54 2040.26 1452.77 Q2040.44 1453.01 2040.44 1454.11 L2040.44 1488.22 Q2040.44 1490.03 2041.33 1490.6 Q2042.22 1491.16 2046.11 1491.16 L2048.04 1491.16 L2048.04 1493.03 Q2045.9 1492.85 2038.18 1492.85 Q2030.46 1492.85 2028.35 1493.03 L2028.35 1491.16 L2030.28 1491.16 Q2034.11 1491.16 2035.03 1490.63 Q2035.95 1490.06 2035.95 1488.22 L2035.95 1456.72 Q2032.78 1458.32 2027.97 1458.32 Z" fill="#000000" fill-rule="evenodd" fill-opacity="1" /><path clip-path="url(#clip841)" d="M 0 0 M2050.41 1473.59 Q2050.41 1464.65 2052.67 1459.78 Q2055.81 1452.54 2063.24 1452.54 Q2064.81 1452.54 2066.44 1452.98 Q2068.11 1453.4 2070.18 1455.03 Q2072.29 1456.66 2073.57 1459.33 Q2076 1464.5 2076 1473.59 Q2076 1482.46 2073.75 1487.3 Q2070.45 1494.37 2063.18 1494.37 Q2060.45 1494.37 2057.66 1492.97 Q2054.89 1491.58 2053.14 1488.22 Q2050.41 1483.2 2050.41 1473.59 M2055.46 1472.84 Q2055.46 1482.02 2056.11 1485.67 Q2056.85 1489.62 2058.87 1491.34 Q2060.92 1493.03 2063.18 1493.03 Q2065.61 1493.03 2067.63 1491.22 Q2069.68 1489.38 2070.3 1485.43 Q2070.99 1481.54 2070.96 1472.84 Q2070.96 1464.38 2070.36 1461 Q2069.56 1457.05 2067.42 1455.47 Q2065.32 1453.87 2063.18 1453.87 Q2062.38 1453.87 2061.52 1454.11 Q2060.68 1454.35 2059.47 1455.03 Q2058.25 1455.71 2057.3 1457.4 Q2056.38 1459.1 2055.93 1461.65 Q2055.46 1464.95 2055.46 1472.84 Z" fill="#000000" fill-rule="evenodd" fill-opacity="1" /><path clip-path="url(#clip841)" d="M 0 0 M2076 1452.13 Q2076 1450.66 2076.8 1450.1 Q2077.6 1449.52 2078.44 1449.52 Q2079.57 1449.52 2080.23 1450.25 Q2080.9 1450.95 2080.9 1451.94 Q2080.9 1452.92 2080.23 1453.65 Q2079.57 1454.35 2078.44 1454.35 Q2077.89 1454.35 2077.6 1454.25 Q2078.25 1456.52 2080.23 1458.16 Q2082.23 1459.8 2084.86 1459.8 Q2088.16 1459.8 2090.14 1456.59 Q2091.32 1454.52 2091.32 1449.81 Q2091.32 1445.66 2090.43 1443.59 Q2089.05 1440.43 2086.23 1440.43 Q2082.23 1440.43 2079.86 1443.88 Q2079.57 1444.31 2079.24 1444.34 Q2078.75 1444.34 2078.63 1444.07 Q2078.54 1443.78 2078.54 1443.03 L2078.54 1428.42 Q2078.54 1427.23 2079.02 1427.23 Q2079.21 1427.23 2079.62 1427.38 Q2082.73 1428.75 2086.18 1428.78 Q2089.73 1428.78 2092.91 1427.33 Q2093.16 1427.19 2093.3 1427.19 Q2093.78 1427.19 2093.81 1427.74 Q2093.81 1427.93 2093.4 1428.51 Q2093.01 1429.07 2092.17 1429.81 Q2091.32 1430.54 2090.24 1431.24 Q2089.15 1431.94 2087.56 1432.42 Q2085.99 1432.88 2084.25 1432.88 Q2082.18 1432.88 2080.06 1432.23 L2080.06 1441.85 Q2082.61 1439.34 2086.33 1439.34 Q2090.28 1439.34 2093.01 1442.53 Q2095.74 1445.71 2095.74 1450.15 Q2095.74 1454.81 2092.5 1457.99 Q2089.3 1461.17 2084.95 1461.17 Q2081 1461.17 2078.49 1458.35 Q2076 1455.53 2076 1452.13 Z" fill="#000000" fill-rule="evenodd" fill-opacity="1" /><polyline clip-path="url(#clip841)" style="stroke:#000000; stroke-width:3.2; stroke-opacity:1; fill:none" points="
  300,1400 300,1400 300,1382.69 300,1400 366.024,1400 366.024,1382.69 366.024,1400 412.869,1400 412.869,1382.69 412.869,1400 
  449.205,1400 449.205,1382.69 449.205,1400 478.894,1400 478.894,1382.69 478.894,1400 503.995,1400 503.995,1382.69 503.995,1400 525.739,1400 
  525.739,1382.69 525.739,1400 544.918,1400 544.918,1382.69 544.918,1400 562.075,1400 562.075,1382.69 562.075,1400 562.075,1365.39 
  562.075,1400 674.944,1400 674.944,1382.69 674.944,1400 740.969,1400 740.969,1382.69 740.969,1400 787.814,1400 787.814,1382.69 787.814,1400 
  824.149,1400 824.149,1382.69 824.149,1400 853.838,1400 853.838,1382.69 853.838,1400 878.939,1400 878.939,1382.69 878.939,1400 900.683,1400 
  900.683,1382.69 900.683,1400 919.862,1400 919.862,1382.69 919.862,1400 937.019,1400 937.019,1382.69 937.019,1400 937.019,1365.39 
  937.019,1400 1049.89,1400 1049.89,1382.69 1049.89,1400 1115.91,1400 1115.91,1382.69 1115.91,1400 1162.76,1400 1162.76,1382.69 1162.76,1400 
  1199.09,1400 1199.09,1382.69 1199.09,1400 1228.78,1400 1228.78,1382.69 1228.78,1400 1253.88,1400 1253.88,1382.69 1253.88,1400 1275.63,1400 
  1275.63,1382.69 1275.63,1400 1294.81,1400 1294.81,1382.69 1294.81,1400 1311.96,1400 1311.96,1382.69 1311.96,1400 1311.96,1365.39 
  1311.96,1400 1424.83,1400 1424.83,1382.69 1424.83,1400 1490.86,1400 1490.86,1382.69 1490.86,1400 1537.7,1400 1537.7,1382.69 1537.7,1400 
  1574.04,1400 1574.04,1382.69 1574.04,1400 1603.73,1400 1603.73,1382.69 1603.73,1400 1628.83,1400 1628.83,1382.69 1628.83,1400 1650.57,1400 
  1650.57,1382.69 1650.57,1400 1669.75,1400 1669.75,1382.69 1669.75,1400 1686.91,1400 1686.91,1382.69 1686.91,1400 1686.91,1365.39 
  1686.91,1400 1799.78,1400 1799.78,1382.69 1799.78,1400 1865.8,1400 1865.8,1382.69 1865.8,1400 1912.65,1400 1912.65,1382.69 1912.65,1400 
  1948.98,1400 1948.98,1382.69 1948.98,1400 1978.67,1400 1978.67,1382.69 1978.67,1400 2003.77,1400 2003.77,1382.69 2003.77,1400 2025.52,1400 
  2025.52,1382.69 2025.52,1400 2044.69,1400 2044.69,1382.69 2044.69,1400 2061.85,1400 2061.85,1382.69 2061.85,1400 2061.85,1365.39 
  2061.85,1400 2174.72,1400 2174.72,1382.69 2174.72,1400 2220,1400 
  "/>
<polyline clip-path="url(#clip841)" style="stroke:#000000; stroke-width:3.2; stroke-opacity:1; fill:none" points="
  2220,1400 2220,1400 2185.39,1400 2220,1400 2220,1283.64 2202.69,1283.64 2220,1283.64 2220,1167.27 2202.69,1167.27 2220,1167.27 
  2220,1050.91 2202.69,1050.91 2220,1050.91 2220,934.545 2202.69,934.545 2220,934.545 2220,818.182 2185.39,818.182 2220,818.182 2220,701.818 
  2202.69,701.818 2220,701.818 2220,585.455 2202.69,585.455 2220,585.455 2220,469.091 2202.69,469.091 2220,469.091 2220,352.727 2202.69,352.727 
  2220,352.727 2220,236.364 2185.39,236.364 2220,236.364 2220,120 2202.69,120 2220,120 
  "/>
<polyline clip-path="url(#clip841)" style="stroke:#000000; stroke-width:3.2; stroke-opacity:1; fill:none" points="
  300,120 300,120 300,137.307 300,120 366.024,120 366.024,137.307 366.024,120 412.869,120 412.869,137.307 412.869,120 
  449.205,120 449.205,137.307 449.205,120 478.894,120 478.894,137.307 478.894,120 503.995,120 503.995,137.307 503.995,120 525.739,120 
  525.739,137.307 525.739,120 544.918,120 544.918,137.307 544.918,120 562.075,120 562.075,137.307 562.075,120 562.075,154.613 
  562.075,120 674.944,120 674.944,137.307 674.944,120 740.969,120 740.969,137.307 740.969,120 787.814,120 787.814,137.307 787.814,120 
  824.149,120 824.149,137.307 824.149,120 853.838,120 853.838,137.307 853.838,120 878.939,120 878.939,137.307 878.939,120 900.683,120 
  900.683,137.307 900.683,120 919.862,120 919.862,137.307 919.862,120 937.019,120 937.019,137.307 937.019,120 937.019,154.613 
  937.019,120 1049.89,120 1049.89,137.307 1049.89,120 1115.91,120 1115.91,137.307 1115.91,120 1162.76,120 1162.76,137.307 1162.76,120 
  1199.09,120 1199.09,137.307 1199.09,120 1228.78,120 1228.78,137.307 1228.78,120 1253.88,120 1253.88,137.307 1253.88,120 1275.63,120 
  1275.63,137.307 1275.63,120 1294.81,120 1294.81,137.307 1294.81,120 1311.96,120 1311.96,137.307 1311.96,120 1311.96,154.613 
  1311.96,120 1424.83,120 1424.83,137.307 1424.83,120 1490.86,120 1490.86,137.307 1490.86,120 1537.7,120 1537.7,137.307 1537.7,120 
  1574.04,120 1574.04,137.307 1574.04,120 1603.73,120 1603.73,137.307 1603.73,120 1628.83,120 1628.83,137.307 1628.83,120 1650.57,120 
  1650.57,137.307 1650.57,120 1669.75,120 1669.75,137.307 1669.75,120 1686.91,120 1686.91,137.307 1686.91,120 1686.91,154.613 
  1686.91,120 1799.78,120 1799.78,137.307 1799.78,120 1865.8,120 1865.8,137.307 1865.8,120 1912.65,120 1912.65,137.307 1912.65,120 
  1948.98,120 1948.98,137.307 1948.98,120 1978.67,120 1978.67,137.307 1978.67,120 2003.77,120 2003.77,137.307 2003.77,120 2025.52,120 
  2025.52,137.307 2025.52,120 2044.69,120 2044.69,137.307 2044.69,120 2061.85,120 2061.85,137.307 2061.85,120 2061.85,154.613 
  2061.85,120 2174.72,120 2174.72,137.307 2174.72,120 2220,120 
  "/>
<path clip-path="url(#clip840)" d="
M300 1400 L447.692 1400 L447.692 1393.02 L300 1393.02  Z
  " fill="#00528a" fill-rule="evenodd" fill-opacity="1"/>
<polyline clip-path="url(#clip840)" style="stroke:#000000; stroke-width:3.2; stroke-opacity:1; fill:none" points="
  300,1400 447.692,1400 447.692,1393.02 300,1393.02 300,1400
  "/>
<path clip-path="url(#clip840)" d="
M447.692 1400 L595.385 1400 L595.385 1365.09 L447.692 1365.09  Z
  " fill="#00528a" fill-rule="evenodd" fill-opacity="1"/>
<polyline clip-path="url(#clip840)" style="stroke:#000000; stroke-width:3.2; stroke-opacity:1; fill:none" points="
  447.692,1400 595.385,1400 595.385,1365.09 447.692,1365.09 447.692,1400
  "/>
<path clip-path="url(#clip840)" d="
M595.385 1400 L743.077 1400 L743.077 1301.09 L595.385 1301.09  Z
  " fill="#00528a" fill-rule="evenodd" fill-opacity="1"/>
<polyline clip-path="url(#clip840)" style="stroke:#000000; stroke-width:3.2; stroke-opacity:1; fill:none" points="
  595.385,1400 743.077,1400 743.077,1301.09 595.385,1301.09 595.385,1400
  "/>
<path clip-path="url(#clip840)" d="
M743.077 1400 L890.769 1400 L890.769 1084.65 L743.077 1084.65  Z
  " fill="#00528a" fill-rule="evenodd" fill-opacity="1"/>
<polyline clip-path="url(#clip840)" style="stroke:#000000; stroke-width:3.2; stroke-opacity:1; fill:none" points="
  743.077,1400 890.769,1400 890.769,1084.65 743.077,1084.65 743.077,1400
  "/>
<path clip-path="url(#clip840)" d="
M890.769 1400 L1038.46 1400 L1038.46 644.8 L890.769 644.8  Z
  " fill="#00528a" fill-rule="evenodd" fill-opacity="1"/>
<polyline clip-path="url(#clip840)" style="stroke:#000000; stroke-width:3.2; stroke-opacity:1; fill:none" points="
  890.769,1400 1038.46,1400 1038.46,644.8 890.769,644.8 890.769,1400
  "/>
<path clip-path="url(#clip840)" d="
M1038.46 1400 L1186.15 1400 L1186.15 184 L1038.46 184  Z
  " fill="#00528a" fill-rule="evenodd" fill-opacity="1"/>
<polyline clip-path="url(#clip840)" style="stroke:#000000; stroke-width:3.2; stroke-opacity:1; fill:none" points="
  1038.46,1400 1186.15,1400 1186.15,184 1038.46,184 1038.46,1400
  "/>
<path clip-path="url(#clip840)" d="
M1186.15 1400 L1333.85 1400 L1333.85 180.509 L1186.15 180.509  Z
  " fill="#00528a" fill-rule="evenodd" fill-opacity="1"/>
<polyline clip-path="url(#clip840)" style="stroke:#000000; stroke-width:3.2; stroke-opacity:1; fill:none" points="
  1186.15,1400 1333.85,1400 1333.85,180.509 1186.15,180.509 1186.15,1400
  "/>
<path clip-path="url(#clip840)" d="
M1333.85 1400 L1481.54 1400 L1481.54 514.473 L1333.85 514.473  Z
  " fill="#00528a" fill-rule="evenodd" fill-opacity="1"/>
<polyline clip-path="url(#clip840)" style="stroke:#000000; stroke-width:3.2; stroke-opacity:1; fill:none" points="
  1333.85,1400 1481.54,1400 1481.54,514.473 1333.85,514.473 1333.85,1400
  "/>
<path clip-path="url(#clip840)" d="
M1481.54 1400 L1629.23 1400 L1629.23 967.127 L1481.54 967.127  Z
  " fill="#00528a" fill-rule="evenodd" fill-opacity="1"/>
<polyline clip-path="url(#clip840)" style="stroke:#000000; stroke-width:3.2; stroke-opacity:1; fill:none" points="
  1481.54,1400 1629.23,1400 1629.23,967.127 1481.54,967.127 1481.54,1400
  "/>
<path clip-path="url(#clip840)" d="
M1629.23 1400 L1776.92 1400 L1776.92 1269.67 L1629.23 1269.67  Z
  " fill="#00528a" fill-rule="evenodd" fill-opacity="1"/>
<polyline clip-path="url(#clip840)" style="stroke:#000000; stroke-width:3.2; stroke-opacity:1; fill:none" points="
  1629.23,1400 1776.92,1400 1776.92,1269.67 1629.23,1269.67 1629.23,1400
  "/>
<path clip-path="url(#clip840)" d="
M1776.92 1400 L1924.62 1400 L1924.62 1369.75 L1776.92 1369.75  Z
  " fill="#00528a" fill-rule="evenodd" fill-opacity="1"/>
<polyline clip-path="url(#clip840)" style="stroke:#000000; stroke-width:3.2; stroke-opacity:1; fill:none" points="
  1776.92,1400 1924.62,1400 1924.62,1369.75 1776.92,1369.75 1776.92,1400
  "/>
<path clip-path="url(#clip840)" d="
M1924.62 1400 L2072.31 1400 L2072.31 1393.02 L1924.62 1393.02  Z
  " fill="#00528a" fill-rule="evenodd" fill-opacity="1"/>
<polyline clip-path="url(#clip840)" style="stroke:#000000; stroke-width:3.2; stroke-opacity:1; fill:none" points="
  1924.62,1400 2072.31,1400 2072.31,1393.02 1924.62,1393.02 1924.62,1400
  "/>
<path clip-path="url(#clip840)" d="
M2072.31 1400 L2220 1400 L2220 1395.35 L2072.31 1395.35  Z
  " fill="#00528a" fill-rule="evenodd" fill-opacity="1"/>
<polyline clip-path="url(#clip840)" style="stroke:#000000; stroke-width:3.2; stroke-opacity:1; fill:none" points="
  2072.31,1400 2220,1400 2220,1395.35 2072.31,1395.35 2072.31,1400
  "/>
<path clip-path="url(#clip841)" d="M 0 0 M935.447 1566.77 L935.447 1564.9 L936.901 1564.9 Q940.197 1564.9 940.939 1564.37 Q941.711 1563.8 941.711 1562.02 L941.711 1529.99 Q941.711 1528.23 940.939 1527.7 Q940.167 1527.14 936.901 1527.14 L935.447 1527.14 L935.447 1525.24 Q937.584 1525.41 944.68 1525.41 Q952.696 1525.41 954.893 1525.24 L954.893 1527.14 L952.874 1527.14 Q950.084 1527.14 948.807 1527.49 Q947.53 1527.85 947.322 1528.35 Q947.115 1528.83 947.115 1530.05 L947.115 1562.47 Q947.115 1564.04 947.56 1564.49 Q948.035 1564.9 950.084 1564.9 L955.071 1564.9 Q958.159 1564.9 960.386 1563.98 Q962.613 1563.06 963.8 1561.9 Q964.988 1560.74 965.76 1558.58 Q966.561 1556.38 966.799 1554.98 Q967.066 1553.59 967.304 1551.1 L968.818 1551.1 L967.126 1566.77 L935.447 1566.77 Z" fill="#000000" fill-rule="evenodd" fill-opacity="1" /><path clip-path="url(#clip841)" d="M 0 0 M970.837 1566.77 L970.837 1564.9 Q974.073 1564.9 974.815 1564.51 Q975.557 1564.1 975.557 1562.14 L975.557 1545.78 Q975.557 1543.52 974.785 1542.99 Q974.043 1542.46 971.074 1542.46 L971.074 1540.56 L979.566 1539.9 L979.566 1562.2 Q979.566 1564.01 980.219 1564.46 Q980.872 1564.9 983.841 1564.9 L983.841 1566.77 Q977.636 1566.59 977.517 1566.59 Q976.686 1566.59 970.837 1566.77 M973.39 1529.3 Q973.39 1528.09 974.31 1527.11 Q975.261 1526.1 976.597 1526.1 Q977.933 1526.1 978.883 1527.02 Q979.833 1527.91 979.833 1529.33 Q979.833 1530.73 978.883 1531.65 Q977.933 1532.54 976.597 1532.54 Q975.201 1532.54 974.281 1531.56 Q973.39 1530.58 973.39 1529.3 Z" fill="#000000" fill-rule="evenodd" fill-opacity="1" /><path clip-path="url(#clip841)" d="M 0 0 M985.8 1566.77 L985.8 1564.9 Q989.037 1564.9 989.779 1564.51 Q990.521 1564.1 990.521 1562.14 L990.521 1545.84 Q990.521 1543.58 989.719 1543.02 Q988.947 1542.46 985.8 1542.46 L985.8 1540.56 L994.351 1539.9 L994.351 1546.29 Q997.201 1539.9 1003.35 1539.9 Q1007.92 1539.9 1009.73 1542.16 Q1011.07 1543.67 1011.33 1545.36 Q1011.63 1547.06 1011.63 1551.45 L1011.63 1563.06 Q1011.69 1564.34 1012.67 1564.63 Q1013.65 1564.9 1016.38 1564.9 L1016.38 1566.77 Q1010.18 1566.59 1009.55 1566.59 Q1009.08 1566.59 1002.69 1566.77 L1002.69 1564.9 Q1005.93 1564.9 1006.67 1564.51 Q1007.44 1564.1 1007.44 1562.14 L1007.44 1547.98 Q1007.44 1544.89 1006.49 1543.08 Q1005.54 1541.24 1002.93 1541.24 Q999.784 1541.24 997.261 1543.88 Q994.737 1546.52 994.737 1550.98 L994.737 1562.14 Q994.737 1564.1 995.479 1564.51 Q996.251 1564.9 999.458 1564.9 L999.458 1566.77 Q993.253 1566.59 992.659 1566.59 Q992.184 1566.59 985.8 1566.77 Z" fill="#000000" fill-rule="evenodd" fill-opacity="1" /><path clip-path="url(#clip841)" d="M 0 0 M1018.07 1553.38 Q1018.07 1547.65 1021.75 1543.58 Q1025.44 1539.52 1030.72 1539.52 Q1036.07 1539.52 1038.83 1542.99 Q1041.62 1546.46 1041.62 1551.45 Q1041.62 1552.37 1041.38 1552.55 Q1041.14 1552.73 1040.1 1552.73 L1023.12 1552.73 Q1023.12 1558.93 1024.96 1561.84 Q1027.51 1565.91 1031.82 1565.91 Q1032.41 1565.91 1033.13 1565.79 Q1033.84 1565.67 1035.29 1565.17 Q1036.75 1564.63 1038.02 1563.24 Q1039.3 1561.84 1040.04 1559.65 Q1040.22 1558.78 1040.82 1558.81 Q1041.62 1558.81 1041.62 1559.53 Q1041.62 1560.06 1041.02 1561.28 Q1040.46 1562.47 1039.36 1563.89 Q1038.26 1565.32 1036.12 1566.39 Q1034.02 1567.45 1031.46 1567.45 Q1026.12 1567.45 1022.08 1563.42 Q1018.07 1559.35 1018.07 1553.38 M1023.18 1551.45 L1037.61 1551.45 Q1037.61 1550.17 1037.37 1548.75 Q1037.16 1547.32 1036.51 1545.36 Q1035.89 1543.38 1034.4 1542.13 Q1032.92 1540.88 1030.72 1540.88 Q1029.74 1540.88 1028.67 1541.3 Q1027.63 1541.71 1026.36 1542.72 Q1025.08 1543.73 1024.19 1546.02 Q1023.3 1548.3 1023.18 1551.45 Z" fill="#000000" fill-rule="evenodd" fill-opacity="1" /><path clip-path="url(#clip841)" d="M 0 0 M1043.64 1565.97 L1043.64 1557.95 Q1043.64 1557.27 1043.67 1557.03 Q1043.7 1556.8 1043.87 1556.62 Q1044.05 1556.44 1044.41 1556.44 Q1044.82 1556.44 1044.97 1556.62 Q1045.15 1556.8 1045.27 1557.48 Q1046.19 1561.66 1048.15 1563.89 Q1050.14 1566.09 1053.73 1566.09 Q1057.14 1566.09 1058.87 1564.57 Q1060.59 1563.06 1060.59 1560.57 Q1060.59 1556.11 1054.26 1554.98 Q1050.61 1554.24 1049.1 1553.77 Q1047.58 1553.26 1046.25 1552.16 Q1043.64 1550.03 1043.64 1547 Q1043.64 1543.97 1045.92 1541.74 Q1048.24 1539.52 1053.34 1539.52 Q1056.76 1539.52 1059.07 1541.24 Q1059.76 1540.7 1060.11 1540.26 Q1060.92 1539.52 1061.33 1539.52 Q1061.81 1539.52 1061.9 1539.84 Q1061.98 1540.14 1061.98 1541 L1061.98 1547.12 Q1061.98 1547.8 1061.95 1548.04 Q1061.92 1548.27 1061.75 1548.45 Q1061.57 1548.6 1061.18 1548.6 Q1060.5 1548.6 1060.47 1548.04 Q1060 1540.67 1053.34 1540.67 Q1049.75 1540.67 1048.15 1542.07 Q1046.55 1543.44 1046.55 1545.31 Q1046.55 1546.34 1047.02 1547.15 Q1047.53 1547.92 1048.15 1548.39 Q1048.8 1548.84 1049.99 1549.28 Q1051.18 1549.7 1051.89 1549.85 Q1052.63 1550 1054.03 1550.29 Q1058.9 1551.21 1060.95 1553.2 Q1063.5 1555.76 1063.5 1558.99 Q1063.5 1562.58 1061.06 1565.02 Q1058.63 1567.45 1053.73 1567.45 Q1049.78 1567.45 1047.02 1564.81 Q1046.66 1565.17 1046.4 1565.49 Q1046.13 1565.79 1046.01 1565.91 Q1045.92 1566.03 1045.89 1566.12 Q1045.86 1566.18 1045.8 1566.24 Q1044.59 1567.45 1044.29 1567.45 Q1043.81 1567.45 1043.73 1567.13 Q1043.64 1566.83 1043.64 1565.97 Z" fill="#000000" fill-rule="evenodd" fill-opacity="1" /><path clip-path="url(#clip841)" d="M 0 0 M1089.42 1563.51 Q1085.41 1559.53 1085.41 1553.77 Q1085.41 1547.98 1089.33 1543.76 Q1093.28 1539.52 1098.92 1539.52 Q1104.44 1539.52 1108.39 1543.73 Q1112.37 1547.92 1112.37 1553.77 Q1112.37 1559.5 1108.36 1563.48 Q1104.38 1567.45 1098.86 1567.45 Q1093.46 1567.45 1089.42 1563.51 M1090.46 1553.26 Q1090.46 1559.17 1092 1561.84 Q1094.38 1565.91 1098.92 1565.91 Q1101.17 1565.91 1103.05 1564.69 Q1104.95 1563.48 1105.98 1561.43 Q1107.32 1558.76 1107.32 1553.26 Q1107.32 1547.41 1105.72 1544.83 Q1103.34 1540.88 1098.86 1540.88 Q1096.9 1540.88 1094.97 1541.92 Q1093.07 1542.93 1091.91 1544.95 Q1090.46 1547.62 1090.46 1553.26 Z" fill="#000000" fill-rule="evenodd" fill-opacity="1" /><path clip-path="url(#clip841)" d="M 0 0 M1114.39 1542.46 L1114.39 1540.56 L1119.17 1540.56 L1119.17 1533.58 Q1119.17 1529.07 1122.08 1526.48 Q1125.02 1523.9 1128.61 1523.9 Q1130.98 1523.9 1132.53 1525.18 Q1134.07 1526.45 1134.07 1528.17 Q1134.07 1529.33 1133.36 1530.1 Q1132.68 1530.85 1131.4 1530.85 Q1130.18 1530.85 1129.47 1530.07 Q1128.79 1529.3 1128.79 1528.23 Q1128.79 1526.27 1130.6 1525.68 Q1129.68 1525.26 1128.61 1525.24 Q1126.41 1525.24 1124.69 1527.49 Q1123 1529.75 1123 1533.52 L1123 1540.56 L1130.12 1540.56 L1130.12 1542.46 L1123.2 1542.46 L1123.2 1562.02 Q1123.2 1563.77 1123.92 1564.34 Q1124.66 1564.9 1127.81 1564.9 L1129.08 1564.9 L1129.08 1566.77 Q1126.65 1566.59 1121.36 1566.59 Q1120.62 1566.59 1119.46 1566.62 Q1118.34 1566.65 1116.79 1566.71 Q1115.28 1566.77 1114.45 1566.77 L1114.45 1564.9 Q1117.68 1564.9 1118.42 1564.51 Q1119.17 1564.1 1119.17 1562.14 L1119.17 1542.46 L1114.39 1542.46 Z" fill="#000000" fill-rule="evenodd" fill-opacity="1" /><path clip-path="url(#clip841)" d="M 0 0 M1156.78 1559.97 Q1156.78 1558.16 1157.85 1557.3 Q1158.92 1556.44 1160.2 1556.44 Q1161.53 1556.44 1162.54 1557.36 Q1163.58 1558.25 1163.58 1559.85 Q1163.58 1563.24 1159.75 1563.24 Q1159.72 1563.24 1159.69 1563.24 Q1161.89 1566.77 1166.4 1566.77 Q1168.96 1566.77 1170.8 1564.28 Q1172.64 1561.78 1172.64 1557.78 L1172.64 1530.05 Q1172.64 1528.77 1172.4 1528.29 Q1172.16 1527.79 1170.89 1527.46 Q1169.61 1527.14 1166.7 1527.14 L1164.5 1527.14 L1164.5 1525.24 Q1166.82 1525.41 1174.72 1525.41 Q1178.55 1525.41 1182.55 1525.24 L1182.55 1527.14 Q1179.47 1527.14 1178.66 1527.49 Q1177.89 1527.85 1177.89 1529.63 L1177.89 1556.62 Q1177.89 1558.81 1177.83 1559.29 Q1177.3 1562.88 1174.15 1565.49 Q1171 1568.11 1166.52 1568.11 Q1162.45 1568.11 1159.6 1565.76 Q1156.78 1563.39 1156.78 1559.97 Z" fill="#000000" fill-rule="evenodd" fill-opacity="1" /><path clip-path="url(#clip841)" d="M 0 0 M1184.51 1542.46 L1184.51 1540.56 L1193.45 1539.9 L1193.45 1560.09 Q1193.45 1561.55 1193.57 1562.41 Q1193.69 1563.24 1194.16 1564.22 Q1194.67 1565.2 1195.8 1565.64 Q1196.95 1566.09 1198.79 1566.09 Q1202.09 1566.09 1204.11 1563.39 Q1206.16 1560.68 1206.16 1556.68 L1206.16 1545.84 Q1206.16 1543.58 1205.36 1543.02 Q1204.55 1542.46 1201.41 1542.46 L1201.41 1540.56 L1210.34 1539.9 L1210.34 1561.49 Q1210.34 1563.74 1211.12 1564.34 Q1211.92 1564.9 1215.09 1564.9 L1215.09 1566.77 L1206.34 1567.45 L1206.34 1561.96 Q1203.78 1567.42 1198.5 1567.45 Q1195.83 1567.45 1193.98 1566.77 Q1192.17 1566.09 1191.25 1565.26 Q1190.33 1564.4 1189.83 1562.76 Q1189.35 1561.13 1189.29 1560.12 Q1189.23 1559.11 1189.23 1557.15 L1189.23 1548.04 Q1189.23 1543.91 1188.64 1543.2 Q1188.05 1542.46 1184.51 1542.46 Z" fill="#000000" fill-rule="evenodd" fill-opacity="1" /><path clip-path="url(#clip841)" d="M 0 0 M1217.11 1566.77 L1217.11 1564.9 Q1220.35 1564.9 1221.09 1564.51 Q1221.83 1564.1 1221.83 1562.14 L1221.83 1530.52 Q1221.83 1528.26 1221.03 1527.7 Q1220.26 1527.14 1217.11 1527.14 L1217.11 1525.24 L1225.84 1524.58 L1225.84 1562.14 Q1225.84 1564.1 1226.61 1564.51 Q1227.39 1564.9 1230.59 1564.9 L1230.59 1566.77 Q1229.85 1566.77 1228.31 1566.71 Q1226.76 1566.65 1225.63 1566.62 Q1224.51 1566.59 1223.85 1566.59 Q1223.14 1566.59 1217.11 1566.77 Z" fill="#000000" fill-rule="evenodd" fill-opacity="1" /><path clip-path="url(#clip841)" d="M 0 0 M1232.61 1566.77 L1232.61 1564.9 Q1235.85 1564.9 1236.59 1564.51 Q1237.33 1564.1 1237.33 1562.14 L1237.33 1545.78 Q1237.33 1543.52 1236.56 1542.99 Q1235.82 1542.46 1232.85 1542.46 L1232.85 1540.56 L1241.34 1539.9 L1241.34 1562.2 Q1241.34 1564.01 1241.99 1564.46 Q1242.65 1564.9 1245.62 1564.9 L1245.62 1566.77 Q1239.41 1566.59 1239.29 1566.59 Q1238.46 1566.59 1232.61 1566.77 M1235.16 1529.3 Q1235.16 1528.09 1236.08 1527.11 Q1237.03 1526.1 1238.37 1526.1 Q1239.71 1526.1 1240.66 1527.02 Q1241.61 1527.91 1241.61 1529.33 Q1241.61 1530.73 1240.66 1531.65 Q1239.71 1532.54 1238.37 1532.54 Q1236.98 1532.54 1236.06 1531.56 Q1235.16 1530.58 1235.16 1529.3 Z" fill="#000000" fill-rule="evenodd" fill-opacity="1" /><path clip-path="url(#clip841)" d="M 0 0 M1248.17 1560.98 Q1248.17 1555.82 1254.26 1553.08 Q1257.91 1551.33 1265.45 1550.89 L1265.45 1548.66 Q1265.45 1544.89 1263.46 1542.9 Q1261.5 1540.88 1259.01 1540.88 Q1254.55 1540.88 1252.41 1543.67 Q1254.23 1543.73 1254.88 1544.65 Q1255.53 1545.54 1255.53 1546.46 Q1255.53 1547.68 1254.76 1548.48 Q1254.02 1549.25 1252.74 1549.25 Q1251.52 1549.25 1250.72 1548.51 Q1249.92 1547.74 1249.92 1546.4 Q1249.92 1543.44 1252.59 1541.48 Q1255.29 1539.52 1259.12 1539.52 Q1264.11 1539.52 1267.44 1542.87 Q1268.48 1543.91 1268.98 1545.25 Q1269.52 1546.58 1269.57 1547.47 Q1269.63 1548.33 1269.63 1550.06 L1269.63 1562.2 Q1269.63 1562.56 1269.75 1563.15 Q1269.87 1563.74 1270.41 1564.51 Q1270.97 1565.26 1271.89 1565.26 Q1274.09 1565.26 1274.06 1561.37 L1274.06 1557.95 L1275.6 1557.95 L1275.6 1561.37 Q1275.6 1564.6 1273.88 1565.88 Q1272.19 1567.13 1270.61 1567.13 Q1268.6 1567.13 1267.32 1565.64 Q1266.04 1564.16 1265.86 1562.14 Q1264.94 1564.46 1262.84 1565.97 Q1260.76 1567.45 1257.91 1567.45 Q1255.71 1567.45 1253.63 1566.89 Q1251.58 1566.36 1249.86 1564.84 Q1248.17 1563.3 1248.17 1560.98 M1252.86 1560.92 Q1252.86 1563.18 1254.46 1564.63 Q1256.07 1566.09 1258.32 1566.09 Q1260.88 1566.09 1263.16 1564.13 Q1265.45 1562.14 1265.45 1558.25 L1265.45 1552.16 Q1258.71 1552.4 1255.77 1555.1 Q1252.86 1557.78 1252.86 1560.92 Z" fill="#000000" fill-rule="evenodd" fill-opacity="1" /><path clip-path="url(#clip841)" d="M 0 0 M1297.84 1565.97 L1297.84 1557.95 Q1297.84 1557.27 1297.87 1557.03 Q1297.9 1556.8 1298.08 1556.62 Q1298.26 1556.44 1298.61 1556.44 Q1299.03 1556.44 1299.18 1556.62 Q1299.35 1556.8 1299.47 1557.48 Q1300.39 1561.66 1302.35 1563.89 Q1304.34 1566.09 1307.93 1566.09 Q1311.35 1566.09 1313.07 1564.57 Q1314.79 1563.06 1314.79 1560.57 Q1314.79 1556.11 1308.47 1554.98 Q1304.82 1554.24 1303.3 1553.77 Q1301.79 1553.26 1300.45 1552.16 Q1297.84 1550.03 1297.84 1547 Q1297.84 1543.97 1300.13 1541.74 Q1302.44 1539.52 1307.55 1539.52 Q1310.96 1539.52 1313.28 1541.24 Q1313.96 1540.7 1314.32 1540.26 Q1315.12 1539.52 1315.53 1539.52 Q1316.01 1539.52 1316.1 1539.84 Q1316.19 1540.14 1316.19 1541 L1316.19 1547.12 Q1316.19 1547.8 1316.16 1548.04 Q1316.13 1548.27 1315.95 1548.45 Q1315.77 1548.6 1315.39 1548.6 Q1314.7 1548.6 1314.67 1548.04 Q1314.2 1540.67 1307.55 1540.67 Q1303.96 1540.67 1302.35 1542.07 Q1300.75 1543.44 1300.75 1545.31 Q1300.75 1546.34 1301.22 1547.15 Q1301.73 1547.92 1302.35 1548.39 Q1303.01 1548.84 1304.19 1549.28 Q1305.38 1549.7 1306.09 1549.85 Q1306.84 1550 1308.23 1550.29 Q1313.1 1551.21 1315.15 1553.2 Q1317.7 1555.76 1317.7 1558.99 Q1317.7 1562.58 1315.27 1565.02 Q1312.83 1567.45 1307.93 1567.45 Q1303.99 1567.45 1301.22 1564.81 Q1300.87 1565.17 1300.6 1565.49 Q1300.33 1565.79 1300.21 1565.91 Q1300.13 1566.03 1300.1 1566.12 Q1300.07 1566.18 1300.01 1566.24 Q1298.79 1567.45 1298.49 1567.45 Q1298.02 1567.45 1297.93 1567.13 Q1297.84 1566.83 1297.84 1565.97 Z" fill="#000000" fill-rule="evenodd" fill-opacity="1" /><path clip-path="url(#clip841)" d="M 0 0 M1323.4 1563.51 Q1319.39 1559.53 1319.39 1553.77 Q1319.39 1547.98 1323.31 1543.76 Q1327.26 1539.52 1332.9 1539.52 Q1338.43 1539.52 1342.37 1543.73 Q1346.35 1547.92 1346.35 1553.77 Q1346.35 1559.5 1342.34 1563.48 Q1338.37 1567.45 1332.84 1567.45 Q1327.44 1567.45 1323.4 1563.51 M1324.44 1553.26 Q1324.44 1559.17 1325.99 1561.84 Q1328.36 1565.91 1332.9 1565.91 Q1335.16 1565.91 1337.03 1564.69 Q1338.93 1563.48 1339.97 1561.43 Q1341.31 1558.76 1341.31 1553.26 Q1341.31 1547.41 1339.7 1544.83 Q1337.33 1540.88 1332.84 1540.88 Q1330.88 1540.88 1328.95 1541.92 Q1327.05 1542.93 1325.9 1544.95 Q1324.44 1547.62 1324.44 1553.26 Z" fill="#000000" fill-rule="evenodd" fill-opacity="1" /><path clip-path="url(#clip841)" d="M 0 0 M1348.31 1542.46 L1348.31 1540.56 L1357.25 1539.9 L1357.25 1560.09 Q1357.25 1561.55 1357.37 1562.41 Q1357.49 1563.24 1357.96 1564.22 Q1358.47 1565.2 1359.59 1565.64 Q1360.75 1566.09 1362.59 1566.09 Q1365.89 1566.09 1367.91 1563.39 Q1369.96 1560.68 1369.96 1556.68 L1369.96 1545.84 Q1369.96 1543.58 1369.15 1543.02 Q1368.35 1542.46 1365.21 1542.46 L1365.21 1540.56 L1374.14 1539.9 L1374.14 1561.49 Q1374.14 1563.74 1374.91 1564.34 Q1375.72 1564.9 1378.89 1564.9 L1378.89 1566.77 L1370.13 1567.45 L1370.13 1561.96 Q1367.58 1567.42 1362.3 1567.45 Q1359.62 1567.45 1357.78 1566.77 Q1355.97 1566.09 1355.05 1565.26 Q1354.13 1564.4 1353.63 1562.76 Q1353.15 1561.13 1353.09 1560.12 Q1353.03 1559.11 1353.03 1557.15 L1353.03 1548.04 Q1353.03 1543.91 1352.44 1543.2 Q1351.85 1542.46 1348.31 1542.46 Z" fill="#000000" fill-rule="evenodd" fill-opacity="1" /><path clip-path="url(#clip841)" d="M 0 0 M1380.58 1566.77 L1380.58 1564.9 Q1383.82 1564.9 1384.56 1564.51 Q1385.34 1564.1 1385.34 1562.14 L1385.34 1545.84 Q1385.34 1543.58 1384.53 1543.02 Q1383.76 1542.46 1380.58 1542.46 L1380.58 1540.56 L1389.05 1539.9 L1389.05 1546.58 Q1389.91 1543.97 1391.72 1541.95 Q1393.56 1539.9 1396.53 1539.9 Q1398.49 1539.9 1399.73 1541 Q1401.01 1542.1 1401.01 1543.61 Q1401.01 1544.95 1400.18 1545.63 Q1399.38 1546.29 1398.4 1546.29 Q1397.3 1546.29 1396.53 1545.6 Q1395.79 1544.89 1395.79 1543.67 Q1395.79 1542.93 1396.11 1542.37 Q1396.47 1541.77 1396.74 1541.56 Q1397 1541.36 1397.18 1541.3 Q1397.06 1541.24 1396.53 1541.24 Q1393.17 1541.24 1391.24 1544.59 Q1389.34 1547.92 1389.34 1552.67 L1389.34 1562.02 Q1389.34 1563.77 1390.06 1564.34 Q1390.8 1564.9 1393.97 1564.9 L1395.25 1564.9 L1395.25 1566.77 Q1392.82 1566.59 1387.53 1566.59 Q1386.79 1566.59 1385.63 1566.62 Q1384.47 1566.65 1382.96 1566.71 Q1381.45 1566.77 1380.58 1566.77 Z" fill="#000000" fill-rule="evenodd" fill-opacity="1" /><path clip-path="url(#clip841)" d="M 0 0 M1406.95 1563.45 Q1403.09 1559.41 1403.09 1553.65 Q1403.09 1547.86 1406.89 1543.7 Q1410.69 1539.52 1416.27 1539.52 Q1419.98 1539.52 1422.77 1541.3 Q1425.56 1543.05 1425.56 1546.05 Q1425.56 1547.38 1424.76 1548.16 Q1423.99 1548.9 1422.77 1548.9 Q1421.5 1548.9 1420.73 1548.13 Q1419.98 1547.32 1419.98 1546.11 Q1419.98 1545.57 1420.16 1545.04 Q1420.34 1544.5 1420.99 1543.94 Q1421.68 1543.38 1422.83 1543.29 Q1420.67 1541.06 1416.45 1541.06 Q1416.39 1541.06 1416.33 1541.06 Q1413.24 1541.06 1410.69 1543.97 Q1408.14 1546.88 1408.14 1553.53 Q1408.14 1557 1408.97 1559.56 Q1409.83 1562.08 1411.22 1563.39 Q1412.62 1564.69 1413.99 1565.32 Q1415.35 1565.91 1416.69 1565.91 Q1422.66 1565.91 1424.67 1559.53 Q1424.85 1558.93 1425.45 1558.93 Q1426.25 1558.93 1426.25 1559.53 Q1426.25 1559.82 1426.01 1560.6 Q1425.77 1561.37 1425.03 1562.58 Q1424.29 1563.8 1423.22 1564.87 Q1422.18 1565.91 1420.31 1566.68 Q1418.47 1567.45 1416.15 1567.45 Q1410.81 1567.45 1406.95 1563.45 Z" fill="#000000" fill-rule="evenodd" fill-opacity="1" /><path clip-path="url(#clip841)" d="M 0 0 M1427.94 1553.38 Q1427.94 1547.65 1431.62 1543.58 Q1435.3 1539.52 1440.59 1539.52 Q1445.93 1539.52 1448.69 1542.99 Q1451.48 1546.46 1451.48 1551.45 Q1451.48 1552.37 1451.25 1552.55 Q1451.01 1552.73 1449.97 1552.73 L1432.99 1552.73 Q1432.99 1558.93 1434.83 1561.84 Q1437.38 1565.91 1441.69 1565.91 Q1442.28 1565.91 1442.99 1565.79 Q1443.71 1565.67 1445.16 1565.17 Q1446.61 1564.63 1447.89 1563.24 Q1449.17 1561.84 1449.91 1559.65 Q1450.09 1558.78 1450.68 1558.81 Q1451.48 1558.81 1451.48 1559.53 Q1451.48 1560.06 1450.89 1561.28 Q1450.33 1562.47 1449.23 1563.89 Q1448.13 1565.32 1445.99 1566.39 Q1443.88 1567.45 1441.33 1567.45 Q1435.99 1567.45 1431.95 1563.42 Q1427.94 1559.35 1427.94 1553.38 M1433.05 1551.45 L1447.48 1551.45 Q1447.48 1550.17 1447.24 1548.75 Q1447.03 1547.32 1446.38 1545.36 Q1445.75 1543.38 1444.27 1542.13 Q1442.78 1540.88 1440.59 1540.88 Q1439.61 1540.88 1438.54 1541.3 Q1437.5 1541.71 1436.22 1542.72 Q1434.95 1543.73 1434.06 1546.02 Q1433.17 1548.3 1433.05 1551.45 Z" fill="#000000" fill-rule="evenodd" fill-opacity="1" /><path clip-path="url(#clip841)" d="M 0 0 M1477.64 1563.45 Q1473.78 1559.41 1473.78 1553.65 Q1473.78 1547.86 1477.58 1543.7 Q1481.38 1539.52 1486.96 1539.52 Q1490.67 1539.52 1493.47 1541.3 Q1496.26 1543.05 1496.26 1546.05 Q1496.26 1547.38 1495.45 1548.16 Q1494.68 1548.9 1493.47 1548.9 Q1492.19 1548.9 1491.42 1548.13 Q1490.67 1547.32 1490.67 1546.11 Q1490.67 1545.57 1490.85 1545.04 Q1491.03 1544.5 1491.68 1543.94 Q1492.37 1543.38 1493.52 1543.29 Q1491.36 1541.06 1487.14 1541.06 Q1487.08 1541.06 1487.02 1541.06 Q1483.93 1541.06 1481.38 1543.97 Q1478.83 1546.88 1478.83 1553.53 Q1478.83 1557 1479.66 1559.56 Q1480.52 1562.08 1481.92 1563.39 Q1483.31 1564.69 1484.68 1565.32 Q1486.04 1565.91 1487.38 1565.91 Q1493.35 1565.91 1495.37 1559.53 Q1495.54 1558.93 1496.14 1558.93 Q1496.94 1558.93 1496.94 1559.53 Q1496.94 1559.82 1496.7 1560.6 Q1496.46 1561.37 1495.72 1562.58 Q1494.98 1563.8 1493.91 1564.87 Q1492.87 1565.91 1491 1566.68 Q1489.16 1567.45 1486.84 1567.45 Q1481.5 1567.45 1477.64 1563.45 Z" fill="#000000" fill-rule="evenodd" fill-opacity="1" /><path clip-path="url(#clip841)" d="M 0 0 M1502.64 1563.51 Q1498.63 1559.53 1498.63 1553.77 Q1498.63 1547.98 1502.55 1543.76 Q1506.5 1539.52 1512.14 1539.52 Q1517.66 1539.52 1521.61 1543.73 Q1525.59 1547.92 1525.59 1553.77 Q1525.59 1559.5 1521.58 1563.48 Q1517.6 1567.45 1512.08 1567.45 Q1506.68 1567.45 1502.64 1563.51 M1503.68 1553.26 Q1503.68 1559.17 1505.22 1561.84 Q1507.6 1565.91 1512.14 1565.91 Q1514.4 1565.91 1516.27 1564.69 Q1518.17 1563.48 1519.21 1561.43 Q1520.54 1558.76 1520.54 1553.26 Q1520.54 1547.41 1518.94 1544.83 Q1516.56 1540.88 1512.08 1540.88 Q1510.12 1540.88 1508.19 1541.92 Q1506.29 1542.93 1505.13 1544.95 Q1503.68 1547.62 1503.68 1553.26 Z" fill="#000000" fill-rule="evenodd" fill-opacity="1" /><path clip-path="url(#clip841)" d="M 0 0 M1529.36 1553.71 Q1529.36 1547.92 1533.4 1543.91 Q1537.44 1539.9 1542.9 1539.9 Q1547.53 1539.9 1550.56 1543.67 L1550.56 1530.52 Q1550.56 1528.26 1549.76 1527.7 Q1548.99 1527.14 1545.84 1527.14 L1545.84 1525.24 L1554.6 1524.58 L1554.6 1561.49 Q1554.6 1563.74 1555.37 1564.34 Q1556.17 1564.9 1559.32 1564.9 L1559.32 1566.77 L1550.38 1567.45 L1550.38 1563.42 Q1547.23 1567.42 1542.25 1567.45 Q1537.02 1567.45 1533.19 1563.45 Q1529.36 1559.44 1529.36 1553.71 M1534.41 1553.77 Q1534.41 1559.41 1536.16 1562.2 Q1538.59 1566.09 1542.54 1566.09 Q1547.06 1566.09 1549.73 1561.84 Q1550.41 1560.8 1550.38 1559.59 L1550.38 1547.12 Q1550.38 1545.9 1549.73 1544.89 Q1547.23 1541.24 1543.17 1541.24 Q1538.92 1541.24 1536.28 1545.13 Q1534.41 1548.04 1534.41 1553.77 Z" fill="#000000" fill-rule="evenodd" fill-opacity="1" /><path clip-path="url(#clip841)" d="M 0 0 M1561.01 1553.38 Q1561.01 1547.65 1564.69 1543.58 Q1568.37 1539.52 1573.66 1539.52 Q1579 1539.52 1581.76 1542.99 Q1584.55 1546.46 1584.55 1551.45 Q1584.55 1552.37 1584.32 1552.55 Q1584.08 1552.73 1583.04 1552.73 L1566.06 1552.73 Q1566.06 1558.93 1567.9 1561.84 Q1570.45 1565.91 1574.76 1565.91 Q1575.35 1565.91 1576.06 1565.79 Q1576.77 1565.67 1578.23 1565.17 Q1579.68 1564.63 1580.96 1563.24 Q1582.24 1561.84 1582.98 1559.65 Q1583.16 1558.78 1583.75 1558.81 Q1584.55 1558.81 1584.55 1559.53 Q1584.55 1560.06 1583.96 1561.28 Q1583.4 1562.47 1582.3 1563.89 Q1581.2 1565.32 1579.06 1566.39 Q1576.95 1567.45 1574.4 1567.45 Q1569.06 1567.45 1565.02 1563.42 Q1561.01 1559.35 1561.01 1553.38 M1566.12 1551.45 L1580.55 1551.45 Q1580.55 1550.17 1580.31 1548.75 Q1580.1 1547.32 1579.45 1545.36 Q1578.82 1543.38 1577.34 1542.13 Q1575.85 1540.88 1573.66 1540.88 Q1572.68 1540.88 1571.61 1541.3 Q1570.57 1541.71 1569.29 1542.72 Q1568.02 1543.73 1567.13 1546.02 Q1566.23 1548.3 1566.12 1551.45 Z" fill="#000000" fill-rule="evenodd" fill-opacity="1" /><path clip-path="url(#clip841)" d="M 0 0 M70.6111 1017.25 L68.7407 1017.25 Q68.7407 1015.05 68.325 1013.65 Q67.8797 1012.26 67.078 1011.75 Q66.2467 1011.25 65.7123 1011.13 Q65.1482 1010.98 64.2278 1010.98 L32.4895 1010.98 Q31.6285 1010.98 31.4207 1011.22 Q31.2128 1011.43 31.0941 1012.47 Q30.9753 1014.28 30.9753 1015.5 L30.9753 1017.25 L29.0752 1017.25 L29.0752 1006.91 Q29.0752 1006.05 29.1939 1005.82 Q29.3127 1005.58 29.8768 1005.16 L61.437 983.697 L35.4585 983.697 Q34.5381 983.697 34.0037 983.816 Q33.4692 983.935 32.6379 984.469 Q31.8066 984.974 31.391 986.369 Q30.9753 987.765 30.9753 989.962 L29.0752 989.962 Q29.2533 983.579 29.2533 982.866 Q29.2533 982.124 29.0752 975.741 L30.9753 975.741 Q30.9753 977.938 31.391 979.333 Q31.8066 980.728 32.6379 981.233 Q33.4692 981.738 34.0334 981.886 Q34.5678 982.005 35.4585 982.005 L69.0376 982.005 Q70.0173 982.005 70.3142 982.124 Q70.6111 982.243 70.6111 982.836 Q70.6111 983.252 69.8095 983.876 L33.3505 1008.7 Q32.9942 1008.93 32.6082 1009.29 L64.2278 1009.29 Q65.1482 1009.29 65.7123 1009.17 Q66.2467 1009.05 67.078 1008.55 Q67.8797 1008.01 68.325 1006.62 Q68.7407 1005.22 68.7407 1003.03 L70.6111 1003.03 Q70.433 1009.41 70.433 1010.15 Q70.433 1010.86 70.6111 1017.25 Z" fill="#000000" fill-rule="evenodd" fill-opacity="1" /><path clip-path="url(#clip841)" d="M 0 0 M46.2952 973.781 L44.3951 973.781 L43.7419 964.844 L63.9309 964.844 Q65.3857 964.844 66.2467 964.726 Q67.078 964.607 68.0578 964.132 Q69.0376 963.627 69.4829 962.499 Q69.9283 961.341 69.9283 959.5 Q69.9283 956.205 67.2265 954.186 Q64.5247 952.137 60.5166 952.137 L49.6798 952.137 Q47.4234 952.137 46.8593 952.939 Q46.2952 953.74 46.2952 956.888 L44.3951 956.888 L43.7419 947.951 L65.3263 947.951 Q67.5828 947.951 68.1766 947.179 Q68.7407 946.377 68.7407 943.201 L70.6111 943.201 L71.294 951.959 L65.8014 951.959 Q71.2643 954.512 71.294 959.797 Q71.294 962.469 70.6111 964.31 Q69.9283 966.121 69.0969 967.041 Q68.2359 967.962 66.603 968.467 Q64.9701 968.942 63.9606 969.001 Q62.9512 969.06 60.9916 969.06 L51.8769 969.06 Q47.75 969.06 47.0375 969.654 Q46.2952 970.248 46.2952 973.781 Z" fill="#000000" fill-rule="evenodd" fill-opacity="1" /><path clip-path="url(#clip841)" d="M 0 0 M70.6111 941.241 L68.7407 941.241 Q68.7407 938.005 68.3547 937.263 Q67.939 936.52 65.9795 936.52 L49.6798 936.52 Q47.4234 936.52 46.8593 937.322 Q46.2952 938.094 46.2952 941.241 L44.3951 941.241 L43.7419 932.69 L50.1252 932.69 Q43.7419 929.84 43.7419 923.694 Q43.7419 916.569 49.6798 915.589 Q47.364 914.55 45.553 912.383 Q43.7419 910.186 43.7419 906.771 Q43.7419 902.199 45.9983 900.388 Q47.5125 899.052 49.2048 898.785 Q50.8971 898.517 55.2912 898.517 L66.8999 898.517 Q68.1766 898.458 68.4735 897.478 Q68.7407 896.499 68.7407 893.767 L70.6111 893.767 Q70.433 899.972 70.433 900.566 Q70.433 901.041 70.6111 907.454 L68.7407 907.454 Q68.7407 904.218 68.3547 903.476 Q67.939 902.704 65.9795 902.704 L51.8175 902.704 Q48.7298 902.704 46.9187 903.654 Q45.0779 904.604 45.0779 907.217 Q45.0779 910.364 47.7203 912.887 Q50.3627 915.411 54.8162 915.411 L65.9795 915.411 Q67.939 915.411 68.3547 914.669 Q68.7407 913.897 68.7407 910.661 L70.6111 910.661 Q70.433 916.866 70.433 917.489 Q70.433 917.964 70.6111 924.348 L68.7407 924.348 Q68.7407 921.111 68.3547 920.369 Q67.939 919.597 65.9795 919.597 L51.8175 919.597 Q48.7298 919.597 46.9187 920.547 Q45.0779 921.497 45.0779 924.11 Q45.0779 927.257 47.7203 929.781 Q50.3627 932.304 54.8162 932.304 L65.9795 932.304 Q67.939 932.304 68.3547 931.562 Q68.7407 930.79 68.7407 927.584 L70.6111 927.584 Q70.433 933.789 70.433 934.383 Q70.433 934.858 70.6111 941.241 Z" fill="#000000" fill-rule="evenodd" fill-opacity="1" /><path clip-path="url(#clip841)" d="M 0 0 M30.9753 893.767 L29.0752 893.767 L28.422 885.009 L47.6906 885.009 Q43.7419 881.476 43.7419 876.666 Q43.7419 871.44 47.75 867.61 Q51.7581 863.78 57.4882 863.78 Q63.2777 863.78 67.2859 867.789 Q71.294 871.797 71.294 877.349 Q71.294 882.396 66.8405 885.306 Q70.5517 887.443 70.6111 887.503 L70.6111 889.017 L34.3599 889.017 Q32.1035 889.017 31.5394 889.818 Q30.9753 890.62 30.9753 893.767 M63.6934 884.831 Q64.9701 884.831 66.2467 883.97 Q69.9283 881.565 69.9283 877.646 Q69.9283 877.616 69.9283 877.586 Q69.9283 873.341 66.0389 870.698 Q63.1293 868.828 57.4289 868.828 Q51.7878 868.828 48.9673 870.579 Q45.0779 873.014 45.0779 876.963 Q45.0779 881.416 48.9673 884.148 Q49.9471 884.831 51.1643 884.831 L63.6934 884.831 Z" fill="#000000" fill-rule="evenodd" fill-opacity="1" /><path clip-path="url(#clip841)" d="M 0 0 M57.221 860.396 Q51.4909 860.396 47.4234 856.714 Q43.3559 853.033 43.3559 847.748 Q43.3559 842.404 46.8296 839.643 Q50.3033 836.852 55.2912 836.852 Q56.2116 836.852 56.3897 837.089 Q56.5679 837.327 56.5679 838.366 L56.5679 855.349 Q62.773 855.349 65.6826 853.508 Q69.7501 850.955 69.7501 846.65 Q69.7501 846.056 69.6314 845.343 Q69.5126 844.631 69.0079 843.176 Q68.4735 841.721 67.078 840.444 Q65.6826 839.168 63.4856 838.425 Q62.6246 838.247 62.6543 837.654 Q62.6543 836.852 63.3668 836.852 Q63.9012 836.852 65.1185 837.446 Q66.3061 838.01 67.7312 839.108 Q69.1563 840.207 70.2251 842.345 Q71.294 844.452 71.294 847.006 Q71.294 852.35 67.2562 856.388 Q63.1887 860.396 57.221 860.396 M55.2912 855.289 L55.2912 840.86 Q54.0145 840.86 52.5894 841.098 Q51.1643 841.305 49.2048 841.959 Q47.2156 842.582 45.9686 844.067 Q44.7217 845.551 44.7217 847.748 Q44.7217 848.728 45.1373 849.797 Q45.553 850.836 46.5624 852.112 Q47.5719 853.389 49.858 854.28 Q52.1441 855.17 55.2912 855.289 Z" fill="#000000" fill-rule="evenodd" fill-opacity="1" /><path clip-path="url(#clip841)" d="M 0 0 M70.6111 835.16 L68.7407 835.16 Q68.7407 831.923 68.3547 831.181 Q67.939 830.409 65.9795 830.409 L49.6798 830.409 Q47.4234 830.409 46.8593 831.211 Q46.2952 831.983 46.2952 835.16 L44.3951 835.16 L43.7419 826.698 L50.4221 826.698 Q47.8094 825.837 45.7905 824.026 Q43.7419 822.185 43.7419 819.216 Q43.7419 817.257 44.8404 816.01 Q45.9389 814.733 47.4531 814.733 Q48.7892 814.733 49.472 815.564 Q50.1252 816.366 50.1252 817.346 Q50.1252 818.444 49.4423 819.216 Q48.7298 819.958 47.5125 819.958 Q46.7703 819.958 46.2061 819.632 Q45.6124 819.276 45.4045 819.008 Q45.1967 818.741 45.1373 818.563 Q45.0779 818.682 45.0779 819.216 Q45.0779 822.571 48.4329 824.501 Q51.7581 826.401 56.5085 826.401 L65.8608 826.401 Q67.6125 826.401 68.1766 825.689 Q68.7407 824.946 68.7407 821.77 L68.7407 820.493 L70.6111 820.493 Q70.433 822.927 70.433 828.212 Q70.433 828.954 70.4627 830.112 Q70.4924 831.27 70.5517 832.784 Q70.6111 834.299 70.6111 835.16 Z" fill="#000000" fill-rule="evenodd" fill-opacity="1" /><path clip-path="url(#clip841)" d="M 0 0 M67.3452 788.814 Q63.3668 792.822 57.607 792.822 Q51.8175 792.822 47.6016 788.903 Q43.3559 784.954 43.3559 779.313 Q43.3559 773.791 47.5719 769.842 Q51.7581 765.864 57.607 765.864 Q63.3371 765.864 67.3156 769.872 Q71.294 773.85 71.294 779.373 Q71.294 784.776 67.3452 788.814 M57.1023 787.775 Q63.0105 787.775 65.6826 786.231 Q69.7501 783.856 69.7501 779.313 Q69.7501 777.057 68.5328 775.186 Q67.3156 773.286 65.267 772.247 Q62.5949 770.911 57.1023 770.911 Q51.2534 770.911 48.6704 772.514 Q44.7217 774.889 44.7217 779.373 Q44.7217 781.332 45.7608 783.262 Q46.7703 785.162 48.7892 786.32 Q51.4612 787.775 57.1023 787.775 Z" fill="#000000" fill-rule="evenodd" fill-opacity="1" /><path clip-path="url(#clip841)" d="M 0 0 M46.2952 763.845 L44.3951 763.845 L44.3951 759.065 L37.418 759.065 Q32.9051 759.065 30.3221 756.155 Q27.7391 753.216 27.7391 749.623 Q27.7391 747.248 29.0158 745.704 Q30.2924 744.161 32.0145 744.161 Q33.1724 744.161 33.9443 744.873 Q34.6865 745.556 34.6865 746.833 Q34.6865 748.05 33.9146 748.762 Q33.1427 749.445 32.0738 749.445 Q30.1143 749.445 29.5205 747.634 Q29.1049 748.555 29.0752 749.623 Q29.0752 751.82 31.3316 753.542 Q33.588 755.235 37.3586 755.235 L44.3951 755.235 L44.3951 748.109 L46.2952 748.109 L46.2952 755.027 L65.8608 755.027 Q67.6125 755.027 68.1766 754.314 Q68.7407 753.572 68.7407 750.425 L68.7407 749.148 L70.6111 749.148 Q70.433 751.583 70.433 756.868 Q70.433 757.61 70.4627 758.768 Q70.4924 759.896 70.5517 761.44 Q70.6111 762.954 70.6111 763.785 L68.7407 763.785 Q68.7407 760.549 68.3547 759.807 Q67.939 759.065 65.9795 759.065 L46.2952 759.065 L46.2952 763.845 Z" fill="#000000" fill-rule="evenodd" fill-opacity="1" /><path clip-path="url(#clip841)" d="M 0 0 M80.5275 722.249 Q80.5275 719.013 80.1118 718.271 Q79.7259 717.499 77.796 717.499 L49.3236 717.499 Q47.3047 717.499 46.7999 718.271 Q46.2952 719.013 46.2952 722.249 L44.3951 722.249 L43.7419 713.491 L47.75 713.491 Q43.7419 709.839 43.7419 704.97 Q43.7419 699.804 47.75 696.033 Q51.7581 692.263 57.4882 692.263 Q63.2777 692.263 67.2859 696.271 Q71.294 700.279 71.294 705.831 Q71.294 708.859 69.7501 710.908 Q68.1766 712.927 67.0187 713.313 L67.5828 713.313 L77.796 713.313 Q79.7556 713.313 80.1415 712.541 Q80.5275 711.769 80.5275 708.563 L82.3979 708.563 Q82.2198 714.946 82.2198 715.421 Q82.2198 716.015 82.3979 722.249 L80.5275 722.249 M63.6934 713.313 Q64.6138 713.313 64.9404 713.194 Q65.267 713.046 66.2467 712.452 Q69.9283 710.047 69.9283 706.128 Q69.9283 706.098 69.9283 706.069 Q69.9283 702.595 66.3952 699.952 Q62.8324 697.31 57.4882 697.31 Q52.3816 697.31 48.8188 699.715 Q45.2561 702.12 45.2561 705.445 Q45.2561 707.82 46.5327 709.899 Q47.8094 711.977 50.1252 713.313 L63.6934 713.313 Z" fill="#000000" fill-rule="evenodd" fill-opacity="1" /><path clip-path="url(#clip841)" d="M 0 0 M64.8216 689.71 Q59.6556 689.71 56.9241 683.623 Q55.1724 679.971 54.7271 672.43 L52.5004 672.43 Q48.7298 672.43 46.7406 674.419 Q44.7217 676.379 44.7217 678.873 Q44.7217 683.326 47.5125 685.464 Q47.5719 683.653 48.4923 683 Q49.3829 682.346 50.3033 682.346 Q51.5206 682.346 52.3222 683.118 Q53.0942 683.861 53.0942 685.137 Q53.0942 686.355 52.3519 687.156 Q51.58 687.958 50.244 687.958 Q47.275 687.958 45.3155 685.286 Q43.3559 682.584 43.3559 678.754 Q43.3559 673.766 46.7109 670.441 Q47.75 669.402 49.0861 668.897 Q50.4221 668.363 51.3128 668.303 Q52.1738 668.244 53.8958 668.244 L66.0389 668.244 Q66.3952 668.244 66.989 668.125 Q67.5828 668.006 68.3547 667.472 Q69.0969 666.908 69.0969 665.987 Q69.0969 663.79 65.2076 663.82 L61.7933 663.82 L61.7933 662.276 L65.2076 662.276 Q68.4438 662.276 69.7204 663.998 Q70.9674 665.691 70.9674 667.264 Q70.9674 669.283 69.4829 670.56 Q67.9984 671.836 65.9795 672.014 Q68.2953 672.935 69.8095 675.043 Q71.294 677.121 71.294 679.971 Q71.294 682.168 70.7299 684.247 Q70.1955 686.295 68.6813 688.017 Q67.1374 689.71 64.8216 689.71 M64.7622 685.019 Q67.0187 685.019 68.4735 683.415 Q69.9283 681.812 69.9283 679.556 Q69.9283 677.002 67.9687 674.716 Q65.9795 672.43 62.0902 672.43 L56.0038 672.43 Q56.2413 679.17 58.943 682.109 Q61.6151 685.019 64.7622 685.019 Z" fill="#000000" fill-rule="evenodd" fill-opacity="1" /><path clip-path="url(#clip841)" d="M 0 0 M67.2859 656.338 Q63.2481 660.198 57.4882 660.198 Q51.6987 660.198 47.5422 656.398 Q43.3559 652.597 43.3559 647.016 Q43.3559 643.304 45.1373 640.514 Q46.889 637.723 49.8877 637.723 Q51.2237 637.723 51.9956 638.524 Q52.7379 639.296 52.7379 640.514 Q52.7379 641.79 51.966 642.562 Q51.1643 643.304 49.9471 643.304 Q49.4126 643.304 48.8782 643.126 Q48.3438 642.948 47.7797 642.295 Q47.2156 641.612 47.1265 640.454 Q44.8998 642.622 44.8998 646.838 Q44.8998 646.897 44.8998 646.956 Q44.8998 650.044 47.8094 652.597 Q50.719 655.151 57.3695 655.151 Q60.8432 655.151 63.3965 654.319 Q65.9201 653.458 67.2265 652.063 Q68.5328 650.668 69.1563 649.302 Q69.7501 647.936 69.7501 646.6 Q69.7501 640.632 63.3668 638.613 Q62.773 638.435 62.773 637.842 Q62.773 637.04 63.3668 637.04 Q63.6637 637.04 64.4356 637.277 Q65.2076 637.515 66.4249 638.257 Q67.6421 638.999 68.711 640.068 Q69.7501 641.107 70.522 642.978 Q71.294 644.819 71.294 647.134 Q71.294 652.479 67.2859 656.338 Z" fill="#000000" fill-rule="evenodd" fill-opacity="1" /><path clip-path="url(#clip841)" d="M 0 0 M70.6111 637.04 L68.7407 637.04 Q68.7407 633.804 68.3547 633.062 Q67.939 632.29 65.9795 632.29 L34.3599 632.29 Q32.1035 632.29 31.5394 633.091 Q30.9753 633.863 30.9753 637.04 L29.0752 637.04 L28.422 628.281 L57.607 628.281 L50.1846 619.701 Q49.0267 618.365 47.8094 618.365 Q46.414 618.365 46.2952 620.117 L44.3951 620.117 Q44.5732 617.563 44.5732 613.318 Q44.5732 610.824 44.3951 609.072 L46.2952 609.072 Q46.4734 612.902 49.5611 616.732 Q50.244 617.593 52.0253 619.642 Q53.777 621.661 53.9552 621.661 Q54.0145 621.661 54.163 621.601 Q54.3114 621.512 54.4302 621.393 Q54.549 621.275 54.6083 621.275 L65.5045 613.555 Q67.7015 611.982 68.2359 610.824 Q68.7407 609.666 68.7407 607.647 L70.6111 607.647 Q70.433 610.26 70.433 612.962 Q70.433 614.416 70.6111 619.523 L68.7407 619.523 Q68.7407 617.326 67.3156 617.326 Q66.3358 617.326 59.5368 622.254 Q59.0618 622.611 58.0227 623.412 Q56.9241 624.155 56.3897 624.57 L59.715 628.46 L65.9795 628.46 Q67.939 628.46 68.3547 627.717 Q68.7407 626.945 68.7407 623.709 L70.6111 623.709 Q70.433 627.361 70.433 630.389 Q70.433 631.013 70.6111 637.04 Z" fill="#000000" fill-rule="evenodd" fill-opacity="1" /><path clip-path="url(#clip841)" d="M 0 0 M64.8216 606.786 Q59.6556 606.786 56.9241 600.7 Q55.1724 597.048 54.7271 589.507 L52.5004 589.507 Q48.7298 589.507 46.7406 591.496 Q44.7217 593.455 44.7217 595.949 Q44.7217 600.403 47.5125 602.54 Q47.5719 600.729 48.4923 600.076 Q49.3829 599.423 50.3033 599.423 Q51.5206 599.423 52.3222 600.195 Q53.0942 600.937 53.0942 602.214 Q53.0942 603.431 52.3519 604.233 Q51.58 605.034 50.244 605.034 Q47.275 605.034 45.3155 602.362 Q43.3559 599.661 43.3559 595.831 Q43.3559 590.843 46.7109 587.517 Q47.75 586.478 49.0861 585.974 Q50.4221 585.439 51.3128 585.38 Q52.1738 585.32 53.8958 585.32 L66.0389 585.32 Q66.3952 585.32 66.989 585.202 Q67.5828 585.083 68.3547 584.548 Q69.0969 583.984 69.0969 583.064 Q69.0969 580.867 65.2076 580.897 L61.7933 580.897 L61.7933 579.353 L65.2076 579.353 Q68.4438 579.353 69.7204 581.075 Q70.9674 582.767 70.9674 584.341 Q70.9674 586.36 69.4829 587.636 Q67.9984 588.913 65.9795 589.091 Q68.2953 590.011 69.8095 592.119 Q71.294 594.198 71.294 597.048 Q71.294 599.245 70.7299 601.323 Q70.1955 603.372 68.6813 605.094 Q67.1374 606.786 64.8216 606.786 M64.7622 602.095 Q67.0187 602.095 68.4735 600.492 Q69.9283 598.889 69.9283 596.632 Q69.9283 594.079 67.9687 591.793 Q65.9795 589.507 62.0902 589.507 L56.0038 589.507 Q56.2413 596.246 58.943 599.186 Q61.6151 602.095 64.7622 602.095 Z" fill="#000000" fill-rule="evenodd" fill-opacity="1" /><path clip-path="url(#clip841)" d="M 0 0 M75.4209 577.66 Q73.4613 577.66 71.769 576.176 Q70.0767 574.662 69.3345 572.049 Q67.6421 574.721 63.9309 574.721 Q61.0807 574.721 58.8837 572.851 Q56.5085 575.701 52.6191 575.701 Q49.0267 575.701 46.3843 572.851 Q43.7419 570 43.7419 565.844 Q43.7419 562.192 45.9389 559.401 Q43.0887 556.492 43.059 552.959 Q43.059 551.385 44.0388 550.643 Q45.0186 549.871 46.0577 549.871 Q46.9781 549.871 47.4234 550.465 Q47.8688 551.029 47.8688 551.623 Q47.8688 552.365 47.3937 552.899 Q46.889 553.404 46.1171 553.404 Q44.8404 553.404 44.4545 552.424 Q44.3951 552.602 44.3951 553.018 Q44.3951 555.987 46.7703 558.511 Q49.0861 556.017 52.6785 556.017 Q56.271 556.017 58.9134 558.867 Q61.5557 561.717 61.5557 565.844 Q61.5557 569.258 59.6556 571.871 Q60.8729 572.91 62.5355 572.91 Q64.0497 572.91 65.2373 571.99 Q66.4249 571.069 66.603 569.674 Q66.6624 569.258 66.6624 565.131 Q66.6624 562.697 66.7218 561.361 Q66.7811 560.025 67.1968 558.125 Q67.5828 556.195 68.3547 554.681 Q70.5517 550.732 75.3021 550.702 Q78.7758 550.702 80.9431 554.71 Q83.1402 558.689 83.1402 564.211 Q83.1402 569.793 80.9135 573.741 Q78.7164 577.66 75.4209 577.66 M75.4209 574.484 Q77.9148 574.484 79.8149 571.544 Q81.7448 568.605 81.7448 564.152 Q81.7448 559.787 79.8446 556.848 Q77.9742 553.879 75.4209 553.879 Q73.6098 553.879 72.4519 554.918 Q71.294 555.957 70.8189 558.095 Q70.3736 560.203 70.2845 561.687 Q70.1955 563.172 70.1955 565.903 L70.1955 569.496 Q70.3142 571.574 71.8284 573.029 Q73.3426 574.484 75.4209 574.484 M52.6785 571.158 Q60.1603 571.158 60.1603 565.844 Q60.1603 563.172 57.7258 561.539 Q56.0928 560.559 52.6191 560.559 Q45.1373 560.559 45.1373 565.844 Q45.1373 568.516 47.5719 570.179 Q49.2048 571.158 52.6785 571.158 Z" fill="#000000" fill-rule="evenodd" fill-opacity="1" /><path clip-path="url(#clip841)" d="M 0 0 M57.221 548.179 Q51.4909 548.179 47.4234 544.497 Q43.3559 540.815 43.3559 535.531 Q43.3559 530.187 46.8296 527.425 Q50.3033 524.635 55.2912 524.635 Q56.2116 524.635 56.3897 524.872 Q56.5679 525.11 56.5679 526.149 L56.5679 543.131 Q62.773 543.131 65.6826 541.291 Q69.7501 538.737 69.7501 534.432 Q69.7501 533.838 69.6314 533.126 Q69.5126 532.413 69.0079 530.958 Q68.4735 529.504 67.078 528.227 Q65.6826 526.95 63.4856 526.208 Q62.6246 526.03 62.6543 525.436 Q62.6543 524.635 63.3668 524.635 Q63.9012 524.635 65.1185 525.228 Q66.3061 525.792 67.7312 526.891 Q69.1563 527.99 70.2251 530.127 Q71.294 532.235 71.294 534.788 Q71.294 540.133 67.2562 544.17 Q63.1887 548.179 57.221 548.179 M55.2912 543.072 L55.2912 528.643 Q54.0145 528.643 52.5894 528.88 Q51.1643 529.088 49.2048 529.741 Q47.2156 530.365 45.9686 531.849 Q44.7217 533.334 44.7217 535.531 Q44.7217 536.51 45.1373 537.579 Q45.553 538.618 46.5624 539.895 Q47.5719 541.172 49.858 542.062 Q52.1441 542.953 55.2912 543.072 Z" fill="#000000" fill-rule="evenodd" fill-opacity="1" /><path clip-path="url(#clip841)" d="M 0 0 M69.8095 522.616 L61.7933 522.616 Q61.1104 522.616 60.8729 522.586 Q60.6354 522.556 60.4572 522.378 Q60.2791 522.2 60.2791 521.844 Q60.2791 521.428 60.4572 521.28 Q60.6354 521.101 61.3182 520.983 Q65.5045 520.062 67.7312 518.103 Q69.9283 516.114 69.9283 512.521 Q69.9283 509.107 68.4141 507.385 Q66.8999 505.663 64.406 505.663 Q59.9525 505.663 58.8243 511.987 Q58.082 515.639 57.607 517.153 Q57.1023 518.667 56.0038 520.003 Q53.8661 522.616 50.8377 522.616 Q47.8094 522.616 45.5827 520.33 Q43.3559 518.014 43.3559 512.907 Q43.3559 509.493 45.0779 507.177 Q44.5435 506.494 44.0982 506.138 Q43.3559 505.336 43.3559 504.921 Q43.3559 504.446 43.6825 504.356 Q43.9794 504.267 44.8404 504.267 L50.9565 504.267 Q51.6394 504.267 51.8769 504.297 Q52.1144 504.327 52.2925 504.505 Q52.441 504.683 52.441 505.069 Q52.441 505.752 51.8769 505.782 Q44.5138 506.257 44.5138 512.907 Q44.5138 516.5 45.9092 518.103 Q47.275 519.706 49.1454 519.706 Q50.1846 519.706 50.9862 519.231 Q51.7581 518.726 52.2332 518.103 Q52.6785 517.45 53.1239 516.262 Q53.5395 515.074 53.688 514.362 Q53.8364 513.62 54.1333 512.224 Q55.0537 507.355 57.0429 505.307 Q59.5962 502.753 62.8324 502.753 Q66.4249 502.753 68.8594 505.188 Q71.294 507.622 71.294 512.521 Q71.294 516.47 68.6516 519.231 Q69.0079 519.587 69.3345 519.855 Q69.6314 520.122 69.7501 520.24 Q69.8689 520.33 69.9579 520.359 Q70.0173 520.389 70.0767 520.448 Q71.294 521.666 71.294 521.962 Q71.294 522.438 70.9674 522.527 Q70.6705 522.616 69.8095 522.616 Z" fill="#000000" fill-rule="evenodd" fill-opacity="1" /></svg>
